<?xml version="1.0" encoding="utf-8"?>
<!-- Generator: Adobe Illustrator 27.2.0, SVG Export Plug-In . SVG Version: 6.00 Build 0)  -->
<svg version="1.1" id="Capa_1" xmlns="http://www.w3.org/2000/svg" xmlns:xlink="http://www.w3.org/1999/xlink" x="0px" y="0px"
	 viewBox="0 0 1080 2340" style="enable-background:new 0 0 1080 2340;" xml:space="preserve">
<style type="text/css">
	
		.st0{clip-path:url(#SVGID_00000117657099627934832840000011297524182782090645_);fill:url(#SVGID_00000121970073686432772830000013504705362834637708_);}
	
		.st1{clip-path:url(#SVGID_00000104672344859770418640000012151683689557971380_);fill:url(#SVGID_00000131338287549855130750000000827025591837857430_);}
	
		.st2{clip-path:url(#SVGID_00000047769185996185339100000005323671901910586283_);fill:url(#SVGID_00000038405130467023480140000011426331229681879735_);}
	
		.st3{clip-path:url(#SVGID_00000156560772538659263090000008222862964622756031_);fill:url(#SVGID_00000041295738915598162470000010980936469547043753_);}
	
		.st4{clip-path:url(#SVGID_00000031171593057568968370000001435798030906370220_);fill:url(#SVGID_00000011740043156494636420000009568192123657367987_);}
	
		.st5{opacity:0.5;clip-path:url(#SVGID_00000123412004208347448170000014667886885104791722_);fill:#FFFFFF;enable-background:new    ;}
	.st6{clip-path:url(#SVGID_00000016764019849504293780000003600715708628566416_);}
	.st7{fill:url(#SVGID_00000073695178708960333210000006814354321775521163_);}
	.st8{fill:url(#SVGID_00000183947896006968992340000010916650327822121395_);}
	.st9{fill:url(#SVGID_00000093874765009716897400000012490144273595474104_);}
	.st10{fill:url(#SVGID_00000069374117728579055640000006795113191218057661_);}
	.st11{fill:url(#SVGID_00000011752571368882150030000006253294645992869018_);}
	.st12{fill:url(#SVGID_00000088814420379727101990000014403670886679653516_);}
	.st13{fill:url(#SVGID_00000058565564709853396760000013955710706804387494_);}
	
		.st14{clip-path:url(#SVGID_00000098911444533917479990000001968670006080128675_);fill:url(#SVGID_00000174600306223679346100000012250221547747099567_);}
	
		.st15{clip-path:url(#SVGID_00000046326299038380948250000007183608651071360130_);fill:url(#SVGID_00000023278603502123631840000015274348092180475581_);}
	
		.st16{clip-path:url(#SVGID_00000155134945792887123360000017889505118390760854_);fill:url(#SVGID_00000165195426615551216160000006505035612696958128_);}
	
		.st17{clip-path:url(#SVGID_00000108269987912141405080000011515288049365424026_);fill:url(#SVGID_00000082341852098987790710000012787259311161608629_);}
	.st18{fill:url(#SVGID_00000071524694348779921500000013693679513486147981_);}
	
		.st19{clip-path:url(#SVGID_00000019640292757644693410000013574414071958950053_);fill:url(#SVGID_00000028314497698733452720000002329877371988995238_);}
	
		.st20{clip-path:url(#SVGID_00000031181240827704788310000001638680051058518439_);fill:url(#SVGID_00000045611059879008784910000012314551804070876082_);}
	
		.st21{clip-path:url(#SVGID_00000053546552721857107050000004181161583290769303_);fill:url(#SVGID_00000043431751319606887620000011642792698981779846_);}
	
		.st22{clip-path:url(#SVGID_00000001634685114802514910000011508858848847392902_);fill:url(#SVGID_00000054251539944463690160000003461162172566613932_);}
	.st23{fill:url(#SVGID_00000050658994773628612110000018288680394079914632_);}
	.st24{fill:#FFFFFF;}
</style>
<g>
	<g>
		<defs>
			<rect id="SVGID_1_" width="1080" height="2340"/>
		</defs>
		<clipPath id="SVGID_00000013157207106960884870000009268984033267550881_">
			<use xlink:href="#SVGID_1_"  style="overflow:visible;"/>
		</clipPath>
		
			<linearGradient id="SVGID_00000142138955075938135710000016129612640630190484_" gradientUnits="userSpaceOnUse" x1="540" y1="2340" x2="540" y2="0" gradientTransform="matrix(1 0 0 -1 0 2340)">
			<stop  offset="0" style="stop-color:#D9F7FF"/>
			<stop  offset="1" style="stop-color:#53D4CC"/>
		</linearGradient>
		
			<rect style="clip-path:url(#SVGID_00000013157207106960884870000009268984033267550881_);fill:url(#SVGID_00000142138955075938135710000016129612640630190484_);" width="1080" height="2340"/>
	</g>
	<g>
		<defs>
			<rect id="SVGID_00000133519049655092075340000005010140303704400042_" width="1080" height="2340"/>
		</defs>
		<clipPath id="SVGID_00000060736591020139140820000014200446494334900133_">
			<use xlink:href="#SVGID_00000133519049655092075340000005010140303704400042_"  style="overflow:visible;"/>
		</clipPath>
		
			<linearGradient id="SVGID_00000143587567240039817460000016873903071589537939_" gradientUnits="userSpaceOnUse" x1="471.275" y1="1521.73" x2="471.275" y2="678.87" gradientTransform="matrix(1 0 0 -1 0 2340)">
			<stop  offset="0" style="stop-color:#FFFFFF"/>
			<stop  offset="0.9944" style="stop-color:#FFFFFF;stop-opacity:0"/>
		</linearGradient>
		
			<path style="clip-path:url(#SVGID_00000060736591020139140820000014200446494334900133_);fill:url(#SVGID_00000143587567240039817460000016873903071589537939_);" d="
			M820.7,1040.9c-17.8,0-35.1,1.6-52,4.4c-13.7-127.4-133.3-227-278.9-227c-148.8,0-270.4,104-279.6,235.4
			c-27.8-8.3-57.4-12.8-88.3-12.8c-154.8,0-280.2,112.6-280.2,251.4s125.5,251.4,280.2,251.4c41.6,0,81.1-8.2,116.6-22.8
			c45.7,83.1,141.1,140.2,251.4,140.2c105.4,0,197.3-52.3,245.1-129.5c27,7.8,55.8,12,85.8,12c154.8,0,280.2-112.6,280.2-251.4
			S975.5,1040.9,820.7,1040.9z"/>
	</g>
	<g>
		<defs>
			<rect id="SVGID_00000161633541927464588920000011336118614534697089_" width="1080" height="2340"/>
		</defs>
		<clipPath id="SVGID_00000115503591693955170200000003249785907630158722_">
			<use xlink:href="#SVGID_00000161633541927464588920000011336118614534697089_"  style="overflow:visible;"/>
		</clipPath>
		
			<linearGradient id="SVGID_00000009552090618365147110000005697421019580272317_" gradientUnits="userSpaceOnUse" x1="1038.455" y1="1943.1599" x2="1038.455" y2="1100.3" gradientTransform="matrix(1 0 0 -1 0 2340)">
			<stop  offset="0" style="stop-color:#FFFFFF"/>
			<stop  offset="0.9944" style="stop-color:#FFFFFF;stop-opacity:0"/>
		</linearGradient>
		
			<path style="clip-path:url(#SVGID_00000115503591693955170200000003249785907630158722_);fill:url(#SVGID_00000009552090618365147110000005697421019580272317_);" d="
			M1387.8,619.5c-17.8,0-35.1,1.5-52,4.4c-13.7-127.4-133.3-227-278.9-227c-148.8,0-270.4,104-279.6,235.4
			c-27.8-8.3-57.5-12.8-88.3-12.8c-154.8,0-280.2,112.5-280.2,251.4s125.5,251.4,280.2,251.4c41.6,0,81.1-8.2,116.6-22.8
			c45.7,83.1,141.1,140.2,251.4,140.2c105.4,0,197.3-52.3,245.1-129.5c27,7.8,55.8,12,85.8,12c154.8,0,280.2-112.5,280.2-251.4
			S1542.6,619.5,1387.8,619.5z"/>
	</g>
	<g>
		<defs>
			<rect id="SVGID_00000098934525760933749960000001261667994168765580_" width="1080" height="2340"/>
		</defs>
		<clipPath id="SVGID_00000007393605999817430360000006148320085413546626_">
			<use xlink:href="#SVGID_00000098934525760933749960000001261667994168765580_"  style="overflow:visible;"/>
		</clipPath>
		
			<linearGradient id="SVGID_00000048489452096283793190000018117200954460679315_" gradientUnits="userSpaceOnUse" x1="329.535" y1="2144.97" x2="329.535" y2="1302.1001" gradientTransform="matrix(1 0 0 -1 0 2340)">
			<stop  offset="0" style="stop-color:#FFFFFF"/>
			<stop  offset="0.9944" style="stop-color:#FFFFFF;stop-opacity:0"/>
		</linearGradient>
		
			<path style="clip-path:url(#SVGID_00000007393605999817430360000006148320085413546626_);fill:url(#SVGID_00000048489452096283793190000018117200954460679315_);" d="
			M678.9,417.6c-17.8,0-35.1,1.5-52,4.4c-13.7-127.4-133.3-227-278.9-227c-148.8,0-270.4,104-279.6,235.4
			c-27.8-8.3-57.5-12.8-88.3-12.8c-154.8,0-280.2,112.6-280.2,251.4s125.5,251.4,280.2,251.4c41.6,0,81.1-8.2,116.6-22.8
			c45.7,83.1,141.1,140.2,251.4,140.2c105.5,0,197.3-52.3,245.1-129.5c27,7.8,55.8,12,85.8,12c154.8,0,280.2-112.5,280.2-251.4
			S833.7,417.6,678.9,417.6z"/>
	</g>
	<g>
		<defs>
			<rect id="SVGID_00000178173090292216079670000004349958022900824489_" width="1080" height="2340"/>
		</defs>
		<clipPath id="SVGID_00000111179250636211014320000000652130233210343613_">
			<use xlink:href="#SVGID_00000178173090292216079670000004349958022900824489_"  style="overflow:visible;"/>
		</clipPath>
		
			<linearGradient id="SVGID_00000112629672847776518810000014806157289363325335_" gradientUnits="userSpaceOnUse" x1="579.788" y1="944.1888" x2="637.3977" y2="236.4185" gradientTransform="matrix(1 0 0 -1 0 2340)">
			<stop  offset="0" style="stop-color:#E6EB97"/>
			<stop  offset="0.9944" style="stop-color:#6FBC42"/>
		</linearGradient>
		
			<path style="clip-path:url(#SVGID_00000111179250636211014320000000652130233210343613_);fill:url(#SVGID_00000112629672847776518810000014806157289363325335_);" d="
			M-651.3,1957.9c0,0,982.1-941.3,2555.8-256.5v828.9H-627.7L-651.3,1957.9z"/>
	</g>
	<g>
		<defs>
			<rect id="SVGID_00000045620552991601713040000000378715934824692877_" width="1080" height="2340"/>
		</defs>
		<clipPath id="SVGID_00000006700805524078830070000004660741508708183196_">
			<use xlink:href="#SVGID_00000045620552991601713040000000378715934824692877_"  style="overflow:visible;"/>
		</clipPath>
		
			<path style="opacity:0.5;clip-path:url(#SVGID_00000006700805524078830070000004660741508708183196_);fill:#FFFFFF;enable-background:new    ;" d="
			M539.7,1759c255.4-31.4,522.5-108.8,724.2-259.7c-675.1-130.8-1198.6,32.4-1526.4,199.3C-6.3,1766.6,265.6,1789.2,539.7,1759z"/>
	</g>
	<g>
		<defs>
			<rect id="SVGID_00000143597975355912476740000017785320856090185388_" width="1080" height="2340"/>
		</defs>
		<clipPath id="SVGID_00000059995688078308371630000000646105375772222867_">
			<use xlink:href="#SVGID_00000143597975355912476740000017785320856090185388_"  style="overflow:visible;"/>
		</clipPath>
		<g style="clip-path:url(#SVGID_00000059995688078308371630000000646105375772222867_);">
			
				<linearGradient id="SVGID_00000057851825630605198400000004799066155922653588_" gradientUnits="userSpaceOnUse" x1="618.0815" y1="522.2734" x2="607.7508" y2="186.5239" gradientTransform="matrix(1 0 0 -1 0 2340)">
				<stop  offset="0" style="stop-color:#B2C557"/>
				<stop  offset="0.9944" style="stop-color:#367006"/>
			</linearGradient>
			<path style="fill:url(#SVGID_00000057851825630605198400000004799066155922653588_);" d="M977.8,2071
				c37.7-30.5,61.4-74.6,61.4-123.7c0-92-83.1-166.5-185.6-166.5c-22.3,0-43.8,3.6-63.6,10c-41.6-58.9-114.8-98.1-198.3-98.1
				c-101,0-187.1,57.3-220.2,137.6c-4.8-0.4-9.6-0.6-14.5-0.6c-87.4,0-158.3,63.6-158.3,142c0,38.2,16.8,72.8,44.1,98.3
				c-57.5,19.7-91.5,38-91.5,43.7c0,14.1,204.9,25.4,457.7,25.4c252.8,0,457.7-11.4,457.7-25.4
				C1066.7,2108.2,1033.7,2090.4,977.8,2071z"/>
			
				<linearGradient id="SVGID_00000034805020403181728490000006628098763433238923_" gradientUnits="userSpaceOnUse" x1="520.3438" y1="1724.5393" x2="498.7671" y2="1023.2995" gradientTransform="matrix(1 0 0 -1 0 2340)">
				<stop  offset="0" style="stop-color:#85BF6C"/>
				<stop  offset="1" style="stop-color:#33A869"/>
			</linearGradient>
			<path style="fill:url(#SVGID_00000034805020403181728490000006628098763433238923_);" d="M892.8,1289H332.3
				c-122.2,0-232.4-19.9-316.8-99.2c-75.8-71.3-134.2-196.2-55.6-326.3c82.9-137.2,213.4-136.3,276.2-132
				c0,0-130.3-333.2,248.5-372.2c340.8-35,537,294.3,530.7,549.9c-1,40.8,13.1,81.1,41.5,113c19.1,21.4,35.7,53.8,34.3,97.2
				C1088,1214.4,998.8,1289,892.8,1289z"/>
			
				<linearGradient id="SVGID_00000163031733971549422770000001722976391382010554_" gradientUnits="userSpaceOnUse" x1="982.9319" y1="1907.9066" x2="578.3705" y2="1357.6158" gradientTransform="matrix(1 0 0 -1 0 2340)">
				<stop  offset="0" style="stop-color:#85BF6C"/>
				<stop  offset="1" style="stop-color:#33A869"/>
			</linearGradient>
			<path style="fill:url(#SVGID_00000163031733971549422770000001722976391382010554_);" d="M1056.9,1022.1
				c-28.4-31.9-42.5-72.2-41.5-113c6.3-255.5-190-584.9-530.7-549.9c-45,4.6-82.7,13.4-114.4,25.3c55,4.1,109.3,16.7,161.7,40.2
				c96.4,41,198,132,167.5,236.8c-45.7,150.3-269,223.1-243.6,391.6c10.1,59.2,101.5,86.5,172.6,68.3
				c76.1-18.2,192.9-77.4,238.6,4.6c40.6,68.3-40.6,127.5-106.6,150.3c-12.8,4.7-25.7,9-38.8,12.8h171.3
				c106,0,195.2-74.6,198.3-169.6C1092.6,1076,1075.9,1043.6,1056.9,1022.1z"/>
			
				<linearGradient id="SVGID_00000064347021925145488300000005848974805369751169_" gradientUnits="userSpaceOnUse" x1="628.5288" y1="1245.9651" x2="509.8962" y2="1489.9141" gradientTransform="matrix(0.9982 6.070000e-02 6.070000e-02 -0.9982 18.3523 2268.3303)">
				<stop  offset="0" style="stop-color:#9B3D41"/>
				<stop  offset="1" style="stop-color:#AF5946"/>
			</linearGradient>
			<polygon style="fill:url(#SVGID_00000064347021925145488300000005848974805369751169_);" points="561.4,1096.7 746.7,645.1 
				589.2,1221.8 			"/>
			
				<linearGradient id="SVGID_00000104685434376294902950000007523072242404016008_" gradientUnits="userSpaceOnUse" x1="408.4889" y1="1099.295" x2="276.5784" y2="1370.5477" gradientTransform="matrix(0.9982 6.070000e-02 6.070000e-02 -0.9982 18.3523 2268.3303)">
				<stop  offset="0" style="stop-color:#9B3D41"/>
				<stop  offset="1" style="stop-color:#AF5946"/>
			</linearGradient>
			<polygon style="fill:url(#SVGID_00000104685434376294902950000007523072242404016008_);" points="554.4,1200.9 282.2,830 
				548.4,1289 			"/>
			
				<linearGradient id="SVGID_00000101786776192264917130000001486064057710296481_" gradientUnits="userSpaceOnUse" x1="452.0717" y1="744.4929" x2="368.3979" y2="916.5546" gradientTransform="matrix(0.9982 6.070000e-02 6.070000e-02 -0.9982 18.3523 2268.3303)">
				<stop  offset="0" style="stop-color:#9B3D41"/>
				<stop  offset="1" style="stop-color:#AF5946"/>
			</linearGradient>
			<polygon style="fill:url(#SVGID_00000101786776192264917130000001486064057710296481_);" points="579.1,1548.7 357.1,1330.6 
				563.1,1606.3 			"/>
			
				<linearGradient id="SVGID_00000101803024588632314390000008658717856771334304_" gradientUnits="userSpaceOnUse" x1="635.849" y1="532.1802" x2="236.5095" y2="1353.3582" gradientTransform="matrix(0.9982 6.070000e-02 6.070000e-02 -0.9982 18.3523 2268.3303)">
				<stop  offset="0" style="stop-color:#9B3D41"/>
				<stop  offset="1" style="stop-color:#AF5946"/>
			</linearGradient>
			<path style="fill:url(#SVGID_00000101803024588632314390000008658717856771334304_);" d="M478,490.6
				c0,0,210.7,902.5,178.3,1648.7H511.8C511.8,2139.3,585.3,1260.7,478,490.6z"/>
			<g>
				<g>
					<g>
						<defs>
							<path id="SVGID_00000030482820242204744090000015564076754287952288_" d="M696.4,2110.8c0,0-106.8-202.9,0-386.3
								c95.9-164.7,224.3-44.9,150.2,87.1c-72,128.2-104.9,299.2-104.9,299.2H696.4z"/>
						</defs>
						<clipPath id="SVGID_00000107546238345434574550000013276876590507542172_">
							<use xlink:href="#SVGID_00000030482820242204744090000015564076754287952288_"  style="overflow:visible;"/>
						</clipPath>
						
							<linearGradient id="SVGID_00000134950085098816540930000003859820253829826723_" gradientUnits="userSpaceOnUse" x1="758.7979" y1="562.2513" x2="758.7979" y2="24.1619" gradientTransform="matrix(1 0 0 -1 0 2340)">
							<stop  offset="0" style="stop-color:#1C9B7C"/>
							<stop  offset="1" style="stop-color:#06655D"/>
						</linearGradient>
						
							<path style="clip-path:url(#SVGID_00000107546238345434574550000013276876590507542172_);fill:url(#SVGID_00000134950085098816540930000003859820253829826723_);" d="
							M696.4,2110.8c0,0-106.8-202.9,0-386.3c95.9-164.7,224.3-44.9,150.2,87.1c-72,128.2-104.9,299.2-104.9,299.2H696.4z"/>
					</g>
					<g>
						<defs>
							<path id="SVGID_00000050652898277272471190000007135870748680244920_" d="M696.4,2110.8c0,0-106.8-202.9,0-386.3
								c95.9-164.7,224.3-44.9,150.2,87.1c-72,128.2-104.9,299.2-104.9,299.2H696.4z"/>
						</defs>
						<clipPath id="SVGID_00000097481590098506668600000011180960182538873235_">
							<use xlink:href="#SVGID_00000050652898277272471190000007135870748680244920_"  style="overflow:visible;"/>
						</clipPath>
						
							<linearGradient id="SVGID_00000122692040925518492320000016640784326794145673_" gradientUnits="userSpaceOnUse" x1="767.4414" y1="518.1688" x2="694.1127" y2="249.2966" gradientTransform="matrix(1 0 0 -1 0 2340)">
							<stop  offset="0" style="stop-color:#E6EB97"/>
							<stop  offset="0.9944" style="stop-color:#6FBC42"/>
						</linearGradient>
						
							<path style="clip-path:url(#SVGID_00000097481590098506668600000011180960182538873235_);fill:url(#SVGID_00000122692040925518492320000016640784326794145673_);" d="
							M719.4,2120.6c-7-32.6-10.5-65.7-11.8-98.9c-1.1-33.2,0.5-66.5,4.5-99.6c1.6-16.6,4.9-33,7.8-49.5c1.8-8.2,3.9-16.3,6-24.4
							l3.3-12.2l4.1-12c2.9-7.9,5.6-15.9,8.6-23.8c3.5-7.7,6.9-15.5,10.6-23.2c1.8-3.8,3.5-7.7,5.5-11.5l6.3-11.1
							c4.4-7.3,8.6-14.8,13.1-22l0.9,0.4c-13,31.1-26.5,61.7-35.3,93.7l-3.8,11.8l-3,12c-2,8-4.5,15.9-6.4,24
							c-3.5,16.1-7.3,32.2-9.6,48.6c-5,32.6-7.6,65.6-7.5,98.7c-0.1,33,2.1,66.1,7.7,98.8L719.4,2120.6z"/>
					</g>
				</g>
				<g>
					<g>
						<defs>
							<path id="SVGID_00000047741532554522330910000007717145085859651986_" d="M778.8,2109.5c0,0-30.5-156.9,81.1-264.4
								c100.2-96.6,163,7.2,84.5,85c-76.2,75.6-134.7,187.1-134.7,187.1L778.8,2109.5z"/>
						</defs>
						<clipPath id="SVGID_00000109003662327574606100000009801691017802260624_">
							<use xlink:href="#SVGID_00000047741532554522330910000007717145085859651986_"  style="overflow:visible;"/>
						</clipPath>
						
							<linearGradient id="SVGID_00000089552565023603834550000009234500649728636837_" gradientUnits="userSpaceOnUse" x1="915.2994" y1="515.3281" x2="845.9812" y2="311.7746" gradientTransform="matrix(1 0 0 -1 0 2340)">
							<stop  offset="0" style="stop-color:#1C9B7C"/>
							<stop  offset="1" style="stop-color:#06655D"/>
						</linearGradient>
						
							<path style="clip-path:url(#SVGID_00000109003662327574606100000009801691017802260624_);fill:url(#SVGID_00000089552565023603834550000009234500649728636837_);" d="
							M778.8,2109.5c0,0-30.5-156.9,81.1-264.4c100.2-96.6,163,7.2,84.5,85c-76.2,75.6-134.7,187.1-134.7,187.1L778.8,2109.5z"/>
					</g>
					<g>
						<defs>
							<path id="SVGID_00000024001597633273791070000018027244387317132696_" d="M778.8,2109.5c0,0-30.5-156.9,81.1-264.4
								c100.2-96.6,163,7.2,84.5,85c-76.2,75.6-134.7,187.1-134.7,187.1L778.8,2109.5z"/>
						</defs>
						<clipPath id="SVGID_00000010273266383996513740000013569407191288969913_">
							<use xlink:href="#SVGID_00000024001597633273791070000018027244387317132696_"  style="overflow:visible;"/>
						</clipPath>
						
							<linearGradient id="SVGID_00000041977386449079776310000016183370809390839224_" gradientUnits="userSpaceOnUse" x1="674.551" y1="342.3745" x2="621.4988" y2="147.8499" gradientTransform="matrix(0.9641 0.2654 0.2654 -0.9641 144.6462 2073.4341)">
							<stop  offset="0" style="stop-color:#E6EB97"/>
							<stop  offset="0.9944" style="stop-color:#6FBC42"/>
						</linearGradient>
						
							<path style="clip-path:url(#SVGID_00000010273266383996513740000013569407191288969913_);fill:url(#SVGID_00000041977386449079776310000016183370809390839224_);" d="
							M792.5,2120.1c2.1-23.5,6.6-46.8,12.7-69.7c6.2-22.9,14.3-45.5,24-67.4c4.6-11.1,10.3-21.8,15.7-32.6
							c2.9-5.3,6.1-10.5,9.2-15.7l4.8-7.8l5.3-7.5c3.6-4.9,7.2-9.9,10.9-14.8c4-4.7,8-9.4,12.1-14.1c2.1-2.3,4-4.7,6.2-6.9l6.7-6.6
							c4.5-4.3,9-8.6,13.6-12.8l0.5,0.4c-15.5,19.1-31.1,37.7-43.8,58.2l-5.1,7.4l-4.6,7.7c-3.1,5.1-6.4,10.2-9.4,15.3
							c-5.8,10.5-11.8,20.8-16.8,31.7c-10.3,21.5-19,43.6-25.8,66.3c-7,22.6-12.5,45.6-15.5,68.9L792.5,2120.1z"/>
					</g>
				</g>
				
					<linearGradient id="SVGID_00000007413759085951687660000016719455404449483700_" gradientUnits="userSpaceOnUse" x1="750.66" y1="276.2656" x2="750.66" y2="155.2146" gradientTransform="matrix(1 0 0 -1 0 2340)">
					<stop  offset="0" style="stop-color:#1C9B7C"/>
					<stop  offset="1" style="stop-color:#06655D"/>
				</linearGradient>
				<path style="fill:url(#SVGID_00000007413759085951687660000016719455404449483700_);" d="M562.5,2131.9
					c0,18.5,84.2,17.3,188.2,17.3s188.2,1.2,188.2-17.3s-84.2-33.5-188.2-33.5S562.5,2113.4,562.5,2131.9z"/>
			</g>
			<g>
				<g>
					<g>
						<defs>
							<path id="SVGID_00000090280639579464777270000016901822370874047147_" d="M519.5,2117.2c0,0,88.9-168.9,0-321.6
								c-79.8-137.2-186.8-37.4-125,72.5c60,106.7,87.4,249.1,87.4,249.1H519.5z"/>
						</defs>
						<clipPath id="SVGID_00000168109915790628809680000007707609907019289532_">
							<use xlink:href="#SVGID_00000090280639579464777270000016901822370874047147_"  style="overflow:visible;"/>
						</clipPath>
						
							<linearGradient id="SVGID_00000021103019767683722090000001985766375462979970_" gradientUnits="userSpaceOnUse" x1="1919.0626" y1="500.0549" x2="1919.0626" y2="52.0569" gradientTransform="matrix(-1 0 0 -1 2386.5818 2340)">
							<stop  offset="0" style="stop-color:#1C9B7C"/>
							<stop  offset="1" style="stop-color:#06655D"/>
						</linearGradient>
						
							<path style="clip-path:url(#SVGID_00000168109915790628809680000007707609907019289532_);fill:url(#SVGID_00000021103019767683722090000001985766375462979970_);" d="
							M519.5,2117.2c0,0,88.9-168.9,0-321.6c-79.8-137.2-186.8-37.4-125,72.5c60,106.7,87.4,249.1,87.4,249.1H519.5z"/>
					</g>
					<g>
						<defs>
							<path id="SVGID_00000179639282097380580680000016185264908465182864_" d="M519.5,2117.2c0,0,88.9-168.9,0-321.6
								c-79.8-137.2-186.8-37.4-125,72.5c60,106.7,87.4,249.1,87.4,249.1H519.5z"/>
						</defs>
						<clipPath id="SVGID_00000158014950100969403070000013740331901033465006_">
							<use xlink:href="#SVGID_00000179639282097380580680000016185264908465182864_"  style="overflow:visible;"/>
						</clipPath>
						
							<linearGradient id="SVGID_00000111174995316461421160000006160716943846104467_" gradientUnits="userSpaceOnUse" x1="1926.2449" y1="463.3564" x2="1865.1935" y2="239.501" gradientTransform="matrix(-1 0 0 -1 2386.5818 2340)">
							<stop  offset="0" style="stop-color:#E6EB97"/>
							<stop  offset="0.9944" style="stop-color:#6FBC42"/>
						</linearGradient>
						
							<path style="clip-path:url(#SVGID_00000158014950100969403070000013740331901033465006_);fill:url(#SVGID_00000111174995316461421160000006160716943846104467_);" d="
							M500.3,2125.4c5.8-27.1,8.7-54.7,9.8-82.4c1-27.7-0.4-55.4-3.8-82.9c-1.4-13.8-4-27.5-6.5-41.2c-1.5-6.8-3.3-13.6-5-20.3
							l-2.7-10.1l-3.4-10c-2.4-6.6-4.7-13.2-7.2-19.8c-2.9-6.4-5.8-12.9-8.8-19.3c-1.5-3.2-2.9-6.4-4.6-9.6l-5.3-9.3
							c-3.6-6.1-7.2-12.3-10.9-18.3l-0.8,0.3c10.9,25.9,22.1,51.3,29.4,78l3.2,9.8l2.5,10c1.7,6.7,3.7,13.3,5.3,20
							c2.9,13.4,6.1,26.8,8,40.5c4.2,27.2,6.4,54.6,6.2,82.1c0,27.5-1.8,55.1-6.4,82.3L500.3,2125.4z"/>
					</g>
				</g>
				<g>
					<g>
						<defs>
							<path id="SVGID_00000134961678698670611070000006548898220055731585_" d="M450.9,2116.1c0,0,25.4-130.7-67.5-220.2
								c-83.5-80.4-135.7,6-70.4,70.8c63.5,62.9,112.1,155.7,112.1,155.7L450.9,2116.1z"/>
						</defs>
						<clipPath id="SVGID_00000039828877233462685050000012029495575059283879_">
							<use xlink:href="#SVGID_00000134961678698670611070000006548898220055731585_"  style="overflow:visible;"/>
						</clipPath>
						
							<linearGradient id="SVGID_00000001657790119794768020000017437308796212190101_" gradientUnits="userSpaceOnUse" x1="2049.363" y1="460.9871" x2="1991.6508" y2="291.5143" gradientTransform="matrix(-1 0 0 -1 2386.5818 2340)">
							<stop  offset="0" style="stop-color:#1C9B7C"/>
							<stop  offset="1" style="stop-color:#06655D"/>
						</linearGradient>
						
							<path style="clip-path:url(#SVGID_00000039828877233462685050000012029495575059283879_);fill:url(#SVGID_00000001657790119794768020000017437308796212190101_);" d="
							M450.9,2116.1c0,0,25.4-130.7-67.5-220.2c-83.5-80.4-135.7,6-70.4,70.8c63.5,62.9,112.1,155.7,112.1,155.7L450.9,2116.1z"/>
					</g>
					<g>
						<defs>
							<path id="SVGID_00000080197966559836112680000013076661672501748115_" d="M450.9,2116.1c0,0,25.4-130.7-67.5-220.2
								c-83.5-80.4-135.7,6-70.4,70.8c63.5,62.9,112.1,155.7,112.1,155.7L450.9,2116.1z"/>
						</defs>
						<clipPath id="SVGID_00000106867547175674146420000010507558144545426058_">
							<use xlink:href="#SVGID_00000080197966559836112680000013076661672501748115_"  style="overflow:visible;"/>
						</clipPath>
						
							<linearGradient id="SVGID_00000070079700781156282840000014323579257336677005_" gradientUnits="userSpaceOnUse" x1="1782.8125" y1="608.0654" x2="1738.6428" y2="446.1098" gradientTransform="matrix(-0.9641 0.2654 -0.2654 -0.9641 2241.9355 2073.4341)">
							<stop  offset="0" style="stop-color:#E6EB97"/>
							<stop  offset="0.9944" style="stop-color:#6FBC42"/>
						</linearGradient>
						
							<path style="clip-path:url(#SVGID_00000106867547175674146420000010507558144545426058_);fill:url(#SVGID_00000070079700781156282840000014323579257336677005_);" d="
							M439.5,2125c-1.7-19.6-5.5-38.9-10.6-58c-5.2-19.1-11.9-37.8-20-56.1c-3.8-9.2-8.5-18.1-13.1-27.1c-2.4-4.4-5.1-8.7-7.7-13.1
							l-4-6.5l-4.4-6.2c-3-4.1-6-8.3-9.1-12.3c-3.4-3.9-6.6-7.9-10.1-11.7c-1.7-1.9-3.4-3.9-5.1-5.8l-5.5-5.5
							c-3.8-3.6-7.5-7.2-11.3-10.7l-0.5,0.4c12.9,15.9,25.9,31.4,36.5,48.4l4.2,6.2l3.8,6.4c2.6,4.3,5.3,8.5,7.8,12.8
							c4.8,8.7,9.8,17.3,14,26.4c8.5,17.9,15.8,36.3,21.5,55.2c5.8,18.8,10.4,38,12.9,57.4L439.5,2125z"/>
					</g>
				</g>
				
					<linearGradient id="SVGID_00000140700356486215808860000013687019498878165397_" gradientUnits="userSpaceOnUse" x1="1912.2817" y1="261.9521" x2="1912.2817" y2="161.1677" gradientTransform="matrix(-1 0 0 -1 2386.5818 2340)">
					<stop  offset="0" style="stop-color:#1C9B7C"/>
					<stop  offset="1" style="stop-color:#06655D"/>
				</linearGradient>
				<path style="fill:url(#SVGID_00000140700356486215808860000013687019498878165397_);" d="M631,2134.8
					c0,15.4-70.1,14.4-156.6,14.4s-156.6,1-156.6-14.4s70.1-27.9,156.6-27.9C560.8,2106.9,631,2119.4,631,2134.8z"/>
			</g>
			<g>
				<path class="st24" d="M321.7,1136.2c0,3.1-2.8,5.7-6.3,5.7s-6.3-2.5-6.3-5.7s2.8-5.7,6.3-5.7S321.7,1133,321.7,1136.2z"/>
				<ellipse class="st24" cx="329.7" cy="1175.3" rx="12" ry="10.8"/>
				<path class="st24" d="M426.7,1157.5c0,2.6-2.3,4.7-5.2,4.7c-2.9,0-5.2-2.1-5.2-4.7c0-2.6,2.3-4.7,5.2-4.7
					C424.3,1152.8,426.7,1154.9,426.7,1157.5z"/>
				<path class="st24" d="M402.5,1114c0,2.7-2.5,5-5.5,5s-5.5-2.2-5.5-5s2.5-5,5.5-5S402.5,1111.2,402.5,1114z"/>
				<ellipse class="st24" cx="348.9" cy="1077.8" rx="7.2" ry="6.5"/>
				<ellipse class="st24" cx="618.6" cy="675.7" rx="5.4" ry="4.9"/>
				<path class="st24" d="M606.2,637.9c0,4-3.6,7.2-8,7.2s-8-3.2-8-7.2c0-4,3.6-7.2,8-7.2C602.6,630.8,606.2,634,606.2,637.9z"/>
				<path class="st24" d="M443.1,790c0,11.4-10.3,20.7-23.1,20.7s-23.1-9.3-23.1-20.7s10.3-20.7,23.1-20.7
					C432.8,769.2,443.1,778.5,443.1,790z"/>
				<path class="st24" d="M765.4,952.4c0,6.3-5.7,11.4-12.7,11.4s-12.7-5.1-12.7-11.4c0-6.3,5.7-11.4,12.7-11.4
					S765.4,946.1,765.4,952.4z"/>
				<path class="st24" d="M722.9,1027.4c0,6.5-5.9,11.8-13.1,11.8c-7.2,0-13.1-5.3-13.1-11.8s5.9-11.8,13.1-11.8
					C717,1015.7,722.9,1020.9,722.9,1027.4z"/>
				<path class="st24" d="M854.2,1003c0,14.3-13,26-29,26s-29-11.6-29-26c0-14.3,13-26,29-26C841.3,977,854.2,988.7,854.2,1003z"/>
			</g>
		</g>
	</g>
	<g>
		<defs>
			<rect id="SVGID_00000119085810219717837940000001458660029723049384_" width="1080" height="2340"/>
		</defs>
		<clipPath id="SVGID_00000162329671872418465390000008035583485704928677_">
			<use xlink:href="#SVGID_00000119085810219717837940000001458660029723049384_"  style="overflow:visible;"/>
		</clipPath>
	</g>
	<g>
		<defs>
			<rect id="SVGID_00000103984614287686144280000003719538601106125468_" width="1080" height="2340"/>
		</defs>
		<clipPath id="SVGID_00000049185816691441879700000002245819796258491010_">
			<use xlink:href="#SVGID_00000103984614287686144280000003719538601106125468_"  style="overflow:visible;"/>
		</clipPath>
	</g>
	<g>
		<defs>
			<rect id="SVGID_00000057832487874213232210000018279561893997476489_" width="1080" height="2340"/>
		</defs>
		<clipPath id="SVGID_00000144338809064829946690000002799796589604307644_">
			<use xlink:href="#SVGID_00000057832487874213232210000018279561893997476489_"  style="overflow:visible;"/>
		</clipPath>
	</g>
	<g>
		<defs>
			<rect id="SVGID_00000026160851179939004610000000517380471963150515_" width="1080" height="2340"/>
		</defs>
		<clipPath id="SVGID_00000084506034168609196220000001944379304421651894_">
			<use xlink:href="#SVGID_00000026160851179939004610000000517380471963150515_"  style="overflow:visible;"/>
		</clipPath>
	</g>
	<g>
		<defs>
			<rect id="SVGID_00000062160376076472935290000011174604211347739327_" width="1080" height="2340"/>
		</defs>
		<clipPath id="SVGID_00000002344532134495307700000001851113235095868801_">
			<use xlink:href="#SVGID_00000062160376076472935290000011174604211347739327_"  style="overflow:visible;"/>
		</clipPath>
	</g>
	<g>
		<defs>
			<rect id="SVGID_00000115507589451110946840000009797558446148032677_" width="1080" height="2340"/>
		</defs>
		<clipPath id="SVGID_00000013182924930184800040000001884951329647752347_">
			<use xlink:href="#SVGID_00000115507589451110946840000009797558446148032677_"  style="overflow:visible;"/>
		</clipPath>
	</g>
</g>
</svg>
