<?xml version="1.0" encoding="utf-8"?>
<!-- Generator: Adobe Illustrator 27.2.0, SVG Export Plug-In . SVG Version: 6.00 Build 0)  -->
<svg version="1.1" id="Capa_1" xmlns="http://www.w3.org/2000/svg" xmlns:xlink="http://www.w3.org/1999/xlink" x="0px" y="0px"
	 viewBox="0 0 1080 2340" style="enable-background:new 0 0 1080 2340;" xml:space="preserve">
<style type="text/css">
	
		.st0{clip-path:url(#SVGID_00000046340548687292726360000012455569209770124696_);fill:url(#SVGID_00000089542237344808081730000004529895221675388822_);}
	
		.st1{clip-path:url(#SVGID_00000100346273970156227630000014899714959524182177_);fill:url(#SVGID_00000098211050261559331930000000351361362443482017_);}
	
		.st2{clip-path:url(#SVGID_00000109722815005968015660000010294030845059043206_);fill:url(#SVGID_00000109721737196354453840000008303571247747130532_);}
	
		.st3{clip-path:url(#SVGID_00000173839980492076535160000006635949148996603034_);fill:url(#SVGID_00000082358761534799147790000013498090266308642972_);}
	
		.st4{opacity:0.5;clip-path:url(#SVGID_00000160913244464930849750000006109675362427007403_);fill:#FFFFFF;enable-background:new    ;}
	.st5{clip-path:url(#SVGID_00000182502984434852918660000017123717950046304690_);}
	
		.st6{clip-path:url(#SVGID_00000003804363324386074980000005535327182059561887_);fill:url(#SVGID_00000053506627629352890820000012785247918829268885_);}
	
		.st7{clip-path:url(#SVGID_00000054227850453530427330000013476865997774696375_);fill:url(#SVGID_00000104706115482634391000000006510787559563565184_);}
	
		.st8{clip-path:url(#SVGID_00000101802259199441431670000011337478816745639582_);fill:url(#SVGID_00000096768691141263512900000000076986471351343515_);}
	.st9{fill:url(#SVGID_00000092458426943983220840000016034304147221522363_);}
	.st10{fill:url(#SVGID_00000142144100115941523090000009490765711099264913_);}
	.st11{fill:url(#SVGID_00000101819682714674748780000006189990851690047650_);}
	.st12{fill:url(#SVGID_00000127756764853668754790000018056908647374362507_);}
	.st13{fill:#FFFFFF;}
	
		.st14{clip-path:url(#SVGID_00000103969188991088282080000005585814214753136548_);fill:url(#SVGID_00000180368589594816485380000016294574860580443297_);}
	
		.st15{clip-path:url(#SVGID_00000120554262230180104310000013476383444408483975_);fill:url(#SVGID_00000069380854473363208090000001136191152089022355_);}
	
		.st16{clip-path:url(#SVGID_00000007405152544175402380000006648334688565473952_);fill:url(#SVGID_00000023248396660627487980000015590814508466063003_);}
	.st17{fill:url(#SVGID_00000048484951504869792140000014800903941109384628_);}
</style>
<g>
	<g>
		<defs>
			<rect id="SVGID_1_" width="1080" height="2340"/>
		</defs>
		<clipPath id="SVGID_00000140729698966303690410000016925438509540457874_">
			<use xlink:href="#SVGID_1_"  style="overflow:visible;"/>
		</clipPath>
		
			<linearGradient id="SVGID_00000133527001044399262980000007657006820476052663_" gradientUnits="userSpaceOnUse" x1="540" y1="2340" x2="540" y2="0" gradientTransform="matrix(1 0 0 -1 0 2340)">
			<stop  offset="0" style="stop-color:#D9F7FF"/>
			<stop  offset="1" style="stop-color:#53D4CC"/>
		</linearGradient>
		
			<rect style="clip-path:url(#SVGID_00000140729698966303690410000016925438509540457874_);fill:url(#SVGID_00000133527001044399262980000007657006820476052663_);" width="1080" height="2340"/>
	</g>
	<g>
		<defs>
			<rect id="SVGID_00000067206764792622831810000005770961158298364563_" width="1080" height="2340"/>
		</defs>
		<clipPath id="SVGID_00000016774604035377920590000010089255851883666622_">
			<use xlink:href="#SVGID_00000067206764792622831810000005770961158298364563_"  style="overflow:visible;"/>
		</clipPath>
		
			<linearGradient id="SVGID_00000175317227466319140920000004500810321792059313_" gradientUnits="userSpaceOnUse" x1="745.165" y1="1091.65" x2="745.165" y2="248.79" gradientTransform="matrix(1 0 0 -1 0 2340)">
			<stop  offset="0" style="stop-color:#FFFFFF"/>
			<stop  offset="0.9944" style="stop-color:#FFFFFF;stop-opacity:0"/>
		</linearGradient>
		
			<path style="clip-path:url(#SVGID_00000016774604035377920590000010089255851883666622_);fill:url(#SVGID_00000175317227466319140920000004500810321792059313_);" d="
			M1094.6,1471c-17.8,0-35.1,1.6-52,4.4c-13.7-127.4-133.3-227-278.9-227c-148.8,0-270.4,104-279.6,235.4
			c-27.8-8.3-57.5-12.8-88.3-12.8c-154.8,0-280.2,112.6-280.2,251.4s125.5,251.4,280.2,251.4c41.6,0,81.1-8.2,116.6-22.8
			c45.7,83.1,141.1,140.2,251.4,140.2c105.5,0,197.3-52.3,245.1-129.5c27,7.8,55.8,12,85.8,12c154.8,0,280.2-112.6,280.2-251.4
			S1249.3,1471,1094.6,1471z"/>
	</g>
	<g>
		<defs>
			<rect id="SVGID_00000068655890090003027490000010968703204311878326_" width="1080" height="2340"/>
		</defs>
		<clipPath id="SVGID_00000108999917355861675460000000861293554086680962_">
			<use xlink:href="#SVGID_00000068655890090003027490000010968703204311878326_"  style="overflow:visible;"/>
		</clipPath>
		
			<linearGradient id="SVGID_00000016794006462521741500000016798428085180579983_" gradientUnits="userSpaceOnUse" x1="271.155" y1="2021.58" x2="271.155" y2="1478.7999" gradientTransform="matrix(1 0 0 -1 0 2340)">
			<stop  offset="0" style="stop-color:#FFFFFF"/>
			<stop  offset="0.9944" style="stop-color:#FFFFFF;stop-opacity:0"/>
		</linearGradient>
		
			<path style="clip-path:url(#SVGID_00000108999917355861675460000000861293554086680962_);fill:url(#SVGID_00000016794006462521741500000016798428085180579983_);" d="
			M496.1,461.8c-11.4,0-22.6,1-33.5,2.8c-8.8-82-85.9-146.2-179.6-146.2c-95.8,0-174.1,67-180.1,151.6c-17.9-5.3-37-8.2-56.9-8.2
			c-99.7,0-180.5,72.5-180.5,161.9s80.8,161.9,180.5,161.9c26.8,0,52.2-5.3,75.1-14.7c29.5,53.5,90.9,90.3,161.9,90.3
			c67.9,0,127-33.7,157.8-83.4c17.4,5,36,7.8,55.2,7.8c99.7,0,180.5-72.5,180.5-161.9S595.8,461.8,496.1,461.8z"/>
	</g>
	<g>
		<defs>
			<rect id="SVGID_00000109003092559789640860000001214803632681061514_" width="1080" height="2340"/>
		</defs>
		<clipPath id="SVGID_00000066480214114092952790000005369060039525302437_">
			<use xlink:href="#SVGID_00000109003092559789640860000001214803632681061514_"  style="overflow:visible;"/>
		</clipPath>
		
			<linearGradient id="SVGID_00000066503800585726404680000001913308527590064786_" gradientUnits="userSpaceOnUse" x1="501.8809" y1="599.8256" x2="683.0159" y2="-150.5926" gradientTransform="matrix(1 0 0 -1 0 2340)">
			<stop  offset="0" style="stop-color:#85BF6C"/>
			<stop  offset="1" style="stop-color:#33A869"/>
		</linearGradient>
		
			<path style="clip-path:url(#SVGID_00000066480214114092952790000005369060039525302437_);fill:url(#SVGID_00000066503800585726404680000001913308527590064786_);" d="
			M-732.5,1988.9c0,0,1279.2-623.6,2690.2,0v419.7H-732.5V1988.9z"/>
	</g>
	<g>
		<defs>
			<rect id="SVGID_00000083785793487151881370000007646338311692436911_" width="1080" height="2340"/>
		</defs>
		<clipPath id="SVGID_00000099630848756069720780000017275719792236421012_">
			<use xlink:href="#SVGID_00000083785793487151881370000007646338311692436911_"  style="overflow:visible;"/>
		</clipPath>
		
			<path style="opacity:0.5;clip-path:url(#SVGID_00000099630848756069720780000017275719792236421012_);fill:#FFFFFF;enable-background:new    ;" d="
			M745.5,1907.5c127-35.8,245.8-92,353.9-163.3c-612.4-86-1142.9,16.2-1473.2,113.6c77.6,48.6,171.3,79.4,265.1,95.6
			C184.5,2004.7,465,1987.5,745.5,1907.5z"/>
	</g>
	<g>
		<defs>
			<rect id="SVGID_00000139974165398315333520000017008915944874547357_" width="1080" height="2340"/>
		</defs>
		<clipPath id="SVGID_00000032616832296394402150000013036775320463489168_">
			<use xlink:href="#SVGID_00000139974165398315333520000017008915944874547357_"  style="overflow:visible;"/>
		</clipPath>
		<g style="clip-path:url(#SVGID_00000032616832296394402150000013036775320463489168_);">
			<g>
				<g>
					<defs>
						<path id="SVGID_00000096747006722556673840000009836036544741247904_" d="M1100.2,2030.1c-32.9-13.4-60.6-15.1-83.3-11.2
							c-37.9,6.5-75-14.9-82.1-48.9c-14.4-68.4-53.4-149.8-157-149.8s-142.6,81.3-157,149.8c-7.2,34-44.2,55.4-82.1,48.9
							c-22.6-3.9-50.4-2.2-83.3,11.2c-104.5,42.5-73.1,184.9-73.1,184.9h395.6h395.6C1173.3,2215,1204.7,2072.5,1100.2,2030.1z"/>
					</defs>
					<clipPath id="SVGID_00000142877990221661776350000005478010666629788841_">
						<use xlink:href="#SVGID_00000096747006722556673840000009836036544741247904_"  style="overflow:visible;"/>
					</clipPath>
					
						<linearGradient id="SVGID_00000044898208974801983410000017238918242332794288_" gradientUnits="userSpaceOnUse" x1="777.7453" y1="446.1527" x2="777.7453" y2="185.3848" gradientTransform="matrix(1 0 0 -1 0 2340)">
						<stop  offset="0" style="stop-color:#1C9B7C"/>
						<stop  offset="1" style="stop-color:#06655D"/>
					</linearGradient>
					
						<path style="clip-path:url(#SVGID_00000142877990221661776350000005478010666629788841_);fill:url(#SVGID_00000044898208974801983410000017238918242332794288_);" d="
						M1100.2,2030.1c-32.9-13.4-60.6-15.1-83.3-11.2c-37.9,6.5-75-14.9-82.1-48.9c-14.4-68.4-53.4-149.8-157-149.8
						s-142.6,81.3-157,149.8c-7.2,34-44.2,55.4-82.1,48.9c-22.6-3.9-50.4-2.2-83.3,11.2c-104.5,42.5-73.1,184.9-73.1,184.9h395.6
						h395.6C1173.3,2215,1204.7,2072.5,1100.2,2030.1z"/>
				</g>
				<g>
					<defs>
						<path id="SVGID_00000026158903314855374250000015174725672512042683_" d="M1100.2,2030.1c-32.9-13.4-60.6-15.1-83.3-11.2
							c-37.9,6.5-75-14.9-82.1-48.9c-14.4-68.4-53.4-149.8-157-149.8s-142.6,81.3-157,149.8c-7.2,34-44.2,55.4-82.1,48.9
							c-22.6-3.9-50.4-2.2-83.3,11.2c-104.5,42.5-73.1,184.9-73.1,184.9h395.6h395.6C1173.3,2215,1204.7,2072.5,1100.2,2030.1z"/>
					</defs>
					<clipPath id="SVGID_00000155856014118883483730000018377566471126486189_">
						<use xlink:href="#SVGID_00000026158903314855374250000015174725672512042683_"  style="overflow:visible;"/>
					</clipPath>
					
						<linearGradient id="SVGID_00000075842377213462462620000007143970217253669508_" gradientUnits="userSpaceOnUse" x1="774.5216" y1="365.2323" x2="784.5176" y2="5.3673" gradientTransform="matrix(1 0 0 -1 0 2340)">
						<stop  offset="0" style="stop-color:#E6EB97"/>
						<stop  offset="0.9944" style="stop-color:#6FBC42"/>
					</linearGradient>
					
						<path style="clip-path:url(#SVGID_00000155856014118883483730000018377566471126486189_);fill:url(#SVGID_00000075842377213462462620000007143970217253669508_);" d="
						M778.1,1886.3l1.6,92.6l1.2,92.6c0.4,30.9,1.3,61.7,0.8,92.6c-0.7,30.9-1.3,61.7-3.5,92.6h-0.8c-2.2-30.9-2.8-61.7-3.5-92.6
						c-0.5-30.9,0.4-61.7,0.8-92.6l1.2-92.6l1.6-92.6L778.1,1886.3L778.1,1886.3z"/>
				</g>
				<g>
					<defs>
						<path id="SVGID_00000114050892289030881050000016979207050462529412_" d="M1100.2,2030.1c-32.9-13.4-60.6-15.1-83.3-11.2
							c-37.9,6.5-75-14.9-82.1-48.9c-14.4-68.4-53.4-149.8-157-149.8s-142.6,81.3-157,149.8c-7.2,34-44.2,55.4-82.1,48.9
							c-22.6-3.9-50.4-2.2-83.3,11.2c-104.5,42.5-73.1,184.9-73.1,184.9h395.6h395.6C1173.3,2215,1204.7,2072.5,1100.2,2030.1z"/>
					</defs>
					<clipPath id="SVGID_00000109724821849202998840000005555444994123573663_">
						<use xlink:href="#SVGID_00000114050892289030881050000016979207050462529412_"  style="overflow:visible;"/>
					</clipPath>
					
						<linearGradient id="SVGID_00000163784740839084163920000010164243539978265757_" gradientUnits="userSpaceOnUse" x1="762.7097" y1="366.0939" x2="772.7498" y2="4.6413" gradientTransform="matrix(1 0 0 -1 0 2340)">
						<stop  offset="0" style="stop-color:#E6EB97"/>
						<stop  offset="0.9944" style="stop-color:#6FBC42"/>
					</linearGradient>
					
						<path style="clip-path:url(#SVGID_00000109724821849202998840000005555444994123573663_);fill:url(#SVGID_00000163784740839084163920000010164243539978265757_);" d="
						M500.4,2071.7c5,15.8,12.4,30,20.6,43c4,6.7,8.6,12.6,13.2,18.6c2.2,3.1,4.7,5.7,7.2,8.5l7.3,8.2c20.1,21,43.1,36.3,66.9,47.8
						l9,4.3c3,1.5,6,2.9,9,3.9l18.4,6.5c6.1,2.5,12.4,3.5,18.6,5.1l18.7,4.5c12.6,1.6,25.2,3.6,37.8,4.8l38,1.2
						c50.7-0.5,101.4-10.5,148.8-33.4c23.7-11.4,46.4-26.7,66.6-47c10-10.4,19.7-21.3,28-34.1c8.6-12.5,16.2-26.4,21.9-41.7l0.7,0.4
						c-4.6,16.3-11.9,30.9-19.9,44.5c-8,13.7-17.6,25.5-27.4,36.8c-20,22.1-43.3,38.4-67.2,51.1c-24,13.1-49.4,19.9-74.7,25.6
						c-12.8,2.1-25.5,3.5-38.3,5.1l-38.4,1.2c-12.8-0.5-25.6-1.4-38.4-2.1c-12.8-1.5-25.5-3.8-38.2-5.6l-18.9-4.9
						c-6.3-1.8-12.6-2.9-18.8-5.6l-18.5-7c-3.1-1-6.1-2.5-9.1-4.1l-9-4.5c-23.9-12.3-47-28.5-67-50.3l-7.3-8.5
						c-2.4-2.9-4.9-5.5-7.1-8.8c-4.5-6.2-9.1-12.2-13-19.1c-8.1-13.3-15.4-27.9-20.2-44L500.4,2071.7z"/>
				</g>
			</g>
			<g>
				
					<linearGradient id="SVGID_00000129901665624280511590000000199739218156617406_" gradientUnits="userSpaceOnUse" x1="611.4302" y1="1601.848" x2="586.801" y2="801.4003" gradientTransform="matrix(1 0 0 -1 0 2340)">
					<stop  offset="0" style="stop-color:#E6EB97"/>
					<stop  offset="0.9944" style="stop-color:#6FBC42"/>
				</linearGradient>
				<path style="fill:url(#SVGID_00000129901665624280511590000000199739218156617406_);" d="M191.8,728.1
					c0,0,14.7-148.7,128.9-178.4s211.8,67.7,364.6-41.3c152.9-109,462.2-81,436.5,226.3c0,0,211.8,299-46,517.1
					c-257.8,218.1-209.9,259.4-548.8,259.4S-51.3,1276.6,9.5,1035.4S191.8,728.1,191.8,728.1z"/>
				
					<linearGradient id="SVGID_00000116948878981364005610000016830824448319755965_" gradientUnits="userSpaceOnUse" x1="261.1485" y1="1295.665" x2="247.9492" y2="866.6879" gradientTransform="matrix(1 0 0 -1 0 2340)">
					<stop  offset="0" style="stop-color:#E6EB97"/>
					<stop  offset="0.9944" style="stop-color:#6FBC42"/>
				</linearGradient>
				<path style="fill:url(#SVGID_00000116948878981364005610000016830824448319755965_);" d="M511.6,1224.4
					c41.3-203.9-217-250.3-382.3-310.5c-22.9-8.2-44.1-19.9-62.7-34.2C45.6,920.8,25.4,972,9.4,1035.4
					c-43.7,173.3,67.7,343.2,259.5,425.1c38-15.3,74.6-34.1,108.4-55.3C444.5,1358.8,496.1,1298.5,511.6,1224.4z"/>
				
					<linearGradient id="SVGID_00000140694912004330680760000009275503227932488096_" gradientUnits="userSpaceOnUse" x1="446.871" y1="1350.9716" x2="1788.8154" y2="1391.5249" gradientTransform="matrix(1 0 0 -1 0 2340)">
					<stop  offset="0" style="stop-color:#E6EB97"/>
					<stop  offset="0.9944" style="stop-color:#6FBC42"/>
				</linearGradient>
				<path style="fill:url(#SVGID_00000140694912004330680760000009275503227932488096_);" d="M1121.8,734.7
					c25.8-307.3-283.6-335.4-436.5-226.3c-152.8,109-250.5,11.6-364.6,41.3c-88.6,23.1-117.3,117.7-125.7,159
					c15.9,30.5,44.2,54.4,89.4,66.1c217,51,485.7-41.7,635.5,139c51.7,60.3,10.3,148.3-46.5,194.7
					C764.8,1201.2,615,1242.9,542.7,1368c-25.8,44-33.6,95-25.2,143c3.2,0,6.3,0.1,9.5,0.1c338.9,0,291-41.3,548.8-259.4
					C1333.6,1033.7,1121.8,734.7,1121.8,734.7z"/>
				
					<linearGradient id="SVGID_00000121997995411461234000000007992636983831945350_" gradientUnits="userSpaceOnUse" x1="603.934" y1="1342.5365" x2="560.9649" y2="463.3083" gradientTransform="matrix(1 0 0 -1 0 2340)">
					<stop  offset="0" style="stop-color:#9B3D41"/>
					<stop  offset="1" style="stop-color:#AF5946"/>
				</linearGradient>
				<path style="fill:url(#SVGID_00000121997995411461234000000007992636983831945350_);" d="M479.7,792c0,0-18.4,166.3,103,299.3
					c0,0,113-39.3,222.4-232.1c0,0,2.5,127.8-196.4,262.1c0,0-92.7,408.1-15.3,680.7s66.3,413,66.3,413H377.8
					c0,0,93.9-342,112.3-545.2c18.4-203.2,7.4-279.2,7.4-279.2s-90.2-75.2-95.8-232.9c0,0,18.4,128.9,117.9,190l42.4-224.7
					C561.9,1122.9,417.7,969.8,479.7,792z"/>
				<g>
					<path class="st13" d="M266,1175.8c0,8.8,8,16,17.8,16s17.8-7.2,17.8-16s-8-16-17.8-16S266,1167,266,1175.8z"/>
					<path class="st13" d="M209.6,1062.4c0,7.6,6.9,13.8,15.4,13.8s15.4-6.2,15.4-13.8s-6.9-13.8-15.4-13.8
						S209.6,1054.8,209.6,1062.4z"/>
					<ellipse class="st13" cx="174.1" cy="1130.9" rx="4.6" ry="4.1"/>
					<path class="st13" d="M240.3,1134.8c0,4.4,4,8,8.9,8c4.9,0,8.9-3.6,8.9-8s-4-8-8.9-8C244.2,1126.8,240.3,1130.4,240.3,1134.8z"
						/>
					<ellipse class="st13" cx="209.9" cy="1248.2" rx="15" ry="13.4"/>
					<ellipse class="st13" cx="821.9" cy="690.4" rx="16.9" ry="15.1"/>
					<path class="st13" d="M695.1,732.5c0,5.8,5.2,10.5,11.7,10.5s11.7-4.7,11.7-10.5s-5.2-10.5-11.7-10.5S695.1,726.7,695.1,732.5z
						"/>
					<ellipse class="st13" cx="832.3" cy="766.9" rx="20.6" ry="18.5"/>
					<path class="st13" d="M750.4,751.8c0,4.9,4.4,8.8,9.8,8.8s9.8-3.9,9.8-8.8s-4.4-8.8-9.8-8.8C754.8,743,750.4,746.9,750.4,751.8
						z"/>
					<ellipse class="st13" cx="683.5" cy="850.3" rx="5.5" ry="5"/>
				</g>
			</g>
			<g>
				<g>
					<defs>
						<path id="SVGID_00000010293994097893340310000016167246693553321603_" d="M451.4,2004c-37.5-15.2-69.2-17.2-95-12.8
							c-43.3,7.4-85.5-17-93.7-55.8c-16.4-78.1-60.9-170.9-179.2-170.9s-162.7,92.8-179.2,170.9c-8.2,38.8-50.4,63.2-93.7,55.8
							c-25.8-4.4-57.5-2.5-95,12.8c-119.2,48.5-83.4,211-83.4,211H83.5h451.3C534.8,2215,570.6,2052.5,451.4,2004z"/>
					</defs>
					<clipPath id="SVGID_00000123421460545459901800000001130619014515901062_">
						<use xlink:href="#SVGID_00000010293994097893340310000016167246693553321603_"  style="overflow:visible;"/>
					</clipPath>
					
						<linearGradient id="SVGID_00000111874117272800490410000003884729220956696980_" gradientUnits="userSpaceOnUse" x1="83.5288" y1="491.3884" x2="83.5288" y2="193.8875" gradientTransform="matrix(1 0 0 -1 0 2340)">
						<stop  offset="0" style="stop-color:#1C9B7C"/>
						<stop  offset="1" style="stop-color:#06655D"/>
					</linearGradient>
					
						<path style="clip-path:url(#SVGID_00000123421460545459901800000001130619014515901062_);fill:url(#SVGID_00000111874117272800490410000003884729220956696980_);" d="
						M451.4,2004c-37.5-15.2-69.2-17.2-95-12.8c-43.3,7.4-85.5-17-93.7-55.8c-16.4-78.1-60.9-170.9-179.2-170.9
						s-162.7,92.8-179.2,170.9c-8.2,38.8-50.4,63.2-93.7,55.8c-25.8-4.4-57.5-2.5-95,12.8c-119.2,48.5-83.4,211-83.4,211H83.5h451.3
						C534.8,2215,570.6,2052.5,451.4,2004z"/>
				</g>
				<g>
					<defs>
						<path id="SVGID_00000039130827906995746620000013368122131805313410_" d="M451.4,2004c-37.5-15.2-69.2-17.2-95-12.8
							c-43.3,7.4-85.5-17-93.7-55.8c-16.4-78.1-60.9-170.9-179.2-170.9s-162.7,92.8-179.2,170.9c-8.2,38.8-50.4,63.2-93.7,55.8
							c-25.8-4.4-57.5-2.5-95,12.8c-119.2,48.5-83.4,211-83.4,211H83.5h451.3C534.8,2215,570.6,2052.5,451.4,2004z"/>
					</defs>
					<clipPath id="SVGID_00000008115045997697914990000010437872490602601387_">
						<use xlink:href="#SVGID_00000039130827906995746620000013368122131805313410_"  style="overflow:visible;"/>
					</clipPath>
					
						<linearGradient id="SVGID_00000142158848979643769690000011980869920977712315_" gradientUnits="userSpaceOnUse" x1="79.8564" y1="399.0689" x2="91.2605" y2="-11.4882" gradientTransform="matrix(1 0 0 -1 0 2340)">
						<stop  offset="0" style="stop-color:#E6EB97"/>
						<stop  offset="0.9944" style="stop-color:#6FBC42"/>
					</linearGradient>
					
						<path style="clip-path:url(#SVGID_00000008115045997697914990000010437872490602601387_);fill:url(#SVGID_00000142158848979643769690000011980869920977712315_);" d="
						M84,1840.1l1.8,105.6l1.3,105.6c0.5,35.2,1.5,70.4,0.9,105.6c-0.8,35.2-1.5,70.4-4,105.6h-0.9c-2.6-35.2-3.2-70.4-4-105.6
						c-0.6-35.2,0.4-70.4,0.9-105.6l1.3-105.6l1.8-105.6H84z"/>
				</g>
				<g>
					<defs>
						<path id="SVGID_00000141451657804243844690000016494137627067582903_" d="M451.4,2004c-37.5-15.2-69.2-17.2-95-12.8
							c-43.3,7.4-85.5-17-93.7-55.8c-16.4-78.1-60.9-170.9-179.2-170.9s-162.7,92.8-179.2,170.9c-8.2,38.8-50.4,63.2-93.7,55.8
							c-25.8-4.4-57.5-2.5-95,12.8c-119.2,48.5-83.4,211-83.4,211H83.5h451.3C534.8,2215,570.6,2052.5,451.4,2004z"/>
					</defs>
					<clipPath id="SVGID_00000168799729501779813900000014715695525697125294_">
						<use xlink:href="#SVGID_00000141451657804243844690000016494137627067582903_"  style="overflow:visible;"/>
					</clipPath>
					
						<linearGradient id="SVGID_00000137852510390949835850000007109885640566470813_" gradientUnits="userSpaceOnUse" x1="66.3502" y1="400.0509" x2="77.8045" y2="-12.3168" gradientTransform="matrix(1 0 0 -1 0 2340)">
						<stop  offset="0" style="stop-color:#E6EB97"/>
						<stop  offset="0.9944" style="stop-color:#6FBC42"/>
					</linearGradient>
					
						<path style="clip-path:url(#SVGID_00000168799729501779813900000014715695525697125294_);fill:url(#SVGID_00000137852510390949835850000007109885640566470813_);" d="
						M-232.8,2051.5c5.7,18,14.1,34.3,23.6,49.1c4.5,7.6,9.9,14.3,15,21.2c2.5,3.6,5.4,6.5,8.2,9.7l8.4,9.4
						c22.9,23.9,49.2,41.4,76.3,54.6l10.2,4.9c3.4,1.7,6.8,3.3,10.3,4.4l21,7.4c6.9,2.8,14.1,4,21.2,5.8l21.3,5.1
						c14.4,1.8,28.8,4.1,43.2,5.4l43.3,1.4c57.8-0.6,115.7-11.9,169.7-38.1c27-13,53-30.4,76-53.6c11.4-11.8,22.5-24.3,32-39
						c9.8-14.2,18.5-30.1,25-47.6l0.8,0.4c-5.3,18.6-13.6,35.2-22.7,50.7c-9.1,15.6-20,29.1-31.3,42c-22.9,25.2-49.4,43.8-76.7,58.3
						c-27.4,14.9-56.4,22.7-85.3,29.2c-14.5,2.4-29.2,4-43.7,5.9l-43.8,1.4c-14.6-0.6-29.2-1.6-43.8-2.3
						c-14.6-1.7-29.1-4.3-43.6-6.4l-21.5-5.6c-7.2-2-14.4-3.3-21.4-6.3l-21.1-7.9c-3.6-1.2-7-2.9-10.4-4.7l-10.3-5.2
						c-27.3-14.1-53.6-32.5-76.4-57.4l-8.3-9.7c-2.7-3.3-5.6-6.3-8.1-10c-5.1-7.1-10.4-14-14.8-21.8c-9.3-15.2-17.5-31.8-23-50.2
						L-232.8,2051.5z"/>
				</g>
			</g>
			
				<linearGradient id="SVGID_00000131329256287174268040000007521020232065282218_" gradientUnits="userSpaceOnUse" x1="639.15" y1="599.397" x2="639.15" y2="40.8042" gradientTransform="matrix(1 0 0 -1 0 2340)">
				<stop  offset="0" style="stop-color:#85BF6C"/>
				<stop  offset="1" style="stop-color:#33A869"/>
			</linearGradient>
			<path style="fill:url(#SVGID_00000131329256287174268040000007521020232065282218_);" d="M-212.9,2255.4
				c0,25.2,381.5,45.7,852.1,45.7s852-20.5,852-45.7s-381.5-73.5-852-73.5S-212.9,2230.2-212.9,2255.4z"/>
		</g>
	</g>
	<g>
		<defs>
			<rect id="SVGID_00000036950330962296523010000012105774279519784110_" width="1080" height="2340"/>
		</defs>
		<clipPath id="SVGID_00000127758900273003964510000014841290568743405975_">
			<use xlink:href="#SVGID_00000036950330962296523010000012105774279519784110_"  style="overflow:visible;"/>
		</clipPath>
	</g>
	<g>
		<defs>
			<rect id="SVGID_00000067224726762665524910000009161771392863720590_" width="1080" height="2340"/>
		</defs>
		<clipPath id="SVGID_00000168085217332051958350000002821584435767044001_">
			<use xlink:href="#SVGID_00000067224726762665524910000009161771392863720590_"  style="overflow:visible;"/>
		</clipPath>
	</g>
	<g>
		<defs>
			<rect id="SVGID_00000111870308006332761710000006260538458124429995_" width="1080" height="2340"/>
		</defs>
		<clipPath id="SVGID_00000054237668156458850460000002015015139680069282_">
			<use xlink:href="#SVGID_00000111870308006332761710000006260538458124429995_"  style="overflow:visible;"/>
		</clipPath>
	</g>
	<g>
		<defs>
			<rect id="SVGID_00000090982296120600668360000003159809423962530715_" width="1080" height="2340"/>
		</defs>
		<clipPath id="SVGID_00000152959194813209353200000006175976339070426501_">
			<use xlink:href="#SVGID_00000090982296120600668360000003159809423962530715_"  style="overflow:visible;"/>
		</clipPath>
	</g>
	<g>
		<defs>
			<rect id="SVGID_00000078751159874110791880000016858774925107038388_" width="1080" height="2340"/>
		</defs>
		<clipPath id="SVGID_00000021080249960193390450000001773872239124148615_">
			<use xlink:href="#SVGID_00000078751159874110791880000016858774925107038388_"  style="overflow:visible;"/>
		</clipPath>
	</g>
	<g>
		<defs>
			<rect id="SVGID_00000142153007139518704570000000686901599243475872_" width="1080" height="2340"/>
		</defs>
		<clipPath id="SVGID_00000065076831467153723620000002560052238774632338_">
			<use xlink:href="#SVGID_00000142153007139518704570000000686901599243475872_"  style="overflow:visible;"/>
		</clipPath>
	</g>
	<g>
		<defs>
			<rect id="SVGID_00000182523243546547392520000015659415415605745823_" width="1080" height="2340"/>
		</defs>
		<clipPath id="SVGID_00000045594980041884228070000007404717160992216967_">
			<use xlink:href="#SVGID_00000182523243546547392520000015659415415605745823_"  style="overflow:visible;"/>
		</clipPath>
	</g>
</g>
</svg>
