<?xml version="1.0" encoding="utf-8"?>
<!-- Generator: Adobe Illustrator 27.2.0, SVG Export Plug-In . SVG Version: 6.00 Build 0)  -->
<svg version="1.1" id="Capa_1" xmlns="http://www.w3.org/2000/svg" xmlns:xlink="http://www.w3.org/1999/xlink" x="0px" y="0px"
	 viewBox="0 0 1080 2340" enable-background="new 0 0 1080 2340" xml:space="preserve">
<g>
	<g>
		<defs>
			<rect id="SVGID_1_" width="1080" height="2340"/>
		</defs>
		
			<linearGradient id="SVGID_00000177476233387208898360000014415508499389434774_" gradientUnits="userSpaceOnUse" x1="540" y1="2340" x2="540" y2="-9.094947e-13">
			<stop  offset="0" style="stop-color:#93E3FD"/>
			<stop  offset="0.2271" style="stop-color:#8EE2F9"/>
			<stop  offset="0.5084" style="stop-color:#7EDEED"/>
			<stop  offset="0.8171" style="stop-color:#65D8DA"/>
			<stop  offset="1" style="stop-color:#53D4CC"/>
		</linearGradient>
		<use xlink:href="#SVGID_1_"  overflow="visible" fill="url(#SVGID_00000177476233387208898360000014415508499389434774_)"/>
		<clipPath id="SVGID_00000175307424668126495020000008226994638323899041_">
			<use xlink:href="#SVGID_1_"  overflow="visible"/>
		</clipPath>
		
			<linearGradient id="SVGID_00000179609140601223420120000003101397365087387795_" gradientUnits="userSpaceOnUse" x1="540" y1="2340" x2="540" y2="-9.094947e-13">
			<stop  offset="0" style="stop-color:#FAF6CA"/>
			<stop  offset="0.2176" style="stop-color:#FAF4C7"/>
			<stop  offset="0.3912" style="stop-color:#FAEDBD"/>
			<stop  offset="0.5494" style="stop-color:#FBE2AC"/>
			<stop  offset="0.6987" style="stop-color:#FBD394"/>
			<stop  offset="0.8415" style="stop-color:#FCBF76"/>
			<stop  offset="0.9778" style="stop-color:#FDA651"/>
			<stop  offset="1" style="stop-color:#FDA24A"/>
		</linearGradient>
		
			<rect clip-path="url(#SVGID_00000175307424668126495020000008226994638323899041_)" fill="url(#SVGID_00000179609140601223420120000003101397365087387795_)" width="1080" height="2340"/>
		
			<linearGradient id="SVGID_00000003074156698443764150000000095193916543995835_" gradientUnits="userSpaceOnUse" x1="163.0519" y1="194.6459" x2="163.0519" y2="1062.0441">
			<stop  offset="0" style="stop-color:#FFFFFF"/>
			<stop  offset="0.9944" style="stop-color:#FFFFFF;stop-opacity:0"/>
		</linearGradient>
		
			<path opacity="0.84" clip-path="url(#SVGID_00000175307424668126495020000008226994638323899041_)" fill="url(#SVGID_00000003074156698443764150000000095193916543995835_)" d="
			M522.63,423.74c-18.28,0-36.14,1.59-53.48,4.51c-14.08-131.1-137.19-233.6-287.02-233.6c-153.12,0-278.3,107.06-287.76,242.28
			c-28.59-8.51-59.13-13.19-90.9-13.19c-159.28,0-288.39,115.83-288.39,258.72s129.12,258.72,288.39,258.72
			c42.82,0,83.43-8.44,119.97-23.46c47.07,85.5,145.2,144.33,258.69,144.33c108.52,0,203-53.8,252.22-133.27
			c27.83,8.02,57.48,12.39,88.27,12.39c159.28,0,288.39-115.83,288.39-258.72S681.9,423.74,522.63,423.74z"/>
		
			<linearGradient id="SVGID_00000127026794360662291780000009203382595726242476_" gradientUnits="userSpaceOnUse" x1="819.9097" y1="674.863" x2="819.9097" y2="1542.2611">
			<stop  offset="0" style="stop-color:#FFFFFF"/>
			<stop  offset="0.9944" style="stop-color:#FFFFFF;stop-opacity:0"/>
		</linearGradient>
		
			<path opacity="0.84" clip-path="url(#SVGID_00000175307424668126495020000008226994638323899041_)" fill="url(#SVGID_00000127026794360662291780000009203382595726242476_)" d="
			M1179.49,903.96c-18.28,0-36.14,1.59-53.48,4.51c-14.08-131.1-137.19-233.6-287.02-233.6c-153.12,0-278.3,107.06-287.76,242.28
			c-28.59-8.51-59.13-13.19-90.9-13.19c-159.28,0-288.39,115.83-288.39,258.72s129.12,258.72,288.39,258.72
			c42.82,0,83.43-8.44,119.97-23.46c47.07,85.5,145.2,144.33,258.69,144.33c108.52,0,203-53.8,252.22-133.27
			c27.83,8.02,57.48,12.39,88.27,12.39c159.28,0,288.39-115.83,288.39-258.72S1338.76,903.96,1179.49,903.96z"/>
		
			<linearGradient id="SVGID_00000062163409437106751610000003043962621885943705_" gradientUnits="userSpaceOnUse" x1="1235.1633" y1="1190.0145" x2="635.2602" y2="2229.0771">
			<stop  offset="0" style="stop-color:#F49E2F"/>
			<stop  offset="1" style="stop-color:#B83E16"/>
		</linearGradient>
		
			<path clip-path="url(#SVGID_00000175307424668126495020000008226994638323899041_)" fill="url(#SVGID_00000062163409437106751610000003043962621885943705_)" d="
			M-651.33,1957.92c0,0,982.14-941.34,2555.79-256.48v828.91H-627.66L-651.33,1957.92z"/>
		<path opacity="0.5" clip-path="url(#SVGID_00000175307424668126495020000008226994638323899041_)" fill="#FFFFFF" d="M205,1522.99
			c220.76,229.36,558.41,363.51,896.1,413.3c296.87,39.59,571-43.15,803.36-188.31v-46.55
			C1212.54,1400.31,635.01,1413.59,205,1522.99z"/>
		<g clip-path="url(#SVGID_00000175307424668126495020000008226994638323899041_)">
			
				<linearGradient id="SVGID_00000041278635849823511140000007607137386882349234_" gradientUnits="userSpaceOnUse" x1="713.6827" y1="1905.3988" x2="702.0715" y2="2282.7625">
				<stop  offset="0" style="stop-color:#D63D76"/>
				<stop  offset="1" style="stop-color:#571C57"/>
			</linearGradient>
			<path fill="url(#SVGID_00000041278635849823511140000007607137386882349234_)" d="M1118.04,2190.11
				c42.35-34.25,68.99-83.84,68.99-139.02c0-103.36-93.4-187.14-208.61-187.14c-25.12,0-49.2,3.99-71.51,11.29
				c-46.75-66.22-129.08-110.22-222.92-110.22c-113.55,0-210.33,64.38-247.49,154.67c-5.36-0.44-10.77-0.69-16.26-0.69
				c-98.27,0-177.93,71.46-177.93,159.62c0,42.88,18.88,81.78,49.55,110.46C227.28,2211.2,189,2231.79,189,2238.23
				c0,15.79,230.32,28.59,514.45,28.59c284.12,0,514.45-12.8,514.45-28.59C1217.89,2231.89,1180.79,2211.85,1118.04,2190.11z"/>
			
				<linearGradient id="SVGID_00000083050682960974294930000013497353183217015426_" gradientUnits="userSpaceOnUse" x1="603.8259" y1="554.1185" x2="579.5749" y2="1342.2728">
				<stop  offset="0" style="stop-color:#E74E1B"/>
				<stop  offset="0.9944" style="stop-color:#F7B033"/>
			</linearGradient>
			<path fill="url(#SVGID_00000083050682960974294930000013497353183217015426_)" d="M1022.49,1311.12H392.47
				c-137.33,0-261.21-22.39-356.02-111.52c-85.2-80.09-150.82-220.51-62.48-366.76c93.17-154.23,239.9-153.23,310.39-148.36
				c0,0-146.4-374.55,279.25-418.33c383-39.39,603.57,330.81,596.53,618.01c-1.13,45.85,14.77,91.2,46.69,127.03
				c21.46,24.09,40.16,60.51,38.55,109.29C1241.85,1227.28,1141.59,1311.12,1022.49,1311.12z"/>
			
				<linearGradient id="SVGID_00000153665952922147763750000011048442961130248846_" gradientUnits="userSpaceOnUse" x1="1123.7406" y1="348.0207" x2="669.0361" y2="966.5167">
				<stop  offset="0" style="stop-color:#E74E1B"/>
				<stop  offset="0.9944" style="stop-color:#F7B033"/>
			</linearGradient>
			<path fill="url(#SVGID_00000153665952922147763750000011048442961130248846_)" d="M1206.83,1011.2
				c-31.92-35.83-47.81-81.18-46.69-127.03c7.05-287.21-213.52-657.4-596.53-618.01c-50.54,5.2-92.93,15.1-128.55,28.45
				c61.78,4.64,122.82,18.72,181.74,45.15C725.2,385.81,839.3,488.16,805.07,605.87c-51.34,168.88-302.35,250.77-273.83,440.12
				c11.41,66.53,114.1,97.24,193.96,76.77c85.57-20.47,216.78-87,268.12,5.12c45.64,76.77-45.64,143.3-119.8,168.88
				c-14.36,5.33-28.91,10.09-43.58,14.36h192.54c119.1,0,219.36-83.84,222.89-190.64
				C1246.99,1071.71,1228.29,1035.28,1206.83,1011.2z"/>
			
				<linearGradient id="SVGID_00000005244258425460830480000013324066137118311342_" gradientUnits="userSpaceOnUse" x1="736.3616" y1="1081.5645" x2="603.0253" y2="807.3796" gradientTransform="matrix(0.9982 0.0607 -0.0607 0.9982 160.3903 -67.4576)">
				<stop  offset="0" style="stop-color:#512127"/>
				<stop  offset="0.9944" style="stop-color:#940946"/>
			</linearGradient>
			<polygon fill="url(#SVGID_00000005244258425460830480000013324066137118311342_)" points="649.99,1095.05 858.23,587.4 
				681.2,1235.65 			"/>
			
				<linearGradient id="SVGID_00000136385467713724847080000007581570255575106690_" gradientUnits="userSpaceOnUse" x1="489.0523" y1="1246.412" x2="340.7923" y2="941.539" gradientTransform="matrix(0.9982 0.0607 -0.0607 0.9982 160.3903 -67.4576)">
				<stop  offset="0" style="stop-color:#512127"/>
				<stop  offset="0.9944" style="stop-color:#940946"/>
			</linearGradient>
			<polygon fill="url(#SVGID_00000136385467713724847080000007581570255575106690_)" points="642.06,1212.09 336.21,795.29 
				635.34,1311.12 			"/>
			
				<linearGradient id="SVGID_00000175281457325001559920000013456357567224361356_" gradientUnits="userSpaceOnUse" x1="538.0342" y1="1645.191" x2="443.9897" y2="1451.8035" gradientTransform="matrix(0.9982 0.0607 -0.0607 0.9982 160.3903 -67.4576)">
				<stop  offset="0" style="stop-color:#512127"/>
				<stop  offset="0.9944" style="stop-color:#940946"/>
			</linearGradient>
			<polygon fill="url(#SVGID_00000175281457325001559920000013456357567224361356_)" points="669.89,1602.97 420.31,1357.87 
				651.92,1667.78 			"/>
			
				<linearGradient id="SVGID_00000100351142663144710930000008042951025258472357_" gradientUnits="userSpaceOnUse" x1="744.5901" y1="1883.8186" x2="295.7546" y2="960.8602" gradientTransform="matrix(0.9982 0.0607 -0.0607 0.9982 160.3903 -67.4576)">
				<stop  offset="0" style="stop-color:#512127"/>
				<stop  offset="0.9944" style="stop-color:#940946"/>
			</linearGradient>
			<path fill="url(#SVGID_00000100351142663144710930000008042951025258472357_)" d="M556.27,413.77
				c0,0,236.83,1014.39,200.37,1853.05H594.27C594.27,2266.82,676.89,1279.27,556.27,413.77z"/>
			<g>
				<g>
					<defs>
						<path id="SVGID_00000098214070597316931030000001877517563053105320_" d="M801.68,2234.8c0,0-119.98-228.02,0-434.14
							c107.77-185.15,252.14-50.47,168.77,97.89c-80.95,144.07-117.94,336.25-117.94,336.25H801.68z"/>
					</defs>
					<clipPath id="SVGID_00000124848793987710201850000013535999678477258422_">
						<use xlink:href="#SVGID_00000098214070597316931030000001877517563053105320_"  overflow="visible"/>
					</clipPath>
					
						<linearGradient id="SVGID_00000012471270954905664140000009300456687347998868_" gradientUnits="userSpaceOnUse" x1="871.8272" y1="1860.4656" x2="871.8272" y2="2465.248">
						<stop  offset="5.586590e-03" style="stop-color:#FBB814"/>
						<stop  offset="1" style="stop-color:#C1807F"/>
					</linearGradient>
					
						<path clip-path="url(#SVGID_00000124848793987710201850000013535999678477258422_)" fill="url(#SVGID_00000012471270954905664140000009300456687347998868_)" d="
						M801.68,2234.8c0,0-119.98-228.02,0-434.14c107.77-185.15,252.14-50.47,168.77,97.89
						c-80.95,144.07-117.94,336.25-117.94,336.25H801.68z"/>
					
						<linearGradient id="SVGID_00000154415173568538892990000017810342020146841217_" gradientUnits="userSpaceOnUse" x1="881.5315" y1="1910.0079" x2="799.1141" y2="2212.2056">
						<stop  offset="0" style="stop-color:#D63D76"/>
						<stop  offset="1" style="stop-color:#571C57"/>
					</linearGradient>
					
						<path clip-path="url(#SVGID_00000124848793987710201850000013535999678477258422_)" fill="url(#SVGID_00000154415173568538892990000017810342020146841217_)" d="
						M827.56,2245.84c-7.84-36.63-11.8-73.88-13.26-111.19c-1.29-37.33,0.54-74.77,5.08-111.96c1.82-18.66,5.47-37.11,8.73-55.63
						c2-9.2,4.43-18.32,6.72-27.47l3.68-13.67l4.59-13.46c3.24-8.92,6.29-17.89,9.68-26.75c3.96-8.69,7.77-17.42,11.89-26.03
						c2.06-4.3,3.97-8.66,6.16-12.9l7.1-12.52c4.93-8.26,9.66-16.58,14.74-24.71l1.02,0.46c-14.64,34.94-29.81,69.3-39.63,105.28
						l-4.31,13.3l-3.41,13.51c-2.3,9-5.03,17.92-7.17,26.95c-3.91,18.14-8.24,36.25-10.75,54.64c-5.61,36.67-8.57,73.76-8.43,110.88
						c-0.07,37.1,2.36,74.34,8.68,111.07L827.56,2245.84z"/>
				</g>
				<g>
					<defs>
						<path id="SVGID_00000044859341480838243580000018403201968511445146_" d="M894.28,2233.29c0,0-34.24-176.37,91.18-297.19
							c112.66-108.53,183.2,8.07,94.97,95.54c-85.68,84.94-151.36,210.24-151.36,210.24L894.28,2233.29z"/>
					</defs>
					<clipPath id="SVGID_00000173147379120852158160000011555401872295733657_">
						<use xlink:href="#SVGID_00000044859341480838243580000018403201968511445146_"  overflow="visible"/>
					</clipPath>
					
						<linearGradient id="SVGID_00000100365132795709422780000018375790687870249116_" gradientUnits="userSpaceOnUse" x1="1047.7261" y1="1913.2032" x2="969.8163" y2="2141.9861">
						<stop  offset="5.586590e-03" style="stop-color:#FBB814"/>
						<stop  offset="1" style="stop-color:#C1807F"/>
					</linearGradient>
					
						<path clip-path="url(#SVGID_00000173147379120852158160000011555401872295733657_)" fill="url(#SVGID_00000100365132795709422780000018375790687870249116_)" d="
						M894.28,2233.29c0,0-34.24-176.37,91.18-297.19c112.66-108.53,183.2,8.07,94.97,95.54
						c-85.68,84.94-151.36,210.24-151.36,210.24L894.28,2233.29z"/>
					
						<linearGradient id="SVGID_00000025419600537793007330000006369230772713582008_" gradientUnits="userSpaceOnUse" x1="825.4332" y1="2060.4827" x2="765.8055" y2="2279.1174" gradientTransform="matrix(0.9641 0.2654 -0.2654 0.9641 765.6822 -182.5599)">
						<stop  offset="0" style="stop-color:#D63D76"/>
						<stop  offset="1" style="stop-color:#571C57"/>
					</linearGradient>
					
						<path clip-path="url(#SVGID_00000173147379120852158160000011555401872295733657_)" fill="url(#SVGID_00000025419600537793007330000006369230772713582008_)" d="
						M909.67,2245.23c2.33-26.4,7.44-52.57,14.28-78.36c6.96-25.77,16.07-51.09,26.99-75.79c5.16-12.47,11.54-24.48,17.66-36.61
						c3.3-5.96,6.88-11.79,10.37-17.67l5.39-8.74l5.97-8.44c4.09-5.56,8.06-11.19,12.25-16.68c4.54-5.28,8.98-10.61,13.61-15.81
						c2.32-2.6,4.53-5.25,6.93-7.79l7.49-7.37c5.11-4.82,10.1-9.71,15.28-14.42l0.6,0.49c-17.36,21.44-34.96,42.4-49.24,65.37
						l-5.74,8.37l-5.17,8.67c-3.47,5.77-7.2,11.42-10.57,17.24c-6.49,11.76-13.25,23.42-18.83,35.59
						c-11.55,24.16-21.36,49.04-29.06,74.48c-7.84,25.39-14,51.28-17.39,77.5L909.67,2245.23z"/>
				</g>
				
					<linearGradient id="SVGID_00000172406664319158144350000010651966130406405260_" gradientUnits="userSpaceOnUse" x1="862.684" y1="2181.8972" x2="862.684" y2="2317.9524">
					<stop  offset="5.586590e-03" style="stop-color:#FBB814"/>
					<stop  offset="1" style="stop-color:#C1807F"/>
				</linearGradient>
				<path fill="url(#SVGID_00000172406664319158144350000010651966130406405260_)" d="M651.21,2258.51
					c0,20.82,94.68,19.46,211.47,19.46c116.79,0,211.47,1.36,211.47-19.46c0-20.82-94.68-37.7-211.47-37.7
					C745.89,2220.81,651.21,2237.69,651.21,2258.51z"/>
			</g>
			<g>
				<g>
					<defs>
						<path id="SVGID_00000100356682333136780510000004066295208748274566_" d="M602.86,2242.03c0,0,99.89-189.84,0-361.45
							c-89.73-154.15-209.92-42.02-140.51,81.5c67.4,119.94,98.19,279.95,98.19,279.95H602.86z"/>
					</defs>
					<clipPath id="SVGID_00000158731325388971933520000015099233106409384868_">
						<use xlink:href="#SVGID_00000100356682333136780510000004066295208748274566_"  overflow="visible"/>
					</clipPath>
					
						<linearGradient id="SVGID_00000120560800376062984030000006619889773058374846_" gradientUnits="userSpaceOnUse" x1="1842.1273" y1="1930.3707" x2="1842.1273" y2="2433.895" gradientTransform="matrix(-1 0 0 1 2386.5818 0)">
						<stop  offset="5.586590e-03" style="stop-color:#FBB814"/>
						<stop  offset="1" style="stop-color:#C1807F"/>
					</linearGradient>
					
						<path clip-path="url(#SVGID_00000158731325388971933520000015099233106409384868_)" fill="url(#SVGID_00000120560800376062984030000006619889773058374846_)" d="
						M602.86,2242.03c0,0,99.89-189.84,0-361.45c-89.73-154.15-209.92-42.02-140.51,81.5c67.4,119.94,98.19,279.95,98.19,279.95
						H602.86z"/>
					
						<linearGradient id="SVGID_00000137095006567922860220000001567845389215536026_" gradientUnits="userSpaceOnUse" x1="1850.207" y1="1971.6184" x2="1781.5886" y2="2223.2197" gradientTransform="matrix(-1 0 0 1 2386.5818 0)">
						<stop  offset="0" style="stop-color:#D63D76"/>
						<stop  offset="1" style="stop-color:#571C57"/>
					</linearGradient>
					
						<path clip-path="url(#SVGID_00000158731325388971933520000015099233106409384868_)" fill="url(#SVGID_00000137095006567922860220000001567845389215536026_)" d="
						M581.31,2251.22c6.53-30.5,9.82-61.51,11.04-92.58c1.07-31.08-0.45-62.25-4.23-93.21c-1.51-15.54-4.55-30.9-7.27-46.32
						c-1.66-7.66-3.69-15.25-5.6-22.87l-3.07-11.38l-3.82-11.21c-2.7-7.43-5.23-14.9-8.06-22.27c-3.3-7.23-6.47-14.5-9.9-21.67
						c-1.72-3.58-3.3-7.21-5.13-10.74l-5.91-10.43c-4.11-6.88-8.05-13.8-12.27-20.57l-0.85,0.38c12.19,29.09,24.82,57.7,33,87.66
						l3.59,11.07l2.84,11.25c1.92,7.49,4.18,14.92,5.97,22.44c3.26,15.1,6.86,30.18,8.95,45.49c4.67,30.53,7.14,61.41,7.02,92.31
						c0.05,30.89-1.97,61.89-7.22,92.47L581.31,2251.22z"/>
				</g>
				<g>
					<defs>
						<path id="SVGID_00000158007464808014921910000006627701409133531778_" d="M525.76,2240.78c0,0,28.51-146.84-75.92-247.43
							c-93.8-90.36-152.53,6.72-79.07,79.54c71.33,70.72,126.01,175.04,126.01,175.04L525.76,2240.78z"/>
					</defs>
					<clipPath id="SVGID_00000069391463083826017030000008457735068083299737_">
						<use xlink:href="#SVGID_00000158007464808014921910000006627701409133531778_"  overflow="visible"/>
					</clipPath>
					
						<linearGradient id="SVGID_00000080889539870476142170000002359091133308780192_" gradientUnits="userSpaceOnUse" x1="1988.5759" y1="1974.2787" x2="1923.7104" y2="2164.7566" gradientTransform="matrix(-1 0 0 1 2386.5818 0)">
						<stop  offset="5.586590e-03" style="stop-color:#FBB814"/>
						<stop  offset="1" style="stop-color:#C1807F"/>
					</linearGradient>
					
						<path clip-path="url(#SVGID_00000069391463083826017030000008457735068083299737_)" fill="url(#SVGID_00000080889539870476142170000002359091133308780192_)" d="
						M525.76,2240.78c0,0,28.51-146.84-75.92-247.43c-93.8-90.36-152.53,6.72-79.07,79.54c71.33,70.72,126.01,175.04,126.01,175.04
						L525.76,2240.78z"/>
					
						<linearGradient id="SVGID_00000116233030990444578830000003051976630072810686_" gradientUnits="userSpaceOnUse" x1="1749.2467" y1="1850.451" x2="1699.6025" y2="2032.4797" gradientTransform="matrix(-0.9641 0.2654 0.2654 0.9641 1620.8997 -182.5599)">
						<stop  offset="0" style="stop-color:#D63D76"/>
						<stop  offset="1" style="stop-color:#571C57"/>
					</linearGradient>
					
						<path clip-path="url(#SVGID_00000069391463083826017030000008457735068083299737_)" fill="url(#SVGID_00000116233030990444578830000003051976630072810686_)" d="
						M512.95,2250.71c-1.94-21.98-6.19-43.77-11.89-65.24c-5.8-21.46-13.38-42.54-22.47-63.1c-4.3-10.38-9.61-20.38-14.71-30.48
						c-2.75-4.96-5.73-9.82-8.64-14.71l-4.49-7.27l-4.97-7.03c-3.41-4.63-6.71-9.31-10.2-13.88c-3.78-4.39-7.48-8.83-11.33-13.16
						c-1.93-2.16-3.78-4.37-5.77-6.49l-6.24-6.14c-4.26-4.01-8.41-8.09-12.72-12.01l-0.5,0.4c14.45,17.85,29.11,35.3,41,54.43
						l4.78,6.97l4.31,7.22c2.89,4.8,6,9.5,8.8,14.35c5.4,9.79,11.04,19.5,15.68,29.63c9.61,20.11,17.78,40.83,24.19,62.01
						c6.52,21.14,11.65,42.7,14.48,64.52L512.95,2250.71z"/>
				</g>
				
					<linearGradient id="SVGID_00000160165649790717748900000014147338164558644098_" gradientUnits="userSpaceOnUse" x1="1834.515" y1="2197.9858" x2="1834.515" y2="2311.2612" gradientTransform="matrix(-1 0 0 1 2386.5818 0)">
					<stop  offset="5.586590e-03" style="stop-color:#FBB814"/>
					<stop  offset="1" style="stop-color:#C1807F"/>
				</linearGradient>
				<path fill="url(#SVGID_00000160165649790717748900000014147338164558644098_)" d="M728.13,2261.77
					c0,17.33-78.83,16.2-176.07,16.2S376,2279.11,376,2261.77c0-17.33,78.83-31.39,176.07-31.39S728.13,2244.44,728.13,2261.77z"/>
			</g>
			<g>
				<path fill="#FFFFFF" d="M380.6,1139.38c0,3.53-3.19,6.38-7.12,6.38s-7.12-2.86-7.12-6.38s3.19-6.38,7.12-6.38
					S380.6,1135.85,380.6,1139.38z"/>
				<path fill="#FFFFFF" d="M402.97,1183.39c0,6.67-6.03,12.08-13.47,12.08s-13.47-5.41-13.47-12.08c0-6.67,6.03-12.09,13.47-12.09
					S402.97,1176.71,402.97,1183.39z"/>
				<path fill="#FFFFFF" d="M498.54,1163.32c0,2.9-2.62,5.24-5.85,5.24c-3.23,0-5.85-2.35-5.85-5.24s2.62-5.24,5.85-5.24
					C495.92,1158.08,498.54,1160.42,498.54,1163.32z"/>
				<path fill="#FFFFFF" d="M471.34,1114.41c0,3.09-2.79,5.59-6.23,5.59s-6.23-2.5-6.23-5.59c0-3.09,2.79-5.59,6.23-5.59
					S471.34,1111.33,471.34,1114.41z"/>
				<path fill="#FFFFFF" d="M419.24,1073.71c0,4.03-3.64,7.3-8.13,7.3c-4.49,0-8.13-3.27-8.13-7.3c0-4.03,3.64-7.3,8.13-7.3
					C415.6,1066.41,419.24,1069.68,419.24,1073.71z"/>
				<path fill="#FFFFFF" d="M720.35,621.78c0-3.02-2.73-5.47-6.1-5.47c-3.37,0-6.1,2.45-6.1,5.47s2.73,5.47,6.1,5.47
					C717.62,627.25,720.35,624.8,720.35,621.78z"/>
				<path fill="#FFFFFF" d="M700.32,579.36c0,4.44-4.01,8.04-8.97,8.04c-4.95,0-8.97-3.6-8.97-8.04c0-4.44,4.01-8.04,8.97-8.04
					C696.31,571.31,700.32,574.92,700.32,579.36z"/>
				<ellipse fill="#FFFFFF" cx="491.06" cy="750.25" rx="25.95" ry="23.28"/>
				<path fill="#FFFFFF" d="M879.29,932.8c0,7.05-6.37,12.77-14.23,12.77c-7.86,0-14.23-5.72-14.23-12.77
					c0-7.05,6.37-12.77,14.23-12.77C872.92,920.03,879.29,925.74,879.29,932.8z"/>
				<ellipse fill="#FFFFFF" cx="816.76" cy="1017.16" rx="14.74" ry="13.22"/>
				<ellipse fill="#FFFFFF" cx="946.58" cy="989.7" rx="32.53" ry="29.19"/>
			</g>
		</g>
	</g>
</g>
</svg>
