<?xml version="1.0" encoding="utf-8"?>
<!-- Generator: Adobe Illustrator 27.2.0, SVG Export Plug-In . SVG Version: 6.00 Build 0)  -->
<svg version="1.1" id="Capa_1" xmlns="http://www.w3.org/2000/svg" xmlns:xlink="http://www.w3.org/1999/xlink" x="0px" y="0px"
	 viewBox="0 0 1080 2340" enable-background="new 0 0 1080 2340" xml:space="preserve">
<g>
	<defs>
		<rect id="SVGID_1_" width="1080" height="2340"/>
	</defs>
	<clipPath id="SVGID_00000091722355301576948730000004845524867518823831_">
		<use xlink:href="#SVGID_1_"  overflow="visible"/>
	</clipPath>
	
		<linearGradient id="SVGID_00000057840205741614156240000012097405516247188925_" gradientUnits="userSpaceOnUse" x1="540" y1="2340" x2="540" y2="-9.094947e-13">
		<stop  offset="0" style="stop-color:#FAF6CA"/>
		<stop  offset="0.2176" style="stop-color:#FAF4C7"/>
		<stop  offset="0.3912" style="stop-color:#FAEDBD"/>
		<stop  offset="0.5494" style="stop-color:#FBE2AC"/>
		<stop  offset="0.6987" style="stop-color:#FBD394"/>
		<stop  offset="0.8415" style="stop-color:#FCBF76"/>
		<stop  offset="0.9778" style="stop-color:#FDA651"/>
		<stop  offset="1" style="stop-color:#FDA24A"/>
	</linearGradient>
	
		<rect clip-path="url(#SVGID_00000091722355301576948730000004845524867518823831_)" fill="url(#SVGID_00000057840205741614156240000012097405516247188925_)" width="1080" height="2340"/>
	
		<linearGradient id="SVGID_00000162338906209941564760000005085678852088138631_" gradientUnits="userSpaceOnUse" x1="540.0003" y1="842.0817" x2="540.0003" y2="1971.6029">
		<stop  offset="0" style="stop-color:#FFFFFF"/>
		<stop  offset="0.9944" style="stop-color:#FFFFFF;stop-opacity:0"/>
	</linearGradient>
	
		<path opacity="0.84" clip-path="url(#SVGID_00000091722355301576948730000004845524867518823831_)" fill="url(#SVGID_00000162338906209941564760000005085678852088138631_)" d="
		M1008.24,1140.4c-23.81,0-47.06,2.08-69.64,5.88c-18.34-170.71-178.65-304.2-373.76-304.2c-199.39,0-362.4,139.42-374.71,315.5
		c-37.23-11.09-76.99-17.18-118.37-17.18c-207.41,0-375.55,150.83-375.55,336.9c0,186.06,168.14,336.9,375.55,336.9
		c55.76,0,108.64-10.99,156.22-30.55c61.29,111.34,189.08,187.95,336.86,187.95c141.32,0,264.35-70.06,328.44-173.54
		c36.24,10.44,74.84,16.14,114.95,16.14c207.41,0,375.55-150.83,375.55-336.9C1383.78,1291.24,1215.65,1140.4,1008.24,1140.4z"/>
	
		<linearGradient id="SVGID_00000098198839234766132290000001173865475679222154_" gradientUnits="userSpaceOnUse" x1="911.564" y1="328.4232" x2="911.564" y2="1457.9443">
		<stop  offset="0" style="stop-color:#FFFFFF"/>
		<stop  offset="0.9944" style="stop-color:#FFFFFF;stop-opacity:0"/>
	</linearGradient>
	
		<path opacity="0.84" clip-path="url(#SVGID_00000091722355301576948730000004845524867518823831_)" fill="url(#SVGID_00000098198839234766132290000001173865475679222154_)" d="
		M1379.8,626.75c-23.81,0-47.06,2.08-69.64,5.88c-18.34-170.71-178.65-304.2-373.76-304.2c-199.39,0-362.4,139.42-374.71,315.5
		c-37.23-11.09-76.99-17.18-118.37-17.18c-207.41,0-375.55,150.83-375.55,336.9c0,186.06,168.14,336.9,375.55,336.9
		c55.76,0,108.64-10.99,156.22-30.55c61.29,111.34,189.08,187.95,336.86,187.95c141.32,0,264.35-70.06,328.44-173.54
		c36.24,10.44,74.84,16.14,114.95,16.14c207.41,0,375.55-150.83,375.55-336.9C1755.35,777.58,1587.21,626.75,1379.8,626.75z"/>
	<g clip-path="url(#SVGID_00000091722355301576948730000004845524867518823831_)">
		
			<linearGradient id="SVGID_00000042001546825283177540000014853607428185468342_" gradientUnits="userSpaceOnUse" x1="-355.3326" y1="1966.4333" x2="-184.2737" y2="2105.05">
			<stop  offset="0" style="stop-color:#D63D76"/>
			<stop  offset="1" style="stop-color:#571C57"/>
		</linearGradient>
		<path fill="url(#SVGID_00000042001546825283177540000014853607428185468342_)" d="M-821.89,1524.1
			c0,0,1164.11-268.88,1804.85,692.58l-1838.22,275.94L-821.89,1524.1z"/>
		
			<linearGradient id="SVGID_00000057150453117251416150000007877910435426885277_" gradientUnits="userSpaceOnUse" x1="1430.3544" y1="1859.3838" x2="1601.4132" y2="1998.0005" gradientTransform="matrix(-1 0 0 1 2929.5393 0)">
			<stop  offset="0" style="stop-color:#D63D76"/>
			<stop  offset="1" style="stop-color:#571C57"/>
		</linearGradient>
		<path fill="url(#SVGID_00000057150453117251416150000007877910435426885277_)" d="M1965.74,1417.05
			c0,0-1164.11-268.88-1804.85,692.58l1838.22,275.94L1965.74,1417.05z"/>
		
			<linearGradient id="SVGID_00000026870231496217792310000014281956211048305061_" gradientUnits="userSpaceOnUse" x1="1266.225" y1="1137.2172" x2="203.0572" y2="2978.6777">
			<stop  offset="0" style="stop-color:#F49E2F"/>
			<stop  offset="1" style="stop-color:#B83E16"/>
		</linearGradient>
		<path fill="url(#SVGID_00000026870231496217792310000014281956211048305061_)" d="M-855.26,2081.53
			c0,0,1513.31-776.6,2915.22-320.02v731.11H-855.26V2081.53z"/>
		<path opacity="0.21" fill="#FFFFFF" d="M237.44,2067.83c411.9,4.86,809.93-159.78,1064.91-444.68
			c-758.88-42.64-1463.82,174.77-1850.15,324.8c29.17,10.69,59.24,20.24,90.41,28.38C-227.91,2039.23,1.57,2067.83,237.44,2067.83z"
			/>
	</g>
	<g clip-path="url(#SVGID_00000091722355301576948730000004845524867518823831_)">
		<g>
			<defs>
				<path id="SVGID_00000083786186951450979220000004216635688693588413_" d="M1144.67,1643.28c8.39,11,27.57,6.17,28.36-7.14
					c3.98-66.71,21.86-169,94.17-169c77.49,0,63.47,121.52,49.71,189.02c-2.54,12.48,13.23,21.26,24.59,13.72
					c24.47-16.24,58.55-29.65,91.73-11.94c61.87,33.02-40.72,179.85-141.75,179.85h-171.51c0,0-176.2-177.74-72.05-227.62
					C1090.49,1589.78,1123.4,1615.4,1144.67,1643.28z"/>
			</defs>
			<clipPath id="SVGID_00000137094343970154858100000012545078264246168244_">
				<use xlink:href="#SVGID_00000083786186951450979220000004216635688693588413_"  overflow="visible"/>
			</clipPath>
			
				<linearGradient id="SVGID_00000047042046520987018340000015565206381910807968_" gradientUnits="userSpaceOnUse" x1="1238.3099" y1="1580.1725" x2="1226.7539" y2="1809.3687">
				<stop  offset="0" style="stop-color:#D63D76"/>
				<stop  offset="1" style="stop-color:#571C57"/>
			</linearGradient>
			
				<path clip-path="url(#SVGID_00000137094343970154858100000012545078264246168244_)" fill="url(#SVGID_00000047042046520987018340000015565206381910807968_)" d="
				M1144.67,1643.28c8.39,11,27.57,6.17,28.36-7.14c3.98-66.71,21.86-169,94.17-169c77.49,0,63.47,121.52,49.71,189.02
				c-2.54,12.48,13.23,21.26,24.59,13.72c24.47-16.24,58.55-29.65,91.73-11.94c61.87,33.02-40.72,179.85-141.75,179.85h-171.51
				c0,0-176.2-177.74-72.05-227.62C1090.49,1589.78,1123.4,1615.4,1144.67,1643.28z"/>
			
				<path clip-path="url(#SVGID_00000137094343970154858100000012545078264246168244_)" fill="none" stroke="#FFFFFF" stroke-width="1.034" stroke-miterlimit="10" d="
				M1273.42,1445.07c0,0-10.57,328.79-69.31,427.85"/>
			
				<line clip-path="url(#SVGID_00000137094343970154858100000012545078264246168244_)" fill="none" stroke="#FFFFFF" stroke-width="1.034" stroke-miterlimit="10" x1="1043.18" y1="1599.98" x2="1177.1" y2="1847.45"/>
			
				<path clip-path="url(#SVGID_00000137094343970154858100000012545078264246168244_)" fill="none" stroke="#FFFFFF" stroke-width="1.034" stroke-miterlimit="10" d="
				M1444.93,1628.43c0,0-145.66,205.49-189.13,229.73"/>
		</g>
		
			<linearGradient id="SVGID_00000025410285231128694800000008154369236306609805_" gradientUnits="userSpaceOnUse" x1="1092.4741" y1="896.7642" x2="1076.0619" y2="1430.1559">
			<stop  offset="0" style="stop-color:#E74E1B"/>
			<stop  offset="0.9944" style="stop-color:#F7B033"/>
		</linearGradient>
		<path fill="url(#SVGID_00000025410285231128694800000008154369236306609805_)" d="M750.09,1181.73
			c0,172.66,149.36,231.45,333.61,231.45s333.61-58.79,333.61-231.45s-149.36-482.5-333.61-482.5S750.09,1009.07,750.09,1181.73z"/>
		
			<linearGradient id="SVGID_00000151507123065867786600000010195017560259368888_" gradientUnits="userSpaceOnUse" x1="1638.9905" y1="690.134" x2="710.2357" y2="1367.9922">
			<stop  offset="0" style="stop-color:#E74E1B"/>
			<stop  offset="0.9944" style="stop-color:#F7B033"/>
		</linearGradient>
		<path fill="url(#SVGID_00000151507123065867786600000010195017560259368888_)" d="M1083.71,699.24
			c-48.03,0-93.67,21.08-134.93,55.27c46.12-15.29,94.82-14.4,142.27,19.14c52.73,41.39,36.25,109.39-6.59,153.74
			c-65.91,76.87-194.45,130.09-184.56,230.61c6.59,44.35,85.69,35.48,118.64,2.96c49.44-50.26,118.64-118.26,197.74-100.52
			c62.62,14.78,83.92,79.8,81.22,132.78c-2.16,42.29-17.62,116.45-74.99,157.72c-60.58,47-147.62,59.36-237.44,55.77
			c31.17,4.44,64.3,6.49,98.63,6.49c184.25,0,333.61-58.79,333.61-231.45S1267.96,699.24,1083.71,699.24z"/>
		
			<linearGradient id="SVGID_00000170254684092415397750000013931251348626220969_" gradientUnits="userSpaceOnUse" x1="1194.8431" y1="1261.7313" x2="1145.6318" y2="1160.5363">
			<stop  offset="0" style="stop-color:#512127"/>
			<stop  offset="0.9944" style="stop-color:#940946"/>
		</linearGradient>
		<path fill="url(#SVGID_00000170254684092415397750000013931251348626220969_)" d="M1063.15,1317.55l197.35-261.35l-107.48,172.3
			l107.48-35.3c0,0-82.23,25.29-133.92,84.3c-51.69,59.01-48.16,85.36-48.16,85.36L1063.15,1317.55z"/>
		
			<linearGradient id="SVGID_00000155836825188317136150000015241308281674593695_" gradientUnits="userSpaceOnUse" x1="474.9324" y1="1208.5137" x2="425.7212" y2="1107.3186" gradientTransform="matrix(-1 0 0 1 1426.9504 0)">
			<stop  offset="0" style="stop-color:#512127"/>
			<stop  offset="0.9944" style="stop-color:#940946"/>
		</linearGradient>
		<path fill="url(#SVGID_00000155836825188317136150000015241308281674593695_)" d="M1083.71,1264.34l-197.35-261.35l107.48,172.3
			l-107.48-35.3c0,0,82.23,25.29,133.92,84.31c51.69,59.01,48.16,85.36,48.16,85.36L1083.71,1264.34z"/>
		
			<linearGradient id="SVGID_00000108290467446660711930000005930884825377513868_" gradientUnits="userSpaceOnUse" x1="1151.3632" y1="1630.6447" x2="950.3983" y2="1217.3926">
			<stop  offset="0" style="stop-color:#512127"/>
			<stop  offset="0.9944" style="stop-color:#940946"/>
		</linearGradient>
		<path fill="url(#SVGID_00000108290467446660711930000005930884825377513868_)" d="M1089.39,951.88c0,0,1.57,429.96,23.49,550.79
			c21.93,120.84,10.96,323.17,10.96,323.17H978.18c0,0,72.9-469.3,81.52-587.32C1068.32,1120.49,1072.16,1013.71,1089.39,951.88z"/>
		<g>
			
				<linearGradient id="SVGID_00000036937811101704856180000007204573829737193357_" gradientUnits="userSpaceOnUse" x1="869.3263" y1="1677.6073" x2="869.3263" y2="1804.4401">
				<stop  offset="5.586590e-03" style="stop-color:#FBB814"/>
				<stop  offset="1" style="stop-color:#C1807F"/>
			</linearGradient>
			<path fill="url(#SVGID_00000036937811101704856180000007204573829737193357_)" d="M991.21,1823.71
				c3.22-10.03,4.99-20.62,4.99-31.58c0-62.86-56.8-113.81-126.87-113.81c-70.07,0-126.87,50.96-126.87,113.81
				c0,10.96,1.76,21.55,4.99,31.58H991.21z"/>
			
				<linearGradient id="SVGID_00000096021073479389583540000001573469242892675767_" gradientUnits="userSpaceOnUse" x1="713.4831" y1="1767.533" x2="713.4831" y2="1858.2894">
				<stop  offset="5.586590e-03" style="stop-color:#FBB814"/>
				<stop  offset="1" style="stop-color:#C1807F"/>
			</linearGradient>
			<path fill="url(#SVGID_00000096021073479389583540000001573469242892675767_)" d="M803.1,1823.71
				c-1.06-43.6-40.76-78.66-89.62-78.66c-48.86,0-88.56,35.06-89.62,78.66H803.1z"/>
			
				<linearGradient id="SVGID_00000065783032617032999900000012479049596859038363_" gradientUnits="userSpaceOnUse" x1="1027.5194" y1="1767.533" x2="1027.5194" y2="1858.2894">
				<stop  offset="5.586590e-03" style="stop-color:#FBB814"/>
				<stop  offset="1" style="stop-color:#C1807F"/>
			</linearGradient>
			<path fill="url(#SVGID_00000065783032617032999900000012479049596859038363_)" d="M1117.14,1823.71
				c-1.06-43.6-40.76-78.66-89.62-78.66c-48.86,0-88.56,35.06-89.62,78.66H1117.14z"/>
			
				<linearGradient id="SVGID_00000054249405627815598090000002070252140260859067_" gradientUnits="userSpaceOnUse" x1="872.4591" y1="1753.649" x2="872.4591" y2="1878.5677">
				<stop  offset="5.586590e-03" style="stop-color:#FBB814"/>
				<stop  offset="1" style="stop-color:#C1807F"/>
			</linearGradient>
			<path fill="url(#SVGID_00000054249405627815598090000002070252140260859067_)" d="M581.92,1834.88
				c0,6.94,130.08,12.57,290.54,12.57c160.46,0,290.54-5.63,290.54-12.57c0-6.94-130.08-30.46-290.54-30.46
				C712,1804.42,581.92,1827.93,581.92,1834.88z"/>
			<g>
				<path fill="#FFFFFF" d="M985.03,1768.06c0,7.86,10.52,14.23,23.49,14.23c12.97,0,23.49-6.37,23.49-14.23
					c0-7.86-10.52-14.23-23.49-14.23C995.55,1753.83,985.03,1760.2,985.03,1768.06z"/>
				<ellipse fill="#FFFFFF" cx="1037.6" cy="1789.31" rx="14.78" ry="8.95"/>
			</g>
			<g>
				<path fill="#FFFFFF" d="M809.42,1714.85c0,7.86,10.52,14.23,23.49,14.23c12.98,0,23.49-6.37,23.49-14.23
					c0-7.86-10.52-14.23-23.49-14.23C819.94,1700.62,809.42,1706.99,809.42,1714.85z"/>
				<ellipse fill="#FFFFFF" cx="861.98" cy="1736.1" rx="14.78" ry="8.95"/>
			</g>
			<g>
				<path fill="#FFFFFF" d="M666.69,1781.32c0,7.86,10.52,14.23,23.49,14.23c12.98,0,23.49-6.37,23.49-14.23
					c0-7.86-10.52-14.23-23.49-14.23C677.21,1767.1,666.69,1773.47,666.69,1781.32z"/>
				<ellipse fill="#FFFFFF" cx="719.26" cy="1802.58" rx="14.78" ry="8.95"/>
			</g>
		</g>
		<g>
			<path fill="#FFFFFF" d="M933.35,1248.27c0,2.47-2.23,4.48-4.99,4.48c-2.76,0-4.99-2-4.99-4.48c0-2.47,2.23-4.48,4.99-4.48
				C931.11,1243.79,933.35,1245.79,933.35,1248.27z"/>
			<ellipse fill="#FFFFFF" cx="918.08" cy="1291.21" rx="12.33" ry="11.06"/>
			<ellipse fill="#FFFFFF" cx="974.56" cy="1294.46" rx="3.62" ry="3.25"/>
			<ellipse fill="#FFFFFF" cx="972.7" cy="1258.8" rx="3.52" ry="3.16"/>
			<path fill="#FFFFFF" d="M1039.66,1292.92c0,5.17-4.67,9.35-10.43,9.35c-5.76,0-10.43-4.19-10.43-9.35
				c0-5.17,4.67-9.35,10.43-9.35C1034.99,1283.57,1039.66,1287.76,1039.66,1292.92z"/>
			<path fill="#FFFFFF" d="M1172.99,975.59c0,5.53-5,10.01-11.16,10.01c-6.16,0-11.16-4.48-11.16-10.01c0-5.53,5-10.01,11.16-10.01
				C1167.99,965.58,1172.99,970.06,1172.99,975.59z"/>
			<path fill="#FFFFFF" d="M1190.02,934.49c0,3.2-2.89,5.8-6.46,5.8s-6.46-2.6-6.46-5.8c0-3.2,2.89-5.8,6.46-5.8
				S1190.02,931.29,1190.02,934.49z"/>
			<path fill="#FFFFFF" d="M1141.27,932.65c0,1.02-0.92,1.84-2.06,1.84c-1.14,0-2.06-0.83-2.06-1.84c0-1.02,0.92-1.84,2.06-1.84
				C1140.35,930.81,1141.27,931.63,1141.27,932.65z"/>
			<path fill="#FFFFFF" d="M1216.45,986.66c0,4.37-3.94,7.9-8.81,7.9s-8.81-3.54-8.81-7.9s3.94-7.9,8.81-7.9
				S1216.45,982.29,1216.45,986.66z"/>
			<ellipse fill="#FFFFFF" cx="1236.13" cy="945.3" rx="9.69" ry="8.69"/>
		</g>
	</g>
	<g clip-path="url(#SVGID_00000091722355301576948730000004845524867518823831_)">
		<g>
			<defs>
				<path id="SVGID_00000066478772510172158640000016117192090388231334_" d="M562.45,2035.86c8.39,11,27.57,6.17,28.36-7.14
					c3.98-66.71,21.86-169,94.17-169c77.49,0,63.47,121.52,49.71,189.02c-2.54,12.48,13.22,21.26,24.59,13.72
					c24.47-16.24,58.55-29.65,91.73-11.94c61.87,33.02-40.72,179.85-141.75,179.85H537.75c0,0-176.2-177.74-72.05-227.62
					C508.27,1982.37,541.18,2007.99,562.45,2035.86z"/>
			</defs>
			<clipPath id="SVGID_00000151518398267084296390000004545062137236230061_">
				<use xlink:href="#SVGID_00000066478772510172158640000016117192090388231334_"  overflow="visible"/>
			</clipPath>
			
				<linearGradient id="SVGID_00000008150778376704860660000003920526362532920465_" gradientUnits="userSpaceOnUse" x1="656.09" y1="1972.7593" x2="644.534" y2="2201.9551">
				<stop  offset="0" style="stop-color:#D63D76"/>
				<stop  offset="1" style="stop-color:#571C57"/>
			</linearGradient>
			
				<path clip-path="url(#SVGID_00000151518398267084296390000004545062137236230061_)" fill="url(#SVGID_00000008150778376704860660000003920526362532920465_)" d="
				M562.45,2035.86c8.39,11,27.57,6.17,28.36-7.14c3.98-66.71,21.86-169,94.17-169c77.49,0,63.47,121.52,49.71,189.02
				c-2.54,12.48,13.22,21.26,24.59,13.72c24.47-16.24,58.55-29.65,91.73-11.94c61.87,33.02-40.72,179.85-141.75,179.85H537.75
				c0,0-176.2-177.74-72.05-227.62C508.27,1982.37,541.18,2007.99,562.45,2035.86z"/>
			
				<path clip-path="url(#SVGID_00000151518398267084296390000004545062137236230061_)" fill="none" stroke="#FFFFFF" stroke-width="1.034" stroke-miterlimit="10" d="
				M691.2,1837.65c0,0-10.57,328.79-69.31,427.85"/>
			
				<line clip-path="url(#SVGID_00000151518398267084296390000004545062137236230061_)" fill="none" stroke="#FFFFFF" stroke-width="1.034" stroke-miterlimit="10" x1="460.96" y1="1992.56" x2="594.88" y2="2240.03"/>
			
				<path clip-path="url(#SVGID_00000151518398267084296390000004545062137236230061_)" fill="none" stroke="#FFFFFF" stroke-width="1.034" stroke-miterlimit="10" d="
				M862.71,2021.02c0,0-145.66,205.49-189.13,229.73"/>
		</g>
		<g>
			<defs>
				<path id="SVGID_00000088111409232569650600000010754544027999200695_" d="M215.32,2059.39c8.39,11,27.57,6.17,28.36-7.14
					c3.98-66.71,21.86-169,94.17-169c77.49,0,63.47,121.52,49.71,189.02c-2.54,12.48,13.23,21.26,24.59,13.72
					c24.47-16.24,58.55-29.65,91.73-11.94c61.87,33.02-40.72,179.85-141.75,179.85H190.62c0,0-176.2-177.74-72.05-227.62
					C161.14,2005.89,194.06,2031.52,215.32,2059.39z"/>
			</defs>
			<clipPath id="SVGID_00000010305361302662775950000010173453733138422711_">
				<use xlink:href="#SVGID_00000088111409232569650600000010754544027999200695_"  overflow="visible"/>
			</clipPath>
			
				<linearGradient id="SVGID_00000142889458964968050140000003839591549748083601_" gradientUnits="userSpaceOnUse" x1="308.9658" y1="1996.2876" x2="297.4097" y2="2225.4839">
				<stop  offset="0" style="stop-color:#D63D76"/>
				<stop  offset="1" style="stop-color:#571C57"/>
			</linearGradient>
			
				<path clip-path="url(#SVGID_00000010305361302662775950000010173453733138422711_)" fill="url(#SVGID_00000142889458964968050140000003839591549748083601_)" d="
				M215.32,2059.39c8.39,11,27.57,6.17,28.36-7.14c3.98-66.71,21.86-169,94.17-169c77.49,0,63.47,121.52,49.71,189.02
				c-2.54,12.48,13.23,21.26,24.59,13.72c24.47-16.24,58.55-29.65,91.73-11.94c61.87,33.02-40.72,179.85-141.75,179.85H190.62
				c0,0-176.2-177.74-72.05-227.62C161.14,2005.89,194.06,2031.52,215.32,2059.39z"/>
			
				<path clip-path="url(#SVGID_00000010305361302662775950000010173453733138422711_)" fill="none" stroke="#FFFFFF" stroke-width="1.034" stroke-miterlimit="10" d="
				M344.08,1861.18c0,0-10.57,328.79-69.31,427.85"/>
			
				<line clip-path="url(#SVGID_00000010305361302662775950000010173453733138422711_)" fill="none" stroke="#FFFFFF" stroke-width="1.034" stroke-miterlimit="10" x1="113.84" y1="2016.09" x2="247.75" y2="2263.56"/>
			
				<path clip-path="url(#SVGID_00000010305361302662775950000010173453733138422711_)" fill="none" stroke="#FFFFFF" stroke-width="1.034" stroke-miterlimit="10" d="
				M515.59,2044.54c0,0-145.66,205.49-189.13,229.73"/>
		</g>
		
			<linearGradient id="SVGID_00000085218511431980587130000006996429106938046140_" gradientUnits="userSpaceOnUse" x1="510.2538" y1="1289.3507" x2="493.8417" y2="1822.7428">
			<stop  offset="0" style="stop-color:#E74E1B"/>
			<stop  offset="0.9944" style="stop-color:#F7B033"/>
		</linearGradient>
		<path fill="url(#SVGID_00000085218511431980587130000006996429106938046140_)" d="M167.87,1574.32
			c0,172.66,149.36,231.45,333.62,231.45s333.61-58.79,333.61-231.45s-149.36-482.5-333.61-482.5S167.87,1401.66,167.87,1574.32z"/>
		
			<linearGradient id="SVGID_00000021839690548025973540000018289437082509711526_" gradientUnits="userSpaceOnUse" x1="1056.7708" y1="1082.7203" x2="128.0156" y2="1760.579">
			<stop  offset="0" style="stop-color:#E74E1B"/>
			<stop  offset="0.9944" style="stop-color:#F7B033"/>
		</linearGradient>
		<path fill="url(#SVGID_00000021839690548025973540000018289437082509711526_)" d="M501.49,1091.82
			c-48.03,0-93.67,21.08-134.93,55.27c46.12-15.29,94.82-14.4,142.27,19.14c52.73,41.39,36.25,109.39-6.59,153.74
			c-65.91,76.87-194.45,130.09-184.56,230.61c6.59,44.35,85.69,35.48,118.64,2.96c49.44-50.26,118.64-118.26,197.74-100.52
			c62.62,14.78,83.92,79.8,81.22,132.78c-2.16,42.29-17.62,116.45-74.98,157.72c-60.58,47-147.62,59.37-237.44,55.77
			c31.17,4.44,64.3,6.49,98.63,6.49c184.25,0,333.61-58.79,333.61-231.45C835.1,1401.66,685.74,1091.82,501.49,1091.82z"/>
		
			<linearGradient id="SVGID_00000014596722823475798120000012704317443868991890_" gradientUnits="userSpaceOnUse" x1="612.6232" y1="1654.3177" x2="563.412" y2="1553.1226">
			<stop  offset="0" style="stop-color:#512127"/>
			<stop  offset="0.9944" style="stop-color:#940946"/>
		</linearGradient>
		<path fill="url(#SVGID_00000014596722823475798120000012704317443868991890_)" d="M480.93,1710.14l197.35-261.35l-107.48,172.3
			l107.48-35.3c0,0-82.23,25.29-133.92,84.31c-51.69,59.01-48.16,85.36-48.16,85.36L480.93,1710.14z"/>
		
			<linearGradient id="SVGID_00000150074318184069530830000001210391993507325087_" gradientUnits="userSpaceOnUse" x1="1057.1523" y1="1601.1001" x2="1007.941" y2="1499.9049" gradientTransform="matrix(-1 0 0 1 1426.9504 0)">
			<stop  offset="0" style="stop-color:#512127"/>
			<stop  offset="0.9944" style="stop-color:#940946"/>
		</linearGradient>
		<path fill="url(#SVGID_00000150074318184069530830000001210391993507325087_)" d="M501.49,1656.92l-197.35-261.35l107.48,172.3
			l-107.48-35.3c0,0,82.23,25.29,133.92,84.31c51.69,59.01,48.16,85.36,48.16,85.36L501.49,1656.92z"/>
		
			<linearGradient id="SVGID_00000003797881976753560260000013587178746009573033_" gradientUnits="userSpaceOnUse" x1="569.1432" y1="2023.231" x2="368.1783" y2="1609.9789">
			<stop  offset="0" style="stop-color:#512127"/>
			<stop  offset="0.9944" style="stop-color:#940946"/>
		</linearGradient>
		<path fill="url(#SVGID_00000003797881976753560260000013587178746009573033_)" d="M507.17,1344.47c0,0,1.57,429.96,23.49,550.79
			c21.93,120.84,10.96,323.17,10.96,323.17H395.96c0,0,72.9-469.3,81.52-587.32C486.1,1513.08,489.94,1406.29,507.17,1344.47z"/>
		<g>
			
				<linearGradient id="SVGID_00000093163657154443428820000005807686241094823052_" gradientUnits="userSpaceOnUse" x1="462.8062" y1="2105.5779" x2="462.8062" y2="2232.4104">
				<stop  offset="5.586590e-03" style="stop-color:#FBB814"/>
				<stop  offset="1" style="stop-color:#C1807F"/>
			</linearGradient>
			<path fill="url(#SVGID_00000093163657154443428820000005807686241094823052_)" d="M584.69,2251.68
				c3.23-10.03,4.99-20.62,4.99-31.58c0-62.86-56.8-113.81-126.87-113.81s-126.87,50.96-126.87,113.81
				c0,10.96,1.76,21.55,4.99,31.58H584.69z"/>
			
				<linearGradient id="SVGID_00000160148160073693121010000006414621015298583944_" gradientUnits="userSpaceOnUse" x1="306.9627" y1="2195.5034" x2="306.9627" y2="2286.2598">
				<stop  offset="5.586590e-03" style="stop-color:#FBB814"/>
				<stop  offset="1" style="stop-color:#C1807F"/>
			</linearGradient>
			<path fill="url(#SVGID_00000160148160073693121010000006414621015298583944_)" d="M396.58,2251.68
				c-1.06-43.6-40.76-78.66-89.62-78.66c-48.85,0-88.56,35.06-89.62,78.66H396.58z"/>
			
				<linearGradient id="SVGID_00000104706682761390386100000003566676296442858901_" gradientUnits="userSpaceOnUse" x1="620.9991" y1="2195.5034" x2="620.9991" y2="2286.2598">
				<stop  offset="5.586590e-03" style="stop-color:#FBB814"/>
				<stop  offset="1" style="stop-color:#C1807F"/>
			</linearGradient>
			<path fill="url(#SVGID_00000104706682761390386100000003566676296442858901_)" d="M710.62,2251.68
				c-1.06-43.6-40.76-78.66-89.62-78.66c-48.86,0-88.56,35.06-89.62,78.66H710.62z"/>
			
				<linearGradient id="SVGID_00000083794341813366490920000008518181066636618160_" gradientUnits="userSpaceOnUse" x1="465.9388" y1="2181.6194" x2="465.9388" y2="2306.5381">
				<stop  offset="5.586590e-03" style="stop-color:#FBB814"/>
				<stop  offset="1" style="stop-color:#C1807F"/>
			</linearGradient>
			<path fill="url(#SVGID_00000083794341813366490920000008518181066636618160_)" d="M175.4,2262.85
				c0,6.94,130.08,12.57,290.54,12.57s290.54-5.63,290.54-12.57c0-6.94-130.08-30.46-290.54-30.46S175.4,2255.9,175.4,2262.85z"/>
			<g>
				<path fill="#FFFFFF" d="M578.51,2196.03c0,7.86,10.52,14.23,23.49,14.23c12.98,0,23.49-6.37,23.49-14.23
					c0-7.86-10.52-14.23-23.49-14.23C589.03,2181.8,578.51,2188.17,578.51,2196.03z"/>
				<ellipse fill="#FFFFFF" cx="631.08" cy="2217.28" rx="14.78" ry="8.95"/>
			</g>
			<g>
				<path fill="#FFFFFF" d="M402.9,2142.82c0,7.86,10.52,14.23,23.49,14.23c12.98,0,23.49-6.37,23.49-14.23
					c0-7.86-10.52-14.23-23.49-14.23C413.42,2128.59,402.9,2134.96,402.9,2142.82z"/>
				<ellipse fill="#FFFFFF" cx="455.46" cy="2164.07" rx="14.78" ry="8.95"/>
			</g>
			<g>
				<path fill="#FFFFFF" d="M260.17,2209.29c0,7.86,10.52,14.23,23.49,14.23c12.98,0,23.49-6.37,23.49-14.23
					c0-7.86-10.52-14.23-23.49-14.23C270.69,2195.07,260.17,2201.44,260.17,2209.29z"/>
				<path fill="#FFFFFF" d="M297.96,2230.55c0,4.94,6.62,8.95,14.78,8.95c8.16,0,14.78-4.01,14.78-8.95c0-4.94-6.62-8.95-14.78-8.95
					C304.57,2221.59,297.96,2225.6,297.96,2230.55z"/>
			</g>
		</g>
		<g>
			<path fill="#FFFFFF" d="M351.13,1640.85c0,2.47-2.23,4.48-4.99,4.48c-2.76,0-4.99-2.01-4.99-4.48c0-2.47,2.23-4.48,4.99-4.48
				C348.89,1636.37,351.13,1638.38,351.13,1640.85z"/>
			<path fill="#FFFFFF" d="M348.19,1683.8c0,6.11-5.52,11.06-12.33,11.06c-6.81,0-12.33-4.95-12.33-11.06
				c0-6.11,5.52-11.07,12.33-11.07C342.67,1672.73,348.19,1677.68,348.19,1683.8z"/>
			<path fill="#FFFFFF" d="M395.96,1687.05c0,1.79-1.62,3.25-3.62,3.25s-3.62-1.45-3.62-3.25c0-1.79,1.62-3.25,3.62-3.25
				S395.96,1685.25,395.96,1687.05z"/>
			<path fill="#FFFFFF" d="M394,1651.39c0,1.75-1.58,3.16-3.52,3.16c-1.95,0-3.52-1.42-3.52-3.16c0-1.75,1.58-3.16,3.52-3.16
				C392.43,1648.23,394,1649.65,394,1651.39z"/>
			<path fill="#FFFFFF" d="M457.44,1685.51c0,5.17-4.67,9.35-10.43,9.35c-5.76,0-10.43-4.19-10.43-9.35c0-5.17,4.67-9.35,10.43-9.35
				C452.77,1676.16,457.44,1680.34,457.44,1685.51z"/>
			<path fill="#FFFFFF" d="M590.77,1368.18c0,5.53-5,10.01-11.16,10.01c-6.16,0-11.16-4.48-11.16-10.01c0-5.53,5-10.01,11.16-10.01
				C585.77,1358.17,590.77,1362.65,590.77,1368.18z"/>
			<path fill="#FFFFFF" d="M607.8,1327.08c0,3.2-2.89,5.8-6.46,5.8c-3.57,0-6.46-2.6-6.46-5.8c0-3.2,2.89-5.8,6.46-5.8
				C604.91,1321.28,607.8,1323.88,607.8,1327.08z"/>
			<path fill="#FFFFFF" d="M559.05,1325.24c0,1.02-0.92,1.84-2.06,1.84c-1.14,0-2.06-0.83-2.06-1.84c0-1.02,0.92-1.84,2.06-1.84
				C558.13,1323.39,559.05,1324.22,559.05,1325.24z"/>
			<path fill="#FFFFFF" d="M634.23,1379.24c0,4.36-3.94,7.9-8.81,7.9c-4.87,0-8.81-3.54-8.81-7.9c0-4.37,3.94-7.9,8.81-7.9
				C630.29,1371.34,634.23,1374.88,634.23,1379.24z"/>
			<ellipse fill="#FFFFFF" cx="653.91" cy="1337.88" rx="9.69" ry="8.69"/>
		</g>
	</g>
</g>
</svg>
