<?xml version="1.0" encoding="utf-8"?>
<!-- Generator: Adobe Illustrator 27.2.0, SVG Export Plug-In . SVG Version: 6.00 Build 0)  -->
<svg version="1.1" id="Capa_1" xmlns="http://www.w3.org/2000/svg" xmlns:xlink="http://www.w3.org/1999/xlink" x="0px" y="0px"
	 viewBox="0 0 1080 2340" enable-background="new 0 0 1080 2340" xml:space="preserve">
<g>
	<defs>
		<rect id="SVGID_1_" width="1080" height="2340"/>
	</defs>
	<clipPath id="SVGID_00000031907772262473646250000006008316128108656800_">
		<use xlink:href="#SVGID_1_"  overflow="visible"/>
	</clipPath>
	
		<linearGradient id="SVGID_00000038405833089456322020000017341125356649408698_" gradientUnits="userSpaceOnUse" x1="540" y1="2340" x2="540" y2="-9.094947e-13">
		<stop  offset="0" style="stop-color:#FAF6CA"/>
		<stop  offset="0.2176" style="stop-color:#FAF4C7"/>
		<stop  offset="0.3912" style="stop-color:#FAEDBD"/>
		<stop  offset="0.5494" style="stop-color:#FBE2AC"/>
		<stop  offset="0.6987" style="stop-color:#FBD394"/>
		<stop  offset="0.8415" style="stop-color:#FCBF76"/>
		<stop  offset="0.9778" style="stop-color:#FDA651"/>
		<stop  offset="1" style="stop-color:#FDA24A"/>
	</linearGradient>
	
		<rect clip-path="url(#SVGID_00000031907772262473646250000006008316128108656800_)" fill="url(#SVGID_00000038405833089456322020000017341125356649408698_)" width="1080" height="2340"/>
	
		<linearGradient id="SVGID_00000115493168307489405350000016599009112151204498_" gradientUnits="userSpaceOnUse" x1="24.0429" y1="974.5729" x2="24.0429" y2="2104.094">
		<stop  offset="0" style="stop-color:#FFFFFF"/>
		<stop  offset="0.9944" style="stop-color:#FFFFFF;stop-opacity:0"/>
	</linearGradient>
	
		<path opacity="0.84" clip-path="url(#SVGID_00000031907772262473646250000006008316128108656800_)" fill="url(#SVGID_00000115493168307489405350000016599009112151204498_)" d="
		M492.28,1272.9c-23.81,0-47.06,2.08-69.64,5.88c-18.34-170.71-178.65-304.2-373.75-304.2c-199.39,0-362.4,139.42-374.71,315.5
		c-37.23-11.09-76.99-17.18-118.37-17.18c-207.41,0-375.55,150.83-375.55,336.9c0,186.06,168.14,336.9,375.55,336.9
		c55.76,0,108.64-10.99,156.22-30.55c61.29,111.34,189.08,187.95,336.86,187.95c141.32,0,264.35-70.06,328.44-173.54
		c36.24,10.44,74.84,16.14,114.95,16.14c207.41,0,375.55-150.83,375.55-336.9C867.83,1423.73,699.69,1272.9,492.28,1272.9z"/>
	
		<linearGradient id="SVGID_00000105426173402635313870000012774611052979218869_" gradientUnits="userSpaceOnUse" x1="731.809" y1="962.8663" x2="731.809" y2="2092.387">
		<stop  offset="0" style="stop-color:#FFFFFF"/>
		<stop  offset="0.9944" style="stop-color:#FFFFFF;stop-opacity:0"/>
	</linearGradient>
	
		<path opacity="0.84" clip-path="url(#SVGID_00000031907772262473646250000006008316128108656800_)" fill="url(#SVGID_00000105426173402635313870000012774611052979218869_)" d="
		M1200.05,1261.19c-23.81,0-47.06,2.08-69.64,5.88c-18.34-170.71-178.65-304.2-373.75-304.2c-199.39,0-362.4,139.42-374.71,315.5
		c-37.23-11.09-76.99-17.18-118.37-17.18c-207.41,0-375.55,150.83-375.55,336.9s168.14,336.9,375.55,336.9
		c55.76,0,108.64-10.99,156.22-30.55c61.29,111.34,189.08,187.95,336.86,187.95c141.32,0,264.35-70.06,328.44-173.54
		c36.24,10.44,74.84,16.14,114.95,16.14c207.41,0,375.55-150.83,375.55-336.9S1407.45,1261.19,1200.05,1261.19z"/>
	
		<linearGradient id="SVGID_00000165920302874145274410000013521852344382864562_" gradientUnits="userSpaceOnUse" x1="661.4303" y1="320.2701" x2="661.4303" y2="1449.7908">
		<stop  offset="0" style="stop-color:#FFFFFF"/>
		<stop  offset="0.9944" style="stop-color:#FFFFFF;stop-opacity:0"/>
	</linearGradient>
	
		<path opacity="0.84" clip-path="url(#SVGID_00000031907772262473646250000006008316128108656800_)" fill="url(#SVGID_00000165920302874145274410000013521852344382864562_)" d="
		M1129.67,618.59c-23.81,0-47.06,2.08-69.64,5.88c-18.34-170.71-178.65-304.2-373.75-304.2c-199.39,0-362.4,139.42-374.71,315.5
		c-37.23-11.09-76.99-17.18-118.37-17.18c-207.41,0-375.55,150.83-375.55,336.9s168.14,336.9,375.55,336.9
		c55.76,0,108.64-10.99,156.22-30.55c61.29,111.34,189.08,187.95,336.86,187.95c141.32,0,264.35-70.06,328.44-173.54
		c36.24,10.44,74.84,16.14,114.95,16.14c207.41,0,375.55-150.83,375.55-336.9S1337.08,618.59,1129.67,618.59z"/>
	
		<linearGradient id="SVGID_00000077324589748472701340000015929140768145126580_" gradientUnits="userSpaceOnUse" x1="1039.7164" y1="1458.9329" x2="185.4394" y2="2938.584">
		<stop  offset="0" style="stop-color:#F49E2F"/>
		<stop  offset="1" style="stop-color:#B83E16"/>
	</linearGradient>
	
		<path clip-path="url(#SVGID_00000031907772262473646250000006008316128108656800_)" fill="url(#SVGID_00000077324589748472701340000015929140768145126580_)" d="
		M-732.54,1988.93c0,0,1279.22-623.59,2690.23,0v419.67H-732.54V1988.93z"/>
	<path opacity="0.21" clip-path="url(#SVGID_00000031907772262473646250000006008316128108656800_)" fill="#FFFFFF" d="
		M1602.24,1856.06c-410.43-126.51-800.61-156.81-1140.38-140.04c194.41,115.15,431.84,175.32,660.2,202.89
		C1283.58,1939.62,1454.34,1918.62,1602.24,1856.06z"/>
	<g clip-path="url(#SVGID_00000031907772262473646250000006008316128108656800_)">
		<g>
			<defs>
				<path id="SVGID_00000033358519264778923380000010058851512943321221_" d="M760.5,2093.63c-39-15.86-71.94-17.92-98.78-13.3
					c-44.99,7.75-88.94-17.65-97.45-58.03c-17.1-81.2-63.31-177.71-186.31-177.71c-123.01,0-169.21,96.51-186.32,177.71
					c-8.51,40.38-52.46,65.77-97.45,58.03c-26.84-4.62-59.78-2.56-98.78,13.3c-123.93,50.4-86.75,219.39-86.75,219.39h469.29h469.29
					C847.25,2313.02,884.43,2144.03,760.5,2093.63z"/>
			</defs>
			<clipPath id="SVGID_00000023975275624806933120000004227118436036841606_">
				<use xlink:href="#SVGID_00000033358519264778923380000010058851512943321221_"  overflow="visible"/>
			</clipPath>
			
				<linearGradient id="SVGID_00000115487035149278495450000006587179175679336119_" gradientUnits="userSpaceOnUse" x1="377.962" y1="1932.0499" x2="377.962" y2="2241.4126">
				<stop  offset="5.586590e-03" style="stop-color:#FBB814"/>
				<stop  offset="1" style="stop-color:#C1807F"/>
			</linearGradient>
			
				<path clip-path="url(#SVGID_00000023975275624806933120000004227118436036841606_)" fill="url(#SVGID_00000115487035149278495450000006587179175679336119_)" d="
				M760.5,2093.63c-39-15.86-71.94-17.92-98.78-13.3c-44.99,7.75-88.94-17.65-97.45-58.03c-17.1-81.2-63.31-177.71-186.31-177.71
				c-123.01,0-169.21,96.51-186.32,177.71c-8.51,40.38-52.46,65.77-97.45,58.03c-26.84-4.62-59.78-2.56-98.78,13.3
				c-123.93,50.4-86.75,219.39-86.75,219.39h469.29h469.29C847.25,2313.02,884.43,2144.03,760.5,2093.63z"/>
			<path clip-path="url(#SVGID_00000023975275624806933120000004227118436036841606_)" fill="#FFFFFF" d="M378.43,1923.16
				l1.85,109.82l1.39,109.82c0.5,36.61,1.53,73.21,0.93,109.82c-0.85,36.61-1.52,73.21-4.17,109.82h-0.93
				c-2.66-36.61-3.33-73.21-4.17-109.82c-0.61-36.61,0.43-73.21,0.93-109.82l1.39-109.82l1.85-109.82H378.43z"/>
			
				<linearGradient id="SVGID_00000109709013687312582430000006512904785873614208_" gradientUnits="userSpaceOnUse" x1="360.0919" y1="2027.0288" x2="372.003" y2="2455.8391">
				<stop  offset="0" style="stop-color:#E6EB97"/>
				<stop  offset="0.9944" style="stop-color:#6FBC42"/>
			</linearGradient>
			
				<path clip-path="url(#SVGID_00000023975275624806933120000004227118436036841606_)" fill="url(#SVGID_00000109709013687312582430000006512904785873614208_)" d="
				M48.98,2143.03c5.91,18.69,14.69,35.63,24.49,51c4.72,7.94,10.25,14.89,15.6,22.04c2.58,3.71,5.62,6.74,8.48,10.04l8.68,9.73
				c23.84,24.9,51.15,43.06,79.35,56.73l10.61,5.09c3.52,1.75,7.06,3.44,10.73,4.57l21.8,7.71c7.2,2.94,14.7,4.15,22.07,6.05
				l22.19,5.29c14.97,1.86,29.9,4.25,44.88,5.67l45.08,1.47c60.11-0.63,120.26-12.41,176.47-39.65
				c28.06-13.54,55.07-31.66,79.05-55.77c11.81-12.29,23.37-25.28,33.26-40.51c10.17-14.81,19.28-31.26,25.96-49.46l0.87,0.44
				c-5.49,19.32-14.1,36.65-23.62,52.76c-9.51,16.25-20.84,30.28-32.51,43.69c-23.79,26.26-51.35,45.51-79.77,60.62
				c-28.48,15.51-58.63,23.62-88.67,30.35c-15.12,2.45-30.31,4.11-45.45,6.1l-45.58,1.48c-15.19-0.61-30.36-1.63-45.53-2.43
				c-15.13-1.75-30.21-4.48-45.31-6.68l-22.4-5.82c-7.44-2.08-14.99-3.46-22.26-6.58l-21.98-8.26c-3.7-1.22-7.27-3-10.82-4.85
				l-10.69-5.38c-28.36-14.63-55.72-33.8-79.45-59.65l-8.63-10.09c-2.84-3.41-5.86-6.56-8.42-10.38
				c-5.3-7.37-10.76-14.53-15.41-22.69c-9.66-15.81-18.22-33.05-23.94-52.2L48.98,2143.03z"/>
		</g>
		
			<linearGradient id="SVGID_00000021807218730514385190000001741052087164373143_" gradientUnits="userSpaceOnUse" x1="250.9779" y1="533.8524" x2="221.7589" y2="1483.4662">
			<stop  offset="0" style="stop-color:#E74E1B"/>
			<stop  offset="0.9944" style="stop-color:#F7B033"/>
		</linearGradient>
		<path fill="url(#SVGID_00000021807218730514385190000001741052087164373143_)" d="M-246.89,521.92c0,0,17.48-176.4,152.94-211.68
			s251.25,80.36,432.59-49c181.34-129.36,548.38-96.04,517.8,268.51c0,0,251.25,354.75-54.62,613.47
			c-305.87,258.72-249.07,307.71-651.07,307.71s-686.03-278.31-613.93-564.47S-246.89,521.92-246.89,521.92z"/>
		
			<linearGradient id="SVGID_00000109008325195545959370000016979441081557232312_" gradientUnits="userSpaceOnUse" x1="-164.5766" y1="897.0935" x2="-180.2358" y2="1406.0126">
			<stop  offset="0" style="stop-color:#E74E1B"/>
			<stop  offset="0.9944" style="stop-color:#F7B033"/>
		</linearGradient>
		<path fill="url(#SVGID_00000109008325195545959370000016979441081557232312_)" d="M132.6,1110.67
			c49.04-241.95-257.44-296.93-453.59-368.42c-27.21-9.77-52.29-23.61-74.34-40.54c-24.98,48.85-48.91,109.57-67.85,184.76
			c-51.8,205.6,80.28,407.1,307.85,504.27c45.13-18.12,88.45-40.43,128.57-65.62C52.91,1270.14,114.21,1198.65,132.6,1110.67z"/>
		
			<linearGradient id="SVGID_00000054987106500787858410000008075145145199271301_" gradientUnits="userSpaceOnUse" x1="55.7545" y1="831.4893" x2="1647.7737" y2="783.3788">
			<stop  offset="0" style="stop-color:#E74E1B"/>
			<stop  offset="0.9944" style="stop-color:#F7B033"/>
		</linearGradient>
		<path fill="url(#SVGID_00000054987106500787858410000008075145145199271301_)" d="M856.43,529.76
			c30.59-364.55-336.46-397.87-517.8-268.52C157.3,390.6,41.5,274.96-93.95,310.24c-105.07,27.36-139.14,139.59-149.14,188.58
			c18.84,36.14,52.43,64.51,105.99,78.46c257.44,60.49,576.18-49.49,753.94,164.96c61.3,71.48,12.26,175.96-55.17,230.95
			c-128.72,109.98-306.48,159.46-392.29,307.93c-30.63,52.21-39.83,112.66-29.89,169.69c3.75,0.05,7.49,0.12,11.26,0.12
			c402,0,345.2-49,651.07-307.71C1107.68,884.51,856.43,529.76,856.43,529.76z"/>
		
			<linearGradient id="SVGID_00000007429153571402444120000015372643902786991514_" gradientUnits="userSpaceOnUse" x1="242.0818" y1="841.4871" x2="191.1052" y2="1884.5625">
			<stop  offset="0" style="stop-color:#512127"/>
			<stop  offset="0.9944" style="stop-color:#940946"/>
		</linearGradient>
		<path fill="url(#SVGID_00000007429153571402444120000015372643902786991514_)" d="M94.67,597.7c0,0-21.85,197.3,122.18,355.06
			c0,0,134.05-46.64,263.81-275.35c0,0,2.91,151.57-233.04,310.98c0,0-109.97,484.11-18.21,807.5
			c91.76,323.39,78.65,489.99,78.65,489.99H-26.23c0,0,111.42-405.71,133.27-646.79c21.85-241.08,8.74-331.23,8.74-331.23
			S8.73,1218.69,2.18,1031.51c0,0,21.85,152.88,139.83,225.4l50.25-266.55C192.25,990.35,21.11,808.73,94.67,597.7z"/>
		<g>
			<defs>
				<path id="SVGID_00000107563795666938135630000014483835361215608965_" d="M928.03,2108.62c-31.51-12.81-58.13-14.48-79.81-10.75
					c-36.35,6.26-71.86-14.26-78.74-46.89c-13.82-65.61-51.15-143.59-150.54-143.59c-99.39,0-136.72,77.98-150.54,143.59
					c-6.87,32.63-42.39,53.14-78.74,46.89c-21.68-3.73-48.3-2.07-79.81,10.75c-100.14,40.72-70.09,177.27-70.09,177.27h379.18
					h379.18C998.12,2285.89,1028.16,2149.34,928.03,2108.62z"/>
			</defs>
			<clipPath id="SVGID_00000039120216742027424660000004251167032647982999_">
				<use xlink:href="#SVGID_00000107563795666938135630000014483835361215608965_"  overflow="visible"/>
			</clipPath>
			
				<linearGradient id="SVGID_00000031175193102449649380000001567901761174589091_" gradientUnits="userSpaceOnUse" x1="618.9426" y1="1978.0662" x2="618.9426" y2="2228.0276">
				<stop  offset="0" style="stop-color:#D63D76"/>
				<stop  offset="1" style="stop-color:#571C57"/>
			</linearGradient>
			
				<path clip-path="url(#SVGID_00000039120216742027424660000004251167032647982999_)" fill="url(#SVGID_00000031175193102449649380000001567901761174589091_)" d="
				M928.03,2108.62c-31.51-12.81-58.13-14.48-79.81-10.75c-36.35,6.26-71.86-14.26-78.74-46.89
				c-13.82-65.61-51.15-143.59-150.54-143.59c-99.39,0-136.72,77.98-150.54,143.59c-6.87,32.63-42.39,53.14-78.74,46.89
				c-21.68-3.73-48.3-2.07-79.81,10.75c-100.14,40.72-70.09,177.27-70.09,177.27h379.18h379.18
				C998.12,2285.89,1028.16,2149.34,928.03,2108.62z"/>
			<path clip-path="url(#SVGID_00000039120216742027424660000004251167032647982999_)" fill="#FFFFFF" d="M619.32,1970.88l1.5,88.73
				l1.12,88.73c0.4,29.58,1.24,59.16,0.75,88.73c-0.68,29.58-1.22,59.16-3.37,88.73h-0.75c-2.15-29.58-2.69-59.16-3.37-88.73
				c-0.49-29.58,0.34-59.16,0.75-88.73l1.12-88.73l1.5-88.73H619.32z"/>
			<path clip-path="url(#SVGID_00000039120216742027424660000004251167032647982999_)" fill="#FFFFFF" d="M353.13,2148.53
				c4.78,15.1,11.87,28.79,19.78,41.21c3.82,6.42,8.28,12.03,12.6,17.8c2.08,3,4.54,5.45,6.85,8.11l7.01,7.86
				c19.27,20.12,41.33,34.79,64.11,45.83l8.57,4.11c2.85,1.41,5.71,2.78,8.67,3.69l17.61,6.23c5.81,2.38,11.87,3.35,17.83,4.88
				l17.93,4.28c12.1,1.5,24.16,3.43,36.26,4.58l36.43,1.18c48.57-0.51,97.17-10.03,142.59-32.04
				c22.67-10.94,44.49-25.58,63.87-45.06c9.54-9.93,18.88-20.43,26.87-32.73c8.22-11.97,15.58-25.26,20.98-39.97l0.7,0.36
				c-4.43,15.61-11.39,29.61-19.09,42.63c-7.68,13.13-16.84,24.46-26.27,35.3c-19.22,21.22-41.49,36.77-64.45,48.98
				c-23.01,12.54-47.37,19.09-71.64,24.53c-12.22,1.98-24.49,3.32-36.72,4.93l-36.83,1.19c-12.27-0.5-24.53-1.31-36.79-1.96
				c-12.23-1.42-24.41-3.62-36.61-5.39l-18.1-4.7c-6.01-1.68-12.11-2.79-17.99-5.32l-17.76-6.68c-2.99-0.98-5.87-2.43-8.74-3.92
				l-8.64-4.35c-22.91-11.82-45.02-27.31-64.2-48.19l-6.97-8.15c-2.3-2.76-4.74-5.3-6.8-8.39c-4.28-5.96-8.69-11.74-12.45-18.33
				c-7.8-12.78-14.72-26.7-19.34-42.18L353.13,2148.53z"/>
		</g>
		
			<linearGradient id="SVGID_00000010273449423912349970000016422751449468640387_" gradientUnits="userSpaceOnUse" x1="-917.6225" y1="2317.3982" x2="1104.0432" y2="2317.3982">
			<stop  offset="5.586590e-03" style="stop-color:#FBB814"/>
			<stop  offset="1" style="stop-color:#C1807F"/>
		</linearGradient>
		<path fill="url(#SVGID_00000010273449423912349970000016422751449468640387_)" d="M-917.62,2333.9
			c0,29.94,452.57,54.21,1010.83,54.21c558.27,0,1010.83-24.27,1010.83-54.21c0-29.94-452.57-87.22-1010.83-87.22
			C-465.06,2246.69-917.62,2303.97-917.62,2333.9z"/>
		<g>
			<path fill="#FFFFFF" d="M-158.77,1053.07c0,10.46,9.46,18.95,21.12,18.95c11.66,0,21.12-8.48,21.12-18.95
				c0-10.46-9.46-18.95-21.12-18.95C-149.31,1034.12-158.77,1042.61-158.77,1053.07z"/>
			<path fill="#FFFFFF" d="M-225.77,918.49c0,9.02,8.15,16.33,18.21,16.33c10.06,0,18.21-7.31,18.21-16.33
				c0-9.02-8.15-16.33-18.21-16.33C-217.62,902.15-225.77,909.47-225.77,918.49z"/>
			<path fill="#FFFFFF" d="M-273.24,999.76c0,2.67,2.42,4.84,5.4,4.84c2.98,0,5.4-2.17,5.4-4.84s-2.42-4.84-5.4-4.84
				C-270.82,994.92-273.24,997.09-273.24,999.76z"/>
			<path fill="#FFFFFF" d="M-189.36,1004.38c0,5.22,4.72,9.45,10.54,9.45c5.82,0,10.54-4.23,10.54-9.45c0-5.22-4.72-9.46-10.54-9.46
				C-184.64,994.92-189.36,999.16-189.36,1004.38z"/>
			<ellipse fill="#FFFFFF" cx="-225.33" cy="1138.91" rx="17.77" ry="15.94"/>
			<ellipse fill="#FFFFFF" cx="500.68" cy="477.17" rx="20.03" ry="17.97"/>
			<path fill="#FFFFFF" d="M350.29,527.15c0,6.86,6.19,12.41,13.84,12.41c7.64,0,13.84-5.56,13.84-12.41
				c0-6.86-6.2-12.41-13.84-12.41C356.48,514.73,350.29,520.29,350.29,527.15z"/>
			<path fill="#FFFFFF" d="M488.66,567.98c0,12.09,10.92,21.89,24.4,21.89c13.47,0,24.4-9.8,24.4-21.89
				c0-12.09-10.92-21.89-24.4-21.89C499.58,546.09,488.66,555.89,488.66,567.98z"/>
			<ellipse fill="#FFFFFF" cx="427.48" cy="550.01" rx="11.65" ry="10.45"/>
			<path fill="#FFFFFF" d="M329.9,666.96c0,3.25,2.93,5.88,6.55,5.88c3.62,0,6.55-2.63,6.55-5.88c0-3.25-2.93-5.88-6.55-5.88
				C332.83,661.08,329.9,663.71,329.9,666.96z"/>
		</g>
		<g>
			<defs>
				<path id="SVGID_00000140710579817448728000000005883018767964725385_" d="M377.54,2241.64c-31.51-12.81-58.13-14.48-79.81-10.75
					c-36.35,6.26-71.86-14.26-78.74-46.89c-13.82-65.61-51.15-143.59-150.54-143.59c-99.39,0-136.72,77.98-150.54,143.59
					c-6.87,32.63-42.39,53.14-78.74,46.89c-21.68-3.73-48.3-2.07-79.81,10.75c-100.14,40.72-70.1,177.27-70.1,177.27H68.45h379.18
					C447.63,2418.91,477.67,2282.37,377.54,2241.64z"/>
			</defs>
			<clipPath id="SVGID_00000166655239495744471440000018306298377412092351_">
				<use xlink:href="#SVGID_00000140710579817448728000000005883018767964725385_"  overflow="visible"/>
			</clipPath>
			
				<linearGradient id="SVGID_00000174579969385833701850000008562402199888516269_" gradientUnits="userSpaceOnUse" x1="68.4513" y1="2111.0891" x2="68.4513" y2="2361.0508">
				<stop  offset="0" style="stop-color:#D63D76"/>
				<stop  offset="1" style="stop-color:#571C57"/>
			</linearGradient>
			
				<path clip-path="url(#SVGID_00000166655239495744471440000018306298377412092351_)" fill="url(#SVGID_00000174579969385833701850000008562402199888516269_)" d="
				M377.54,2241.64c-31.51-12.81-58.13-14.48-79.81-10.75c-36.35,6.26-71.86-14.26-78.74-46.89
				c-13.82-65.61-51.15-143.59-150.54-143.59c-99.39,0-136.72,77.98-150.54,143.59c-6.87,32.63-42.39,53.14-78.74,46.89
				c-21.68-3.73-48.3-2.07-79.81,10.75c-100.14,40.72-70.1,177.27-70.1,177.27H68.45h379.18
				C447.63,2418.91,477.67,2282.37,377.54,2241.64z"/>
			<path clip-path="url(#SVGID_00000166655239495744471440000018306298377412092351_)" fill="#FFFFFF" d="M68.83,2103.9l1.5,88.73
				l1.12,88.73c0.4,29.58,1.24,59.16,0.75,88.73c-0.68,29.58-1.22,59.16-3.37,88.73h-0.75c-2.15-29.58-2.69-59.16-3.37-88.73
				c-0.49-29.58,0.34-59.15,0.75-88.73l1.12-88.73l1.5-88.73H68.83z"/>
			<path clip-path="url(#SVGID_00000166655239495744471440000018306298377412092351_)" fill="#FFFFFF" d="M-197.36,2281.56
				c4.78,15.1,11.87,28.79,19.78,41.21c3.82,6.42,8.28,12.03,12.6,17.8c2.08,3,4.54,5.45,6.85,8.11l7.01,7.86
				c19.27,20.12,41.33,34.79,64.11,45.83l8.57,4.11c2.85,1.42,5.7,2.78,8.67,3.69l17.61,6.23c5.81,2.38,11.87,3.35,17.83,4.88
				l17.93,4.28c12.1,1.5,24.16,3.43,36.26,4.58l36.43,1.18c48.57-0.51,97.17-10.03,142.59-32.04
				c22.67-10.94,44.49-25.58,63.87-45.06c9.54-9.93,18.88-20.43,26.87-32.73c8.22-11.97,15.58-25.26,20.98-39.97l0.7,0.36
				c-4.43,15.61-11.39,29.61-19.09,42.63c-7.68,13.13-16.84,24.46-26.27,35.3c-19.22,21.22-41.49,36.77-64.45,48.98
				c-23.01,12.54-47.37,19.09-71.64,24.53c-12.22,1.98-24.49,3.32-36.72,4.93l-36.83,1.19c-12.27-0.5-24.53-1.31-36.79-1.96
				c-12.23-1.42-24.41-3.62-36.61-5.39l-18.1-4.7c-6.01-1.68-12.11-2.79-17.99-5.32l-17.76-6.68c-2.99-0.98-5.87-2.43-8.74-3.92
				l-8.64-4.35c-22.91-11.82-45.02-27.31-64.2-48.19l-6.97-8.15c-2.3-2.76-4.74-5.3-6.8-8.39c-4.28-5.96-8.69-11.74-12.45-18.33
				c-7.8-12.78-14.72-26.7-19.34-42.18L-197.36,2281.56z"/>
		</g>
		<g>
			<defs>
				<path id="SVGID_00000029014364811108534820000007174776490878048951_" d="M1311.43,2210.84
					c-31.51-12.81-58.12-14.48-79.81-10.75c-36.35,6.26-71.86-14.26-78.74-46.89c-13.82-65.61-51.15-143.59-150.54-143.59
					s-136.72,77.98-150.54,143.59c-6.87,32.63-42.39,53.15-78.74,46.89c-21.68-3.73-48.3-2.07-79.81,10.75
					c-100.14,40.72-70.09,177.27-70.09,177.27h379.18h379.18C1381.53,2388.11,1411.57,2251.57,1311.43,2210.84z"/>
			</defs>
			<clipPath id="SVGID_00000015347853353564967880000017913547887705606820_">
				<use xlink:href="#SVGID_00000029014364811108534820000007174776490878048951_"  overflow="visible"/>
			</clipPath>
			
				<linearGradient id="SVGID_00000055669730118937645600000011760902008603245978_" gradientUnits="userSpaceOnUse" x1="1002.3473" y1="2080.2896" x2="1002.3473" y2="2330.2512">
				<stop  offset="5.586590e-03" style="stop-color:#FBB814"/>
				<stop  offset="1" style="stop-color:#C1807F"/>
			</linearGradient>
			
				<path clip-path="url(#SVGID_00000015347853353564967880000017913547887705606820_)" fill="url(#SVGID_00000055669730118937645600000011760902008603245978_)" d="
				M1311.43,2210.84c-31.51-12.81-58.12-14.48-79.81-10.75c-36.35,6.26-71.86-14.26-78.74-46.89
				c-13.82-65.61-51.15-143.59-150.54-143.59s-136.72,77.98-150.54,143.59c-6.87,32.63-42.39,53.15-78.74,46.89
				c-21.68-3.73-48.3-2.07-79.81,10.75c-100.14,40.72-70.09,177.27-70.09,177.27h379.18h379.18
				C1381.53,2388.11,1411.57,2251.57,1311.43,2210.84z"/>
			<path clip-path="url(#SVGID_00000015347853353564967880000017913547887705606820_)" fill="#FFFFFF" d="M1002.72,2073.1l1.5,88.73
				l1.12,88.73c0.4,29.58,1.24,59.16,0.75,88.73c-0.68,29.58-1.22,59.16-3.37,88.73h-0.75c-2.15-29.58-2.69-59.16-3.37-88.73
				c-0.49-29.58,0.34-59.15,0.75-88.73l1.12-88.73l1.5-88.73H1002.72z"/>
			<path clip-path="url(#SVGID_00000015347853353564967880000017913547887705606820_)" fill="#FFFFFF" d="M736.53,2250.76
				c4.78,15.1,11.87,28.79,19.78,41.21c3.82,6.42,8.28,12.03,12.6,17.8c2.08,3,4.54,5.45,6.85,8.11l7.01,7.86
				c19.26,20.12,41.32,34.79,64.11,45.83l8.57,4.11c2.85,1.42,5.71,2.78,8.67,3.69l17.61,6.23c5.81,2.38,11.87,3.35,17.83,4.88
				l17.93,4.28c12.1,1.5,24.16,3.43,36.27,4.58l36.43,1.18c48.57-0.51,97.17-10.03,142.58-32.04
				c22.67-10.94,44.49-25.58,63.87-45.06c9.54-9.93,18.88-20.43,26.87-32.73c8.22-11.97,15.58-25.26,20.98-39.97l0.7,0.36
				c-4.43,15.61-11.39,29.61-19.09,42.63c-7.68,13.13-16.84,24.46-26.27,35.3c-19.22,21.22-41.49,36.77-64.45,48.98
				c-23.01,12.54-47.37,19.09-71.64,24.53c-12.22,1.98-24.49,3.32-36.72,4.93l-36.83,1.19c-12.27-0.5-24.53-1.32-36.79-1.96
				c-12.23-1.42-24.41-3.62-36.61-5.4l-18.1-4.7c-6.01-1.68-12.11-2.79-17.99-5.32l-17.76-6.68c-2.99-0.98-5.87-2.43-8.74-3.92
				l-8.64-4.35c-22.91-11.82-45.02-27.31-64.2-48.19l-6.97-8.15c-2.29-2.76-4.74-5.3-6.8-8.39c-4.28-5.96-8.69-11.74-12.45-18.33
				c-7.81-12.78-14.73-26.7-19.34-42.18L736.53,2250.76z"/>
		</g>
	</g>
</g>
</svg>
