<?xml version="1.0" encoding="utf-8"?>
<!-- Generator: Adobe Illustrator 27.2.0, SVG Export Plug-In . SVG Version: 6.00 Build 0)  -->
<svg version="1.1" id="Capa_1" xmlns="http://www.w3.org/2000/svg" xmlns:xlink="http://www.w3.org/1999/xlink" x="0px" y="0px"
	 viewBox="0 0 1080 2340" enable-background="new 0 0 1080 2340" xml:space="preserve">
<g>
	<defs>
		<rect id="SVGID_1_" width="1080" height="2340"/>
	</defs>
	<clipPath id="SVGID_00000026130158888842227940000001340872706359911579_">
		<use xlink:href="#SVGID_1_"  overflow="visible"/>
	</clipPath>
	
		<linearGradient id="SVGID_00000008132047222714864860000007151638579617471399_" gradientUnits="userSpaceOnUse" x1="540" y1="0" x2="540" y2="2340">
		<stop  offset="0" style="stop-color:#D9F7FF"/>
		<stop  offset="1" style="stop-color:#53D4CC"/>
	</linearGradient>
	
		<rect clip-path="url(#SVGID_00000026130158888842227940000001340872706359911579_)" fill="url(#SVGID_00000008132047222714864860000007151638579617471399_)" width="1080" height="2340"/>
	
		<linearGradient id="SVGID_00000165938807045159819190000008694229326300217242_" gradientUnits="userSpaceOnUse" x1="879.1808" y1="503.5234" x2="879.1808" y2="1346.3864">
		<stop  offset="0" style="stop-color:#FFFFFF"/>
		<stop  offset="0.9944" style="stop-color:#FFFFFF;stop-opacity:0"/>
	</linearGradient>
	
		<path clip-path="url(#SVGID_00000026130158888842227940000001340872706359911579_)" fill="url(#SVGID_00000165938807045159819190000008694229326300217242_)" d="
		M1228.59,726.14c-17.76,0-35.12,1.55-51.96,4.38c-13.68-127.39-133.31-227-278.9-227c-148.79,0-270.43,104.03-279.62,235.43
		c-27.78-8.27-57.45-12.82-88.33-12.82c-154.77,0-280.24,112.55-280.24,251.4s125.47,251.4,280.24,251.4
		c41.61,0,81.07-8.2,116.57-22.8c45.74,83.08,141.09,140.25,251.37,140.25c105.45,0,197.26-52.28,245.09-129.5
		c27.04,7.79,55.85,12.04,85.78,12.04c154.77,0,280.24-112.55,280.24-251.4S1383.36,726.14,1228.59,726.14z"/>
	<g clip-path="url(#SVGID_00000026130158888842227940000001340872706359911579_)">
		
			<linearGradient id="SVGID_00000170253933795586887520000004337508406694309526_" gradientUnits="userSpaceOnUse" x1="-278.0135" y1="1260.6826" x2="-53.625" y2="1978.7269">
			<stop  offset="0" style="stop-color:#1C9B7C"/>
			<stop  offset="1" style="stop-color:#06655D"/>
		</linearGradient>
		<path fill="url(#SVGID_00000170253933795586887520000004337508406694309526_)" d="M-821.89,1524.1
			c0,0,1164.11-268.88,1804.85,692.58l-1838.22,275.94L-821.89,1524.1z"/>
		
			<linearGradient id="SVGID_00000145761333448795460100000012194539922551045268_" gradientUnits="userSpaceOnUse" x1="582.6785" y1="1571.2896" x2="615.4327" y2="2496.6038">
			<stop  offset="0" style="stop-color:#B2C557"/>
			<stop  offset="0.9944" style="stop-color:#367006"/>
		</linearGradient>
		<path fill="url(#SVGID_00000145761333448795460100000012194539922551045268_)" d="M-855.26,2081.53
			c0,0,1513.31-776.6,2915.22-320.02v731.11H-855.26V2081.53z"/>
		<path opacity="0.5" fill="#FFFFFF" d="M644.96,1833.36c148.12-60.4,299.78-127.2,430.61-215.52
			c-662.52,5.6-1261.41,190.66-1610.84,325.26c49.62,16.45,100.78,29.78,153.91,38.94C-18,2050.67,326.23,1964.89,644.96,1833.36z"
			/>
	</g>
	<g clip-path="url(#SVGID_00000026130158888842227940000001340872706359911579_)">
		<g>
			<defs>
				<path id="SVGID_00000004522353333619653720000016586773928787874195_" d="M983.96,1539.13c8.37,10.97,27.51,6.15,28.3-7.12
					c3.97-66.56,21.81-168.63,93.96-168.63c77.32,0,63.33,121.25,49.6,188.61c-2.54,12.45,13.2,21.21,24.54,13.69
					c24.42-16.21,58.42-29.58,91.53-11.92c61.73,32.95-40.63,179.46-141.44,179.46H959.32c0,0-175.82-177.36-71.89-227.13
					C929.9,1485.75,962.74,1511.32,983.96,1539.13z"/>
			</defs>
			<clipPath id="SVGID_00000024695987319985700480000007967413329056157083_">
				<use xlink:href="#SVGID_00000004522353333619653720000016586773928787874195_"  overflow="visible"/>
			</clipPath>
			
				<linearGradient id="SVGID_00000128465669048034509050000014071850960004144780_" gradientUnits="userSpaceOnUse" x1="1077.4021" y1="1476.1643" x2="1065.8712" y2="1704.8623">
				<stop  offset="0" style="stop-color:#85BF6C"/>
				<stop  offset="1" style="stop-color:#33A869"/>
			</linearGradient>
			
				<path clip-path="url(#SVGID_00000024695987319985700480000007967413329056157083_)" fill="url(#SVGID_00000128465669048034509050000014071850960004144780_)" d="
				M983.96,1539.13c8.37,10.97,27.51,6.15,28.3-7.12c3.97-66.56,21.81-168.63,93.96-168.63c77.32,0,63.33,121.25,49.6,188.61
				c-2.54,12.45,13.2,21.21,24.54,13.69c24.42-16.21,58.42-29.58,91.53-11.92c61.73,32.95-40.63,179.46-141.44,179.46H959.32
				c0,0-175.82-177.36-71.89-227.13C929.9,1485.75,962.74,1511.32,983.96,1539.13z"/>
			
				<path clip-path="url(#SVGID_00000024695987319985700480000007967413329056157083_)" fill="none" stroke="#FFFFFF" stroke-width="1.0317" stroke-miterlimit="10" d="
				M1112.44,1341.35c0,0-10.55,328.07-69.16,426.92"/>
			
				<line clip-path="url(#SVGID_00000024695987319985700480000007967413329056157083_)" fill="none" stroke="#FFFFFF" stroke-width="1.0317" stroke-miterlimit="10" x1="882.7" y1="1495.93" x2="1016.32" y2="1742.86"/>
			
				<path clip-path="url(#SVGID_00000024695987319985700480000007967413329056157083_)" fill="none" stroke="#FFFFFF" stroke-width="1.0317" stroke-miterlimit="10" d="
				M1283.57,1524.32c0,0-145.35,205.05-188.72,229.23"/>
		</g>
		
			<linearGradient id="SVGID_00000093148447120561808410000015555791763737018263_" gradientUnits="userSpaceOnUse" x1="931.8831" y1="794.2418" x2="915.5067" y2="1326.4744">
			<stop  offset="0" style="stop-color:#B2C557"/>
			<stop  offset="0.9944" style="stop-color:#367006"/>
		</linearGradient>
		<path fill="url(#SVGID_00000093148447120561808410000015555791763737018263_)" d="M590.25,1078.59
			c0,172.28,149.04,230.95,332.89,230.95s332.89-58.66,332.89-230.95s-149.04-481.45-332.89-481.45S590.25,906.31,590.25,1078.59z"
			/>
		
			<linearGradient id="SVGID_00000160893528298222079960000007375774856264763008_" gradientUnits="userSpaceOnUse" x1="1477.2114" y1="588.0607" x2="550.4757" y2="1264.4453">
			<stop  offset="0" style="stop-color:#B2C557"/>
			<stop  offset="0.9944" style="stop-color:#367006"/>
		</linearGradient>
		<path fill="url(#SVGID_00000160893528298222079960000007375774856264763008_)" d="M923.14,597.14
			c-47.92,0-93.47,21.04-134.64,55.15c46.02-15.26,94.62-14.36,141.96,19.1c52.62,41.3,36.17,109.15-6.58,153.41
			c-65.77,76.7-194.02,129.8-184.16,230.11c6.58,44.25,85.5,35.4,118.39,2.95c49.33-50.15,118.39-118,197.31-100.3
			c62.48,14.75,83.74,79.63,81.04,132.49c-2.15,42.19-17.58,116.19-74.82,157.38c-60.45,46.9-147.3,59.24-236.93,55.65
			c31.11,4.43,64.16,6.47,98.42,6.47c183.85,0,332.89-58.66,332.89-230.95S1106.99,597.14,923.14,597.14z"/>
		
			<linearGradient id="SVGID_00000113313000083657973590000000796146016438232480_" gradientUnits="userSpaceOnUse" x1="1034.0299" y1="1158.4153" x2="984.9257" y2="1057.4402">
			<stop  offset="0" style="stop-color:#9B3D41"/>
			<stop  offset="1" style="stop-color:#AF5946"/>
		</linearGradient>
		<path fill="url(#SVGID_00000113313000083657973590000000796146016438232480_)" d="M902.62,1214.12l196.92-260.78l-107.25,171.92
			l107.25-35.23c0,0-82.05,25.24-133.62,84.12c-51.57,58.89-48.06,85.17-48.06,85.17L902.62,1214.12z"/>
		
			<linearGradient id="SVGID_00000101065737402038464360000009257130185254369458_" gradientUnits="userSpaceOnUse" x1="635.2184" y1="1105.3137" x2="586.1141" y2="1004.3386" gradientTransform="matrix(-1 0 0 1 1426.9504 0)">
			<stop  offset="0" style="stop-color:#9B3D41"/>
			<stop  offset="1" style="stop-color:#AF5946"/>
		</linearGradient>
		<path fill="url(#SVGID_00000101065737402038464360000009257130185254369458_)" d="M923.14,1161.02L726.22,900.24l107.25,171.92
			l-107.25-35.23c0,0,82.05,25.24,133.62,84.12c51.57,58.88,48.06,85.17,48.06,85.17L923.14,1161.02z"/>
		
			<linearGradient id="SVGID_00000114056457430509838720000003348829563975222945_" gradientUnits="userSpaceOnUse" x1="990.6443" y1="1526.5267" x2="790.1165" y2="1114.1732">
			<stop  offset="0" style="stop-color:#9B3D41"/>
			<stop  offset="1" style="stop-color:#AF5946"/>
		</linearGradient>
		<path fill="url(#SVGID_00000114056457430509838720000003348829563975222945_)" d="M928.8,849.24c0,0,1.56,429.02,23.44,549.6
			c21.88,120.57,10.94,322.47,10.94,322.47H817.84c0,0,72.75-468.28,81.34-586.05C907.78,1017.48,911.61,910.93,928.8,849.24z"/>
		<g>
			
				<linearGradient id="SVGID_00000149381335033613880860000000862311897662628997_" gradientUnits="userSpaceOnUse" x1="709.2207" y1="1573.3878" x2="709.2207" y2="1699.9446">
				<stop  offset="0" style="stop-color:#1C9B7C"/>
				<stop  offset="1" style="stop-color:#06655D"/>
			</linearGradient>
			<path fill="url(#SVGID_00000149381335033613880860000000862311897662628997_)" d="M830.83,1719.17
				c3.22-10.01,4.98-20.58,4.98-31.52c0-62.72-56.68-113.56-126.59-113.56s-126.59,50.84-126.59,113.56
				c0,10.94,1.76,21.51,4.98,31.52H830.83z"/>
			
				<linearGradient id="SVGID_00000011724614216581014970000006939425532528409006_" gradientUnits="userSpaceOnUse" x1="553.716" y1="1663.1174" x2="553.716" y2="1753.6772">
				<stop  offset="0" style="stop-color:#1C9B7C"/>
				<stop  offset="1" style="stop-color:#06655D"/>
			</linearGradient>
			<path fill="url(#SVGID_00000011724614216581014970000006939425532528409006_)" d="M643.14,1719.17
				c-1.06-43.5-40.67-78.48-89.42-78.48c-48.75,0-88.36,34.98-89.42,78.48H643.14z"/>
			
				<linearGradient id="SVGID_00000120516561242985184010000015193288448010524068_" gradientUnits="userSpaceOnUse" x1="867.0696" y1="1663.1174" x2="867.0696" y2="1753.6772">
				<stop  offset="0" style="stop-color:#1C9B7C"/>
				<stop  offset="1" style="stop-color:#06655D"/>
			</linearGradient>
			<path fill="url(#SVGID_00000120516561242985184010000015193288448010524068_)" d="M956.49,1719.17
				c-1.06-43.5-40.67-78.48-89.42-78.48s-88.36,34.98-89.42,78.48H956.49z"/>
			
				<linearGradient id="SVGID_00000114795520096118047550000001011394480726535334_" gradientUnits="userSpaceOnUse" x1="712.3465" y1="1649.2642" x2="712.3465" y2="1773.9105">
				<stop  offset="0" style="stop-color:#1C9B7C"/>
				<stop  offset="1" style="stop-color:#06655D"/>
			</linearGradient>
			<path fill="url(#SVGID_00000114795520096118047550000001011394480726535334_)" d="M422.44,1730.31
				c0,6.93,129.8,12.54,289.91,12.54s289.91-5.62,289.91-12.54c0-6.93-129.8-30.39-289.91-30.39S422.44,1723.39,422.44,1730.31z"/>
			<g>
				
					<linearGradient id="SVGID_00000129916605768277039290000012657869678409623477_" gradientUnits="userSpaceOnUse" x1="820.3942" y1="1635.5919" x2="900.9952" y2="1717.139">
					<stop  offset="0" style="stop-color:#85BF6C"/>
					<stop  offset="1" style="stop-color:#33A869"/>
				</linearGradient>
				<path fill="url(#SVGID_00000129916605768277039290000012657869678409623477_)" d="M824.68,1663.64c0,7.84,10.5,14.2,23.44,14.2
					c12.95,0,23.44-6.36,23.44-14.2c0-7.84-10.5-14.2-23.44-14.2C835.17,1649.45,824.68,1655.8,824.68,1663.64z"/>
				
					<linearGradient id="SVGID_00000072967342616281414180000009165215407016594569_" gradientUnits="userSpaceOnUse" x1="824.0742" y1="1631.1697" x2="904.6754" y2="1712.717">
					<stop  offset="0" style="stop-color:#85BF6C"/>
					<stop  offset="1" style="stop-color:#33A869"/>
				</linearGradient>
				
					<ellipse fill="url(#SVGID_00000072967342616281414180000009165215407016594569_)" cx="877.13" cy="1684.85" rx="14.75" ry="8.93"/>
			</g>
			<g>
				
					<linearGradient id="SVGID_00000161632475484254118830000009737100048505597116_" gradientUnits="userSpaceOnUse" x1="645.1584" y1="1582.4965" x2="725.7596" y2="1664.0438">
					<stop  offset="0" style="stop-color:#85BF6C"/>
					<stop  offset="1" style="stop-color:#33A869"/>
				</linearGradient>
				<path fill="url(#SVGID_00000161632475484254118830000009737100048505597116_)" d="M649.44,1610.55c0,7.84,10.5,14.2,23.44,14.2
					c12.95,0,23.44-6.36,23.44-14.2c0-7.84-10.5-14.2-23.44-14.2C659.94,1596.35,649.44,1602.71,649.44,1610.55z"/>
				
					<linearGradient id="SVGID_00000062900343516470788160000006291148940838403734_" gradientUnits="userSpaceOnUse" x1="648.8382" y1="1578.0739" x2="729.4398" y2="1659.6216">
					<stop  offset="0" style="stop-color:#85BF6C"/>
					<stop  offset="1" style="stop-color:#33A869"/>
				</linearGradient>
				
					<ellipse fill="url(#SVGID_00000062900343516470788160000006291148940838403734_)" cx="701.89" cy="1631.75" rx="14.75" ry="8.93"/>
			</g>
			<g>
				
					<linearGradient id="SVGID_00000176010827665460522110000011533378180746094523_" gradientUnits="userSpaceOnUse" x1="502.743" y1="1648.8271" x2="583.3434" y2="1730.3735">
					<stop  offset="0" style="stop-color:#85BF6C"/>
					<stop  offset="1" style="stop-color:#33A869"/>
				</linearGradient>
				<path fill="url(#SVGID_00000176010827665460522110000011533378180746094523_)" d="M507.03,1676.88c0,7.84,10.5,14.2,23.44,14.2
					s23.44-6.36,23.44-14.2c0-7.84-10.5-14.2-23.44-14.2S507.03,1669.04,507.03,1676.88z"/>
				
					<linearGradient id="SVGID_00000080194251825928384620000003994315472842858402_" gradientUnits="userSpaceOnUse" x1="506.4235" y1="1644.4054" x2="587.0236" y2="1725.9515">
					<stop  offset="0" style="stop-color:#85BF6C"/>
					<stop  offset="1" style="stop-color:#33A869"/>
				</linearGradient>
				<path fill="url(#SVGID_00000080194251825928384620000003994315472842858402_)" d="M544.73,1698.08c0,4.93,6.6,8.93,14.75,8.93
					c8.15,0,14.75-4,14.75-8.93c0-4.93-6.6-8.93-14.75-8.93C551.33,1689.15,544.73,1693.15,544.73,1698.08z"/>
			</g>
		</g>
		<g>
			<path fill="#FFFFFF" d="M773.1,1144.98c0,2.47-2.23,4.47-4.98,4.47c-2.75,0-4.98-2-4.98-4.47s2.23-4.47,4.98-4.47
				C770.87,1140.51,773.1,1142.51,773.1,1144.98z"/>
			<ellipse fill="#FFFFFF" cx="757.86" cy="1187.83" rx="12.31" ry="11.04"/>
			<path fill="#FFFFFF" d="M817.84,1191.07c0,1.79-1.62,3.24-3.61,3.24c-2,0-3.61-1.45-3.61-3.24s1.62-3.24,3.61-3.24
				C816.22,1187.83,817.84,1189.28,817.84,1191.07z"/>
			<path fill="#FFFFFF" d="M815.89,1155.5c0,1.74-1.57,3.16-3.52,3.16c-1.94,0-3.52-1.41-3.52-3.16c0-1.74,1.57-3.15,3.52-3.15
				C814.31,1152.34,815.89,1153.75,815.89,1155.5z"/>
			<ellipse fill="#FFFFFF" cx="868.78" cy="1189.54" rx="10.4" ry="9.33"/>
			<ellipse fill="#FFFFFF" cx="1001.09" cy="872.9" rx="11.14" ry="9.99"/>
			<ellipse fill="#FFFFFF" cx="1022.77" cy="831.89" rx="6.45" ry="5.78"/>
			<path fill="#FFFFFF" d="M980.57,830.05c0,1.02-0.92,1.84-2.05,1.84c-1.13,0-2.05-0.82-2.05-1.84c0-1.02,0.92-1.84,2.05-1.84
				C979.65,828.21,980.57,829.03,980.57,830.05z"/>
			<path fill="#FFFFFF" d="M1055.59,883.94c0,4.36-3.94,7.89-8.79,7.89c-4.86,0-8.79-3.53-8.79-7.89c0-4.36,3.94-7.89,8.79-7.89
				C1051.65,876.05,1055.59,879.58,1055.59,883.94z"/>
			<path fill="#FFFFFF" d="M1084.89,842.67c0,4.79-4.33,8.67-9.67,8.67s-9.67-3.88-9.67-8.67s4.33-8.68,9.67-8.68
				S1084.89,837.88,1084.89,842.67z"/>
		</g>
	</g>
	<g clip-path="url(#SVGID_00000026130158888842227940000001340872706359911579_)">
		
			<linearGradient id="SVGID_00000064329321329841614550000009828553083185164979_" gradientUnits="userSpaceOnUse" x1="75.3623" y1="989.5264" x2="58.9858" y2="1521.7585">
			<stop  offset="0" style="stop-color:#B2C557"/>
			<stop  offset="0.9944" style="stop-color:#367006"/>
		</linearGradient>
		<path fill="url(#SVGID_00000064329321329841614550000009828553083185164979_)" d="M-266.27,1273.88
			c0,172.28,149.04,230.95,332.89,230.95c183.85,0,332.89-58.66,332.89-230.95S250.47,792.43,66.62,792.43
			C-117.23,792.43-266.27,1101.59-266.27,1273.88z"/>
		
			<linearGradient id="SVGID_00000156580906641696617800000012452380615569815186_" gradientUnits="userSpaceOnUse" x1="620.6906" y1="783.3453" x2="-306.0452" y2="1459.7299">
			<stop  offset="0" style="stop-color:#B2C557"/>
			<stop  offset="0.9944" style="stop-color:#367006"/>
		</linearGradient>
		<path fill="url(#SVGID_00000156580906641696617800000012452380615569815186_)" d="M66.62,792.43
			c-47.92,0-93.47,21.04-134.64,55.15c46.02-15.26,94.62-14.36,141.96,19.1c52.62,41.3,36.17,109.15-6.58,153.41
			c-65.77,76.7-194.02,129.8-184.16,230.11c6.58,44.25,85.5,35.4,118.39,2.95c49.33-50.15,118.39-118,197.31-100.3
			c62.48,14.75,83.74,79.63,81.04,132.49c-2.15,42.2-17.58,116.19-74.82,157.38c-60.45,46.9-147.3,59.24-236.93,55.65
			c31.11,4.43,64.16,6.47,98.42,6.47c183.85,0,332.89-58.66,332.89-230.95S250.47,792.43,66.62,792.43z"/>
		
			<linearGradient id="SVGID_00000083046542339364432880000016713032257667258805_" gradientUnits="userSpaceOnUse" x1="177.5091" y1="1353.7" x2="128.4048" y2="1252.7249">
			<stop  offset="0" style="stop-color:#9B3D41"/>
			<stop  offset="1" style="stop-color:#AF5946"/>
		</linearGradient>
		<path fill="url(#SVGID_00000083046542339364432880000016713032257667258805_)" d="M46.1,1409.4l196.92-260.78l-107.25,171.92
			l107.25-35.23c0,0-82.05,25.24-133.62,84.12c-51.57,58.89-48.06,85.17-48.06,85.17L46.1,1409.4z"/>
		
			<linearGradient id="SVGID_00000089555508532125711800000010684870865341490621_" gradientUnits="userSpaceOnUse" x1="1491.7391" y1="1300.598" x2="1442.6349" y2="1199.6232" gradientTransform="matrix(-1 0 0 1 1426.9504 0)">
			<stop  offset="0" style="stop-color:#9B3D41"/>
			<stop  offset="1" style="stop-color:#AF5946"/>
		</linearGradient>
		<path fill="url(#SVGID_00000089555508532125711800000010684870865341490621_)" d="M66.62,1356.3l-196.92-260.78l107.25,171.92
			l-107.25-35.23c0,0,82.05,25.24,133.62,84.12c51.57,58.88,48.06,85.17,48.06,85.17L66.62,1356.3z"/>
		
			<linearGradient id="SVGID_00000101820800223858982830000014613294902343695245_" gradientUnits="userSpaceOnUse" x1="134.1234" y1="1721.8114" x2="-66.4044" y2="1309.4579">
			<stop  offset="0" style="stop-color:#9B3D41"/>
			<stop  offset="1" style="stop-color:#AF5946"/>
		</linearGradient>
		<path fill="url(#SVGID_00000101820800223858982830000014613294902343695245_)" d="M72.28,1044.52c0,0,1.56,429.02,23.44,549.6
			c21.88,120.57,10.94,322.47,10.94,322.47H-38.68c0,0,72.75-468.28,81.34-586.05C51.26,1212.77,55.09,1106.21,72.28,1044.52z"/>
		<g>
			
				<linearGradient id="SVGID_00000015332748089223960090000006224027676571894159_" gradientUnits="userSpaceOnUse" x1="254.9412" y1="1772.8813" x2="254.9412" y2="1899.4382">
				<stop  offset="0" style="stop-color:#1C9B7C"/>
				<stop  offset="1" style="stop-color:#06655D"/>
			</linearGradient>
			<path fill="url(#SVGID_00000015332748089223960090000006224027676571894159_)" d="M376.56,1918.66
				c3.22-10.01,4.98-20.58,4.98-31.52c0-62.72-56.68-113.56-126.59-113.56s-126.59,50.85-126.59,113.56
				c0,10.94,1.76,21.51,4.98,31.52H376.56z"/>
			
				<linearGradient id="SVGID_00000018226936569048513140000013078794587961749943_" gradientUnits="userSpaceOnUse" x1="99.4365" y1="1862.6115" x2="99.4365" y2="1953.1705">
				<stop  offset="0" style="stop-color:#1C9B7C"/>
				<stop  offset="1" style="stop-color:#06655D"/>
			</linearGradient>
			<path fill="url(#SVGID_00000018226936569048513140000013078794587961749943_)" d="M188.86,1918.66
				c-1.06-43.5-40.67-78.48-89.42-78.48s-88.36,34.98-89.42,78.48H188.86z"/>
			
				<linearGradient id="SVGID_00000095330569662284882490000017682685584689905084_" gradientUnits="userSpaceOnUse" x1="412.7901" y1="1862.6115" x2="412.7901" y2="1953.1705">
				<stop  offset="0" style="stop-color:#1C9B7C"/>
				<stop  offset="1" style="stop-color:#06655D"/>
			</linearGradient>
			<path fill="url(#SVGID_00000095330569662284882490000017682685584689905084_)" d="M502.21,1918.66
				c-1.06-43.5-40.67-78.48-89.42-78.48s-88.36,34.98-89.42,78.48H502.21z"/>
			
				<linearGradient id="SVGID_00000123409008004232850260000004831031772194516630_" gradientUnits="userSpaceOnUse" x1="258.067" y1="1848.7583" x2="258.067" y2="1973.4048">
				<stop  offset="0" style="stop-color:#1C9B7C"/>
				<stop  offset="1" style="stop-color:#06655D"/>
			</linearGradient>
			<path fill="url(#SVGID_00000123409008004232850260000004831031772194516630_)" d="M-31.84,1929.81
				c0,6.93,129.8,12.54,289.91,12.54s289.91-5.62,289.91-12.54c0-6.93-129.8-30.39-289.91-30.39S-31.84,1922.88-31.84,1929.81z"/>
			<g>
				
					<linearGradient id="SVGID_00000174573518999636039900000015348125416604029575_" gradientUnits="userSpaceOnUse" x1="366.1147" y1="1835.0858" x2="446.7159" y2="1916.6331">
					<stop  offset="0" style="stop-color:#85BF6C"/>
					<stop  offset="1" style="stop-color:#33A869"/>
				</linearGradient>
				<path fill="url(#SVGID_00000174573518999636039900000015348125416604029575_)" d="M370.4,1863.14c0,7.84,10.5,14.2,23.44,14.2
					c12.95,0,23.44-6.36,23.44-14.2c0-7.84-10.5-14.2-23.44-14.2C380.89,1848.94,370.4,1855.3,370.4,1863.14z"/>
				
					<linearGradient id="SVGID_00000014606501587817519570000005688276109461076103_" gradientUnits="userSpaceOnUse" x1="369.7946" y1="1830.6636" x2="450.3958" y2="1912.2109">
					<stop  offset="0" style="stop-color:#85BF6C"/>
					<stop  offset="1" style="stop-color:#33A869"/>
				</linearGradient>
				
					<ellipse fill="url(#SVGID_00000014606501587817519570000005688276109461076103_)" cx="422.85" cy="1884.34" rx="14.75" ry="8.93"/>
			</g>
			<g>
				
					<linearGradient id="SVGID_00000076563597788082558510000016068397102087186054_" gradientUnits="userSpaceOnUse" x1="190.8789" y1="1781.9905" x2="271.4801" y2="1863.5378">
					<stop  offset="0" style="stop-color:#85BF6C"/>
					<stop  offset="1" style="stop-color:#33A869"/>
				</linearGradient>
				<path fill="url(#SVGID_00000076563597788082558510000016068397102087186054_)" d="M195.16,1810.04c0,7.84,10.5,14.2,23.44,14.2
					c12.95,0,23.44-6.36,23.44-14.2c0-7.84-10.5-14.2-23.44-14.2C205.66,1795.85,195.16,1802.2,195.16,1810.04z"/>
				
					<linearGradient id="SVGID_00000054247495228936922110000004200043020301274547_" gradientUnits="userSpaceOnUse" x1="194.5583" y1="1777.5675" x2="275.1604" y2="1859.1158">
					<stop  offset="0" style="stop-color:#85BF6C"/>
					<stop  offset="1" style="stop-color:#33A869"/>
				</linearGradient>
				
					<ellipse fill="url(#SVGID_00000054247495228936922110000004200043020301274547_)" cx="247.62" cy="1831.25" rx="14.75" ry="8.93"/>
			</g>
			<g>
				
					<linearGradient id="SVGID_00000125600175723624935130000011711197157792598657_" gradientUnits="userSpaceOnUse" x1="48.4635" y1="1848.321" x2="129.064" y2="1929.8677">
					<stop  offset="0" style="stop-color:#85BF6C"/>
					<stop  offset="1" style="stop-color:#33A869"/>
				</linearGradient>
				
					<ellipse fill="url(#SVGID_00000125600175723624935130000011711197157792598657_)" cx="76.19" cy="1876.37" rx="23.44" ry="14.2"/>
				
					<linearGradient id="SVGID_00000115495948796435800600000017062606536736694656_" gradientUnits="userSpaceOnUse" x1="52.144" y1="1843.8993" x2="132.7441" y2="1925.4454">
					<stop  offset="0" style="stop-color:#85BF6C"/>
					<stop  offset="1" style="stop-color:#33A869"/>
				</linearGradient>
				<path fill="url(#SVGID_00000115495948796435800600000017062606536736694656_)" d="M90.45,1897.58c0,4.93,6.6,8.93,14.75,8.93
					c8.15,0,14.75-4,14.75-8.93c0-4.93-6.6-8.93-14.75-8.93C97.05,1888.65,90.45,1892.65,90.45,1897.58z"/>
			</g>
		</g>
		<g>
			<path fill="#FFFFFF" d="M-83.42,1340.26c0,2.47-2.23,4.47-4.98,4.47s-4.98-2-4.98-4.47s2.23-4.47,4.98-4.47
				S-83.42,1337.8-83.42,1340.26z"/>
			<ellipse fill="#FFFFFF" cx="-98.66" cy="1383.11" rx="12.31" ry="11.04"/>
			<path fill="#FFFFFF" d="M-38.68,1386.36c0,1.79-1.62,3.24-3.61,3.24c-2,0-3.61-1.45-3.61-3.24c0-1.79,1.62-3.24,3.61-3.24
				C-40.3,1383.11-38.68,1384.57-38.68,1386.36z"/>
			<path fill="#FFFFFF" d="M-40.63,1350.78c0,1.74-1.57,3.15-3.52,3.15c-1.94,0-3.52-1.41-3.52-3.15c0-1.74,1.57-3.15,3.52-3.15
				C-42.21,1347.63-40.63,1349.04-40.63,1350.78z"/>
			<ellipse fill="#FFFFFF" cx="12.26" cy="1384.82" rx="10.4" ry="9.33"/>
			<path fill="#FFFFFF" d="M155.7,1068.18c0,5.52-4.99,9.99-11.14,9.99c-6.15,0-11.14-4.47-11.14-9.99c0-5.52,4.99-9.99,11.14-9.99
				C150.71,1058.19,155.7,1062.67,155.7,1068.18z"/>
			<ellipse fill="#FFFFFF" cx="166.25" cy="1027.17" rx="6.45" ry="5.78"/>
			<ellipse fill="#FFFFFF" cx="122" cy="1025.33" rx="2.05" ry="1.84"/>
			<path fill="#FFFFFF" d="M199.07,1079.22c0,4.36-3.94,7.89-8.79,7.89c-4.86,0-8.79-3.53-8.79-7.89c0-4.36,3.94-7.89,8.79-7.89
				C195.13,1071.34,199.07,1074.87,199.07,1079.22z"/>
			<path fill="#FFFFFF" d="M228.37,1037.95c0,4.79-4.33,8.68-9.67,8.68c-5.34,0-9.67-3.88-9.67-8.68c0-4.79,4.33-8.67,9.67-8.67
				C224.04,1029.28,228.37,1033.16,228.37,1037.95z"/>
		</g>
	</g>
	<g clip-path="url(#SVGID_00000026130158888842227940000001340872706359911579_)">
		<path fill="#FFFFFF" d="M546.35,2157.51c0,33.27,36.21,94.46,80.88,94.46c44.67,0,80.88-61.19,80.88-94.46
			c0-33.27-36.21-60.24-80.88-60.24C582.56,2097.27,546.35,2124.24,546.35,2157.51z"/>
		<path fill="#FFFFFF" d="M692.6,2152.88c-26.22,23.52-48.85,89.76-17.27,118.1c31.59,28.34,105.42,8.04,131.65-15.49
			s21.87-65.56-9.71-93.9C765.69,2133.26,718.83,2129.36,692.6,2152.88z"/>
		<path fill="#FFFFFF" d="M799.67,2242.38c-37.08,0-105.3,32.48-105.3,72.56c0,40.07,68.21,72.56,105.3,72.56
			c37.08,0,67.15-32.48,67.15-72.56C866.82,2274.87,836.75,2242.38,799.67,2242.38z"/>
		<path fill="#FFFFFF" d="M804.83,2373.59c-26.22-23.52-100.06-43.82-131.65-15.49c-31.59,28.33-8.96,94.58,17.27,118.1
			c26.22,23.52,73.08,19.62,104.67-8.71C826.7,2439.15,831.05,2397.11,804.83,2373.59z"/>
		<path fill="#FFFFFF" d="M705.06,2469.64c0-33.27-36.21-94.46-80.88-94.46c-44.67,0-80.88,61.19-80.88,94.46
			c0,33.27,36.21,60.24,80.88,60.24C668.84,2529.87,705.06,2502.9,705.06,2469.64z"/>
		<path fill="#FFFFFF" d="M558.8,2474.26c26.22-23.52,48.85-89.76,17.27-118.1c-31.59-28.34-105.43-8.04-131.65,15.49
			c-26.22,23.52-21.87,65.56,9.71,93.9C485.71,2493.89,532.58,2497.79,558.8,2474.26z"/>
		<path fill="#FFFFFF" d="M451.73,2384.76c37.08,0,105.3-32.49,105.3-72.56c0-40.07-68.21-72.56-105.3-72.56
			c-37.08,0-67.15,32.48-67.15,72.56C384.59,2352.27,414.65,2384.76,451.73,2384.76z"/>
		<path fill="#FFFFFF" d="M446.58,2253.55c26.22,23.52,100.06,43.82,131.65,15.49c31.59-28.34,8.96-94.58-17.27-118.1
			s-73.08-19.62-104.67,8.71C424.7,2187.99,420.35,2230.03,446.58,2253.55z"/>
		
			<linearGradient id="SVGID_00000080916305984989555440000004961292977185869444_" gradientUnits="userSpaceOnUse" x1="500.8469" y1="2312.2029" x2="747.5049" y2="2312.2029">
			<stop  offset="0" style="stop-color:#E74E1B"/>
			<stop  offset="0.9944" style="stop-color:#F7B033"/>
		</linearGradient>
		
			<ellipse fill="url(#SVGID_00000080916305984989555440000004961292977185869444_)" cx="624.18" cy="2312.2" rx="123.33" ry="110.64"/>
	</g>
	<g clip-path="url(#SVGID_00000026130158888842227940000001340872706359911579_)">
		<path fill="#FFFFFF" d="M983.46,2011.71c0,18.08,19.68,51.34,43.96,51.34c24.28,0,43.96-33.26,43.96-51.34
			s-19.68-32.74-43.96-32.74C1003.14,1978.97,983.46,1993.63,983.46,2011.71z"/>
		<path fill="#FFFFFF" d="M1062.95,2009.2c-14.25,12.79-26.55,48.79-9.38,64.19c17.17,15.4,57.3,4.37,71.55-8.42
			c14.25-12.79,11.89-35.64-5.28-51.04C1102.68,1998.53,1077.2,1996.41,1062.95,2009.2z"/>
		<path fill="#FFFFFF" d="M1121.15,2057.84c-20.16,0-57.23,17.66-57.23,39.44c0,21.78,37.08,39.44,57.23,39.44
			c20.16,0,36.5-17.66,36.5-39.44C1157.64,2075.5,1141.3,2057.84,1121.15,2057.84z"/>
		<path fill="#FFFFFF" d="M1123.95,2129.16c-14.25-12.79-54.39-23.82-71.55-8.42c-17.17,15.4-4.87,51.4,9.38,64.19
			c14.25,12.79,39.72,10.67,56.89-4.74C1135.84,2164.79,1138.2,2141.94,1123.95,2129.16z"/>
		<path fill="#FFFFFF" d="M1069.72,2181.36c0-18.08-19.68-51.34-43.96-51.34c-24.28,0-43.96,33.26-43.96,51.34
			s19.68,32.74,43.96,32.74C1050.04,2214.1,1069.72,2199.45,1069.72,2181.36z"/>
		<path fill="#FFFFFF" d="M990.23,2183.88c14.25-12.79,26.55-48.79,9.38-64.19c-17.17-15.4-57.3-4.37-71.55,8.42
			c-14.25,12.79-11.89,35.64,5.28,51.04C950.5,2194.54,975.97,2196.66,990.23,2183.88z"/>
		<path fill="#FFFFFF" d="M932.03,2135.23c20.16,0,57.23-17.66,57.23-39.44c0-21.78-37.08-39.44-57.23-39.44
			c-20.16,0-36.5,17.66-36.5,39.44C895.54,2117.57,911.88,2135.23,932.03,2135.23z"/>
		<path fill="#FFFFFF" d="M929.23,2063.92c14.25,12.79,54.39,23.82,71.55,8.42c17.17-15.4,4.87-51.4-9.38-64.19
			c-14.25-12.79-39.72-10.67-56.89,4.74C917.34,2028.28,914.98,2051.13,929.23,2063.92z"/>
		
			<linearGradient id="SVGID_00000013184701860208483730000017899224841418167691_" gradientUnits="userSpaceOnUse" x1="958.7269" y1="2095.793" x2="1092.792" y2="2095.793">
			<stop  offset="0" style="stop-color:#E74E1B"/>
			<stop  offset="0.9944" style="stop-color:#F7B033"/>
		</linearGradient>
		
			<ellipse fill="url(#SVGID_00000013184701860208483730000017899224841418167691_)" cx="1025.76" cy="2095.79" rx="67.03" ry="60.13"/>
	</g>
	<g clip-path="url(#SVGID_00000026130158888842227940000001340872706359911579_)">
		<path fill="#FFFFFF" d="M656.13,1932.07c0,12.21,13.29,34.66,29.68,34.66c16.39,0,29.68-22.45,29.68-34.66
			c0-12.21-13.29-22.1-29.68-22.1C669.42,1909.97,656.13,1919.86,656.13,1932.07z"/>
		<path fill="#FFFFFF" d="M709.8,1930.37c-9.62,8.63-17.92,32.94-6.34,43.33c11.59,10.4,38.68,2.95,48.3-5.68
			c9.62-8.63,8.03-24.06-3.56-34.45C736.61,1923.17,719.42,1921.74,709.8,1930.37z"/>
		<path fill="#FFFFFF" d="M749.08,1963.22c-13.61,0-38.64,11.92-38.64,26.62c0,14.7,25.03,26.62,38.64,26.62
			c13.61,0,24.64-11.92,24.64-26.62C773.72,1975.13,762.69,1963.22,749.08,1963.22z"/>
		<path fill="#FFFFFF" d="M750.97,2011.36c-9.62-8.63-36.71-16.08-48.3-5.68c-11.59,10.4-3.29,34.7,6.34,43.33
			c9.62,8.63,26.82,7.2,38.41-3.2C759,2035.41,760.6,2019.99,750.97,2011.36z"/>
		<path fill="#FFFFFF" d="M714.37,2046.6c0-12.21-13.29-34.66-29.68-34.66c-16.39,0-29.68,22.45-29.68,34.66
			c0,12.21,13.29,22.1,29.68,22.1C701.08,2068.7,714.37,2058.81,714.37,2046.6z"/>
		<path fill="#FFFFFF" d="M660.7,2048.3c9.62-8.63,17.92-32.94,6.34-43.33c-11.59-10.4-38.68-2.95-48.3,5.68
			c-9.62,8.63-8.03,24.06,3.56,34.45C633.88,2055.5,651.08,2056.93,660.7,2048.3z"/>
		<path fill="#FFFFFF" d="M621.42,2015.46c13.61,0,38.64-11.92,38.64-26.62c0-14.7-25.03-26.62-38.64-26.62
			c-13.61,0-24.64,11.92-24.64,26.62C596.78,2003.54,607.81,2015.46,621.42,2015.46z"/>
		<path fill="#FFFFFF" d="M619.52,1967.31c9.62,8.63,36.71,16.08,48.3,5.68c11.59-10.4,3.29-34.7-6.34-43.33
			c-9.62-8.63-26.82-7.2-38.41,3.2C611.5,1943.26,609.9,1958.68,619.52,1967.31z"/>
		
			<linearGradient id="SVGID_00000075860335015301311990000017199120633570431167_" gradientUnits="userSpaceOnUse" x1="639.4362" y1="1988.8335" x2="729.9415" y2="1988.8335">
			<stop  offset="0" style="stop-color:#E74E1B"/>
			<stop  offset="0.9944" style="stop-color:#F7B033"/>
		</linearGradient>
		<path fill="url(#SVGID_00000075860335015301311990000017199120633570431167_)" d="M639.44,1988.83c0,22.42,20.26,40.6,45.25,40.6
			c24.99,0,45.25-18.18,45.25-40.6c0-22.42-20.26-40.6-45.25-40.6C659.7,1948.24,639.44,1966.41,639.44,1988.83z"/>
	</g>
	<g clip-path="url(#SVGID_00000026130158888842227940000001340872706359911579_)">
		<path fill="#FFFFFF" d="M203.31,2095.66c0,19.47,21.19,55.28,47.33,55.28s47.33-35.81,47.33-55.28
			c0-19.47-21.19-35.25-47.33-35.25S203.31,2076.2,203.31,2095.66z"/>
		<path fill="#FFFFFF" d="M288.9,2092.96c-15.35,13.77-28.59,52.53-10.1,69.11c18.48,16.58,61.69,4.7,77.04-9.06
			c15.34-13.77,12.8-38.37-5.68-54.95C331.67,2081.47,304.25,2079.19,288.9,2092.96z"/>
		<path fill="#FFFFFF" d="M351.56,2145.33c-21.7,0-61.62,19.01-61.62,42.46c0,23.45,39.92,42.46,61.62,42.46
			s39.29-19.01,39.29-42.46C390.85,2164.34,373.26,2145.33,351.56,2145.33z"/>
		<path fill="#FFFFFF" d="M354.57,2222.12c-15.35-13.77-58.55-25.65-77.04-9.06c-18.48,16.58-5.24,55.35,10.1,69.11
			c15.35,13.77,42.77,11.48,61.25-5.1C367.37,2260.48,369.92,2235.88,354.57,2222.12z"/>
		<path fill="#FFFFFF" d="M296.19,2278.32c0-19.47-21.19-55.28-47.33-55.28s-47.33,35.81-47.33,55.28
			c0,19.47,21.19,35.25,47.33,35.25S296.19,2297.79,296.19,2278.32z"/>
		<path fill="#FFFFFF" d="M210.6,2281.03c15.35-13.77,28.59-52.53,10.1-69.11s-61.69-4.7-77.04,9.06
			c-15.35,13.77-12.8,38.37,5.68,54.95S195.25,2294.8,210.6,2281.03z"/>
		<path fill="#FFFFFF" d="M147.94,2228.65c21.7,0,61.62-19.01,61.62-42.46c0-23.45-39.92-42.46-61.62-42.46
			c-21.7,0-39.29,19.01-39.29,42.46C108.65,2209.64,126.24,2228.65,147.94,2228.65z"/>
		<path fill="#FFFFFF" d="M144.93,2151.87c15.35,13.77,58.55,25.65,77.04,9.06c18.48-16.58,5.24-55.35-10.1-69.11
			c-15.35-13.77-42.77-11.48-61.25,5.1S129.58,2138.11,144.93,2151.87z"/>
		
			<linearGradient id="SVGID_00000103951021955730366960000002841544767474977698_" gradientUnits="userSpaceOnUse" x1="176.686" y1="2186.1921" x2="321.0284" y2="2186.1921">
			<stop  offset="0" style="stop-color:#E74E1B"/>
			<stop  offset="0.9944" style="stop-color:#F7B033"/>
		</linearGradient>
		
			<ellipse fill="url(#SVGID_00000103951021955730366960000002841544767474977698_)" cx="248.86" cy="2186.19" rx="72.17" ry="64.74"/>
	</g>
</g>
</svg>
