<?xml version="1.0" encoding="utf-8"?>
<!-- Generator: Adobe Illustrator 27.2.0, SVG Export Plug-In . SVG Version: 6.00 Build 0)  -->
<svg version="1.1" id="Capa_1" xmlns="http://www.w3.org/2000/svg" xmlns:xlink="http://www.w3.org/1999/xlink" x="0px" y="0px"
	 viewBox="0 0 279.6 292.8" enable-background="new 0 0 279.6 292.8" xml:space="preserve">
<g>
	<path fill-rule="evenodd" clip-rule="evenodd" fill="#FFFDE3" d="M277.33,205.6c-4.84-13.5-12.46-17.61-19.7-26.27
		c-8.85-10.58-14.82-18.26-12.52-31.86c3.75-22.23,5.36-77.66-53.43-70.41c-21.07,2.6-37.72,18.76-49.84,34.89
		c-10.31,13.73-28.85,14.94-43.78,18.14c-18.34,3.93-37.02,9.87-53.98,18.58C9.14,166.59-1.3,192.35,0.13,225.32
		c0.43,9.96,1.84,25.65,18.65,44.01c22.69,24.78,55.66,28.1,95.35,16.72c9.08-2.6,17.67-6.69,26.61-9.77
		c9.28-3.2,18.94-5.29,28.72-6.24c22.79-2.21,46.42,1.78,68.29-5.03c11.56-3.6,22.18-10.19,30.54-18.96
		C278.72,235.11,282.44,219.85,277.33,205.6z"/>
	<g>
		<g>
			<path fill-rule="evenodd" clip-rule="evenodd" fill="#F36E3D" d="M89.53,104.43c0,0-5.96-8.73-8.08-9.79
				c-2.12-1.06,5.24-5.8,5.24-5.8l9.51,12.61L89.53,104.43z"/>
			<path fill-rule="evenodd" clip-rule="evenodd" fill="#F36E3D" d="M124.99,273.49c0,0,0.54,3.65-3.38,5.54
				c-3.92,1.89-7.44,3.78-7.44,5.94c0,2.16,24.34,1.35,24.34,0c0-1.35-4.6-12.83-4.6-12.83L124.99,273.49z"/>
			<path fill-rule="evenodd" clip-rule="evenodd" fill="#F36E3D" d="M152.98,274.03v7.7c0,0,8.92,6.08,17.17,6.08
				c0,0,6.63,0.24,6.63-1.5c0-1.74-4.61-4.91-10.18-7.64c-5.57-2.72-5.32-9-5.32-9l-8.29,1.39V274.03z"/>
			<path fill-rule="evenodd" clip-rule="evenodd" fill="#233883" d="M120.26,74.83c0,0-3.78-0.13-5.95,5.13
				c-2.16,5.27-5.68,25.66-9.6,27.01c-3.92,1.35-10.68-9.59-10.68-9.59l-6.76,4.59c0,0,10.55,27.82,20.42,26.74
				c9.87-1.08,12.84-32.55,14.74-39.44C124.31,82.39,120.26,74.83,120.26,74.83z"/>
			<path fill-rule="evenodd" clip-rule="evenodd" fill="#FBC318" d="M156.29,160.32c-2.64-13.24-45.45-8.93-44.82,1.62
				c0,0,1.35,25.93,4.06,54.56c2.7,28.63,8.11,58.34,8.11,58.34h11.84c0,0-6.52-91.9-3.33-95.08c0.91-0.91,1.9-1.28,2.85-1.34
				c2.43-0.16,4.53,1.72,4.86,4.14l12.45,93.36l10.82-1.08C163.12,274.84,158.93,173.55,156.29,160.32z"/>
			<path opacity="0.5294" fill-rule="evenodd" clip-rule="evenodd" fill="#0B6DB7" d="M111.79,167.48
				c4.76,1.45,31.15,6.06,45.65,2.59c-0.4-4.55-0.78-7.96-1.14-9.75c-2.64-13.24-45.45-8.93-44.82,1.62
				C111.47,161.99,111.56,163.73,111.79,167.48z"/>
			<path fill-rule="evenodd" clip-rule="evenodd" fill="#D9A429" d="M129.65,234.32c1.06,17.41,2.37,30.62,3.66,40.52h2.17
				c0,0-6.52-91.9-3.33-95.08C132.14,179.76,126.42,181.19,129.65,234.32z"/>
			<path fill-rule="evenodd" clip-rule="evenodd" fill="#234BA0" d="M128.78,72.94c0,0-7.44,1.89-8.52,1.89
				c-1.08,0-16.22,69.96-14.74,76.98c1.49,7.02,4.73,12.7,4.73,12.7s36.51,6.89,49.76-1.22c0,0-1.62-34.98-1.62-47.13
				s9.73-35.11,6.49-39.71c-3.25-4.59-15.96-7.16-15.96-7.16L128.78,72.94z"/>
			<path fill-rule="evenodd" clip-rule="evenodd" fill="#396CB5" d="M143.78,62.67c-0.68,0-14.47-0.67-19.74,3.11
				c-5.27,3.78-4.12,7.09-2.03,9.18c2.1,2.09,15.99,3.19,15.99,3.19s-7.34-6.29-5.86-7.76c1.48-1.47,15.5-2.32,16.38,0
				c0.24,0.63-8.4,7.77-8.4,7.77s11.9-0.86,15.53-3.33c4.09-2.77,3.92-6.79-0.12-9.86C153.43,63.36,143.78,62.67,143.78,62.67z"/>
			<path fill-rule="evenodd" clip-rule="evenodd" fill="#1763AF" d="M140.13,78.16c0,0,17.49-8.97,9.49-12.25
				c-8-3.28-22.56,2.3-21.13,5.87c1.44,3.56,9.51,6.38,9.51,6.38s-7.34-6.29-5.86-7.76c1.48-1.47,15.5-2.32,16.38,0
				C148.77,71.03,140.13,78.16,140.13,78.16z"/>
			<path fill-rule="evenodd" clip-rule="evenodd" fill="#F04923" d="M130.26,65.51c0,0,1.69,5.47,1.69,6.85
				c0,1.39,3.99,5.98,7.23,5.98c3.25,0,9.58-7.94,9.58-7.94L145,51.2L130.26,65.51z"/>
			<path opacity="0.6784" fill-rule="evenodd" clip-rule="evenodd" fill="#EF4423" d="M145.95,56.03L145,51.2l-14.74,14.3
				c0,0,1.69,5.47,1.69,6.85c0,0.33,0.23,0.84,0.62,1.43c0.49-0.08,0.99-0.21,1.48-0.39C138.41,71.83,143.89,63.74,145.95,56.03z"/>
			<path fill-rule="evenodd" clip-rule="evenodd" fill="#F36E3D" d="M117.55,46.74c0,0-0.81,6.08,2.7,14.05
				c3.52,7.97,8.78,10.81,13.79,9.16c5.01-1.65,11.49-11.19,12.57-19.02c1.08-7.83-2.43-15.13-8.92-17.96
				C131.21,30.12,117.55,33.36,117.55,46.74z"/>
			<path fill-rule="evenodd" clip-rule="evenodd" fill="#161A5E" d="M136.42,45.5c3.7,3.89,3.64,4.67,3.64,4.67
				c2.63-5.9,3.89-2.14,4.05,0.13c0.26,3.65-2.11,3.45-1.93,3.65c1.59,5.81,4.64,6.51,4.64,6.51c2.65-4.17,3.4-5.62,1.95-8.15
				c0.89-2.33,2.51-3.81-1.95-7.59C142.84,40.05,136.42,45.5,136.42,45.5z"/>
			<path opacity="0.6784" fill-rule="evenodd" clip-rule="evenodd" fill="#EF4423" d="M139.52,44.73c0,0-14.83,1.69-21.84-0.12
				c-0.08,0.68-0.12,1.39-0.12,2.13c0,0-0.58,4.37,1.38,10.55c0.94-0.16,1.93-0.38,2.95-0.67
				C133.37,53.33,139.52,44.73,139.52,44.73z"/>
			<path fill-rule="evenodd" clip-rule="evenodd" fill="#FBC112" d="M134.19,27.69c0,0-8.05-0.13-12.55,2.84
				c-4.49,2.97-7.33,7.83-6.38,13.1l3.79,2.43h15.14l5.33-1.62l7.3,0.27c0,0,1.29-6.62-1.14-10.53
				C143.24,30.26,139.46,27.69,134.19,27.69z"/>
			<path fill-rule="evenodd" clip-rule="evenodd" fill="#F68B1F" d="M145.68,34.18c-0.53-0.86-1.13-1.65-1.79-2.36
				c-0.33,1.33-1.3,3.26-3.83,5.79c-4.05,4.04-18.19,4.18-24.98,3.99c0,0.67,0.06,1.35,0.18,2.04l3.79,2.43h15.14l5.33-1.62
				l7.3,0.27C146.82,44.71,148.11,38.09,145.68,34.18z"/>
			<g>
				<path fill-rule="evenodd" clip-rule="evenodd" fill="#0C1D53" d="M138.16,280.63c0,0,0.32,1.88,1.1,5.07c0.79,3.2,0,6.12,0,6.12
					s-32.74-0.42-33.99-1.53c-1.26-1.11-0.35-4.83,0-5.14c0.35-0.31,4.56-1.18,6.77-2.36c2.2-1.18,9.76-5.7,12.2-5.35
					c2.44,0.35,3.46,2.22,8.11,2.71C136.98,280.63,137.06,279.66,138.16,280.63z"/>
				<path fill-rule="evenodd" clip-rule="evenodd" fill="#6C8CC7" d="M105.27,290.29c1.26,1.11,33.99,1.53,33.99,1.53
					s0.52-1.92,0.29-4.34c-17.23,2.13-34.29-2.33-34.29-2.33C104.92,285.46,104.01,289.18,105.27,290.29z"/>
				<path fill-rule="evenodd" clip-rule="evenodd" fill="#8FB7BB" d="M139.56,287.48c-11.78,1.62-24.65,0.36-34.29-2.33
					c17.61,3.75,32.06,2.53,31.06,2.57C136.38,287.72,139.78,287.46,139.56,287.48z"/>
			</g>
			<g>
				<path fill-rule="evenodd" clip-rule="evenodd" fill="#0C1D53" d="M152.08,280.37c0,0-0.42,1.86-1.4,5
					c-0.97,3.14-0.36,6.11-0.36,6.11s32.7,1.51,34.03,0.47c1.32-1.04,0.64-4.8,0.3-5.13c-0.33-0.33-4.49-1.45-6.62-2.76
					c-2.13-1.31-9.41-6.26-11.86-6.06c-2.46,0.2-3.59,2.02-8.25,2.23C153.26,280.44,153.24,279.46,152.08,280.37z"/>
				<path fill-rule="evenodd" clip-rule="evenodd" fill="#6C8CC7" d="M184.35,291.95c-1.32,1.04-34.03-0.47-34.03-0.47
					s-0.4-1.94-0.04-4.35c17.07,3.14,34.37-0.31,34.37-0.31C184.99,287.15,185.67,290.91,184.35,291.95z"/>
				<path fill-rule="evenodd" clip-rule="evenodd" fill="#8FB7BB" d="M150.28,287.12c11.66,2.31,24.58,1.8,34.37-0.31
					c-17.8,2.71-32.15,0.65-31.16,0.74C153.45,287.55,150.07,287.09,150.28,287.12z"/>
			</g>
			<g>
				<path fill-rule="evenodd" clip-rule="evenodd" fill="#FFFFFF" d="M141.54,104.99c-0.14,0-0.27-0.06-0.36-0.18
					c-0.12-0.15-2.86-3.69-2.86-6.95c0-3.37,4.53-4.67,4.53-7.21c0-4.11-5.49-4.38-0.55-13.63c0.12-0.22,0.4-0.31,0.62-0.19
					c0.22,0.12,0.31,0.4,0.19,0.62c-0.02,0.04-1.95,3.69-1.95,6.22c0,2.49,2.61,3.98,2.61,6.98c0,3.1-4.53,4.33-4.53,7.21
					c0,2.94,2.64,6.35,2.67,6.39c0.16,0.2,0.12,0.49-0.08,0.65C141.74,104.96,141.64,104.99,141.54,104.99z"/>
			</g>
			<g>
				<path fill-rule="evenodd" clip-rule="evenodd" fill="#FFFFFF" d="M131.73,98.05c-3.37-7.31,3.92-6.23,0.86-15.61
					c-1.13-3.47,0.45-5.82,0.52-5.92c0.14-0.21,0.43-0.26,0.64-0.12c0.21,0.14,0.26,0.43,0.12,0.64c-2.68,3.93,2.72,8.25-0.83,14.09
					c-1.51,2.49-1.78,3.72-0.47,6.54C132.82,98.22,131.98,98.6,131.73,98.05z"/>
			</g>
			<path fill-rule="evenodd" clip-rule="evenodd" fill="#F36E3D" d="M162.11,137.16c0,0-3.8,6.09-10.02,6.09s-5.27,7.92-2.39,10.8
				c2.89,2.88,4.95,3.27,6.53,2.3c4.15-2.53,12.44-14.83,12.44-14.83L162.11,137.16z"/>
			<path fill-rule="evenodd" clip-rule="evenodd" fill="#234BA0" d="M184.75,113.59c-1.62-13.77-19.87-37.14-19.87-37.14
				l-5.54,25.93c0,0,9.33,10.94,9.87,15.88c0.54,4.94-7.71,16.26-8.52,18.28c-0.81,2.03,5.14,8.1,6.08,8.1
				C172.93,144.65,186.38,127.36,184.75,113.59z"/>
			<path fill-rule="evenodd" clip-rule="evenodd" fill="#0C1D53" d="M69.31,77.61c0,0,7.75-2.58,9.54-0.79
				c1.79,1.79,14.93,15.37,14.57,16.67c-0.11,0.4-5.91,3.05-9.09,2.52C81.15,95.49,65.84,79.04,69.31,77.61z"/>
			<path fill-rule="evenodd" clip-rule="evenodd" fill="#081330" d="M72.99,77.61c0,0,2.55-0.85,5.06-1.23
				c-2.61-0.81-8.75,1.23-8.75,1.23c-3.47,1.42,11.85,17.87,15.03,18.4c0.9,0.15,2,0.05,3.13-0.19
				C83.38,93.91,69.69,78.97,72.99,77.61z"/>
			<path fill-rule="evenodd" clip-rule="evenodd" fill="#F36E3D" d="M74.82,87.72c0,0-2.09,3.22,6.63,6.93
				c1.46,0.62,3.56-8.29,2.66-9.19c-0.89-0.89-3.63,6.24-3.98,6.07c-1.21-0.59,4.34-7.48,2.73-8.05c-1.48-0.52-4.79,5.78-5.15,5.41
				c-0.58-0.58,4.89-6.18,2.61-6.66C79.49,82.06,76.08,84.76,74.82,87.72z"/>
			<path fill-rule="evenodd" clip-rule="evenodd" fill="#FBC112" d="M115.26,43.63l-11.49,7.57c0,0,6.63,4.45,18.12,2.01
				c11.49-2.43,17.64-8.78,17.64-8.78S120.26,46.06,115.26,43.63z"/>
			<path fill-rule="evenodd" clip-rule="evenodd" fill="#396CB5" d="M155.66,156.62c-9.51-3.21-11.3-12.86-8.82-22.28l-29.31-2.37
				c-0.37-0.03-0.71,0.25-0.74,0.63c-0.03,0.38,0.25,0.71,0.63,0.74l27.68,2.24c-0.73,3.57-2.81,17.97,10.11,22.34
				c0.07,0.03,0.15,0.04,0.22,0.04c0.29,0,0.56-0.18,0.65-0.47C156.21,157.13,156.02,156.74,155.66,156.62z"/>
		</g>
		<path fill-rule="evenodd" clip-rule="evenodd" fill="#FFF9AE" d="M86.43,18.86c11.78,0,21.32,5.05,21.32,11.28
			c0,1.87-14.32,44.65-14.32,44.65l6.36-35.86c-3.86,2.04-7.48,2.49-13.36,2.49c-11.78,0-21.32-5.05-21.32-11.28
			C65.11,23.92,74.65,18.86,86.43,18.86z"/>
		<path fill-rule="evenodd" clip-rule="evenodd" fill="#ED1C24" d="M86.43,0c-4.89,0-8.86,3.54-8.86,7.9c0,4.36,8.86,25.7,8.86,25.7
			s8.86-21.34,8.86-25.7C95.29,3.53,91.32,0,86.43,0L86.43,0z M86.43,12.48c-2.08,0-3.76-1.68-3.76-3.75s1.68-3.75,3.76-3.75
			s3.76,1.68,3.76,3.75C90.19,10.8,88.5,12.48,86.43,12.48z"/>
	</g>
</g>
</svg>
