<?xml version="1.0" encoding="utf-8"?>
<!-- Generator: Adobe Illustrator 27.2.0, SVG Export Plug-In . SVG Version: 6.00 Build 0)  -->
<svg version="1.1" id="Capa_1" xmlns="http://www.w3.org/2000/svg" xmlns:xlink="http://www.w3.org/1999/xlink" x="0px" y="0px"
	 viewBox="0 0 1080 2340" enable-background="new 0 0 1080 2340" xml:space="preserve">
<g>
	<defs>
		<rect id="SVGID_1_" width="1080" height="2340"/>
	</defs>
	<clipPath id="SVGID_00000101069102939712203230000018292036797066644658_">
		<use xlink:href="#SVGID_1_"  overflow="visible"/>
	</clipPath>
	
		<linearGradient id="SVGID_00000026883493418040339750000007683450852939048088_" gradientUnits="userSpaceOnUse" x1="540" y1="2340" x2="540" y2="-9.094947e-13">
		<stop  offset="0" style="stop-color:#93E3FD"/>
		<stop  offset="0.2271" style="stop-color:#8EE2F9"/>
		<stop  offset="0.5084" style="stop-color:#7EDEED"/>
		<stop  offset="0.8171" style="stop-color:#65D8DA"/>
		<stop  offset="1" style="stop-color:#53D4CC"/>
	</linearGradient>
	
		<rect clip-path="url(#SVGID_00000101069102939712203230000018292036797066644658_)" fill="url(#SVGID_00000026883493418040339750000007683450852939048088_)" width="1080" height="2340"/>
	
		<ellipse clip-path="url(#SVGID_00000101069102939712203230000018292036797066644658_)" fill="#FFFFFF" cx="697.59" cy="375.45" rx="221.53" ry="198.74"/>
	<g clip-path="url(#SVGID_00000101069102939712203230000018292036797066644658_)">
		
			<linearGradient id="SVGID_00000180357163119369391790000000208551513805011127_" gradientUnits="userSpaceOnUse" x1="-278.0141" y1="1260.6829" x2="-53.6256" y2="1978.7271">
			<stop  offset="0" style="stop-color:#B6D154"/>
			<stop  offset="1" style="stop-color:#5C921A"/>
		</linearGradient>
		<path fill="url(#SVGID_00000180357163119369391790000000208551513805011127_)" d="M-821.89,1524.1
			c0,0,1164.11-268.88,1804.85,692.58l-1838.22,275.94L-821.89,1524.1z"/>
		
			<linearGradient id="SVGID_00000183239510786364723130000014316184253200278409_" gradientUnits="userSpaceOnUse" x1="582.6779" y1="1571.2896" x2="615.4321" y2="2496.6038">
			<stop  offset="0" style="stop-color:#2A6045"/>
			<stop  offset="0.9944" style="stop-color:#0B403A"/>
		</linearGradient>
		<path fill="url(#SVGID_00000183239510786364723130000014316184253200278409_)" d="M-855.26,2081.53
			c0,0,1513.31-776.6,2915.22-320.02v731.11H-855.26V2081.53z"/>
		<path opacity="0.5" fill="#FFFFFF" d="M644.96,1833.36c148.12-60.4,299.78-127.2,430.61-215.52
			c-662.52,5.6-1261.41,190.66-1610.84,325.26c49.62,16.45,100.78,29.78,153.91,38.94C-18,2050.67,326.23,1964.89,644.96,1833.36z"
			/>
	</g>
	<g clip-path="url(#SVGID_00000101069102939712203230000018292036797066644658_)">
		<g>
			<defs>
				<path id="SVGID_00000134941496129569153230000007027703830954663061_" d="M560.11,1929.82c14.13,18.52,46.43,10.39,47.77-12.02
					c6.7-112.36,36.82-284.64,158.61-284.64c130.52,0,106.9,204.67,83.72,318.37c-4.29,21.01,22.28,35.81,41.42,23.1
					c41.22-27.36,98.62-49.94,154.5-20.11c104.2,55.61-68.59,302.92-238.74,302.92H518.51c0,0-296.78-299.37-121.35-383.39
					C468.85,1839.72,524.29,1882.87,560.11,1929.82z"/>
			</defs>
			<clipPath id="SVGID_00000163755028558576685750000016597979783029564083_">
				<use xlink:href="#SVGID_00000134941496129569153230000007027703830954663061_"  overflow="visible"/>
			</clipPath>
			
				<linearGradient id="SVGID_00000075862886526583932420000006219076919291934111_" gradientUnits="userSpaceOnUse" x1="717.8272" y1="1823.536" x2="698.3635" y2="2209.5696">
				<stop  offset="0" style="stop-color:#70BB46"/>
				<stop  offset="1" style="stop-color:#1D8828"/>
			</linearGradient>
			
				<path clip-path="url(#SVGID_00000163755028558576685750000016597979783029564083_)" fill="url(#SVGID_00000075862886526583932420000006219076919291934111_)" d="
				M560.11,1929.82c14.13,18.52,46.43,10.39,47.77-12.02c6.7-112.36,36.82-284.64,158.61-284.64c130.52,0,106.9,204.67,83.72,318.37
				c-4.29,21.01,22.28,35.81,41.42,23.1c41.22-27.36,98.62-49.94,154.5-20.11c104.2,55.61-68.59,302.92-238.74,302.92H518.51
				c0,0-296.78-299.37-121.35-383.39C468.85,1839.72,524.29,1882.87,560.11,1929.82z"/>
			
				<path clip-path="url(#SVGID_00000163755028558576685750000016597979783029564083_)" fill="none" stroke="#FFFFFF" stroke-width="1.7416" stroke-miterlimit="10" d="
				M776.97,1595.98c0,0-17.81,553.78-116.73,720.62"/>
			
				<line clip-path="url(#SVGID_00000163755028558576685750000016597979783029564083_)" fill="none" stroke="#FFFFFF" stroke-width="1.7416" stroke-miterlimit="10" x1="389.17" y1="1856.89" x2="614.73" y2="2273.7"/>
			
				<path clip-path="url(#SVGID_00000163755028558576685750000016597979783029564083_)" fill="none" stroke="#FFFFFF" stroke-width="1.7416" stroke-miterlimit="10" d="
				M1065.84,1904.81c0,0-245.34,346.11-318.55,386.94"/>
		</g>
		
			<linearGradient id="SVGID_00000013892834707871350060000017834097614389211532_" gradientUnits="userSpaceOnUse" x1="472.1963" y1="672.4742" x2="444.5534" y2="1570.8638">
			<stop  offset="0" style="stop-color:#B2C557"/>
			<stop  offset="0.9944" style="stop-color:#367006"/>
		</linearGradient>
		<path fill="url(#SVGID_00000013892834707871350060000017834097614389211532_)" d="M-104.47,1152.45
			c0,290.81,251.57,389.83,561.91,389.83c310.33,0,561.91-99.02,561.91-389.83c0-290.81-251.57-812.67-561.91-812.67
			C147.1,339.78-104.47,861.64-104.47,1152.45z"/>
		
			<linearGradient id="SVGID_00000034055472293358795640000016939936953252582792_" gradientUnits="userSpaceOnUse" x1="1392.6917" y1="324.448" x2="-171.6057" y2="1466.1615">
			<stop  offset="0" style="stop-color:#B2C557"/>
			<stop  offset="0.9944" style="stop-color:#367006"/>
		</linearGradient>
		<path fill="url(#SVGID_00000034055472293358795640000016939936953252582792_)" d="M457.43,339.78
			c-80.89,0-157.77,35.51-227.26,93.09c77.69-25.75,159.71-24.25,239.62,32.24c88.81,69.72,61.06,184.25-11.1,258.94
			c-111.02,129.47-327.5,219.11-310.85,388.41c11.1,74.7,144.32,59.76,199.83,4.98c83.26-84.65,199.83-199.19,333.05-169.31
			c105.47,24.9,141.35,134.41,136.79,223.64c-3.64,71.22-29.68,196.13-126.3,265.65c-102.04,79.17-248.64,99.99-399.92,93.94
			c52.5,7.48,108.29,10.92,166.13,10.92c310.33,0,561.91-99.02,561.91-389.83S767.77,339.78,457.43,339.78z"/>
		
			<linearGradient id="SVGID_00000069374247126207642480000004637822846324293007_" gradientUnits="userSpaceOnUse" x1="649.3909" y1="1186.6499" x2="563.2924" y2="1314.7477">
			<stop  offset="5.586590e-03" style="stop-color:#852D2C"/>
			<stop  offset="1" style="stop-color:#512127"/>
		</linearGradient>
		<path fill="url(#SVGID_00000069374247126207642480000004637822846324293007_)" d="M422.81,1381.21L755.2,941.03l-181.04,290.2
			l181.04-59.46c0,0-138.5,42.6-225.55,141.99c-87.06,99.4-81.12,143.77-81.12,143.77L422.81,1381.21z"/>
		
			<linearGradient id="SVGID_00000112621626556451012860000008392009610255479952_" gradientUnits="userSpaceOnUse" x1="319.7776" y1="1152.9421" x2="416.328" y2="1245.2487">
			<stop  offset="5.586590e-03" style="stop-color:#852D2C"/>
			<stop  offset="1" style="stop-color:#512127"/>
		</linearGradient>
		<path fill="url(#SVGID_00000112621626556451012860000008392009610255479952_)" d="M457.43,1291.58l-332.4-440.18l181.04,290.2
			l-181.04-59.46c0,0,138.5,42.6,225.55,141.99c87.06,99.4,81.12,143.77,81.12,143.77L457.43,1291.58z"/>
		
			<linearGradient id="SVGID_00000082344329066672497050000017015723095863716500_" gradientUnits="userSpaceOnUse" x1="571.3832" y1="1908.5458" x2="232.8991" y2="1212.5073">
			<stop  offset="5.586590e-03" style="stop-color:#852D2C"/>
			<stop  offset="1" style="stop-color:#512127"/>
		</linearGradient>
		<path fill="url(#SVGID_00000082344329066672497050000017015723095863716500_)" d="M467,765.31c0,0,2.64,724.17,39.57,927.7
			c36.93,203.53,18.47,544.31,18.47,544.31H279.7c0,0,122.79-790.44,137.3-989.23C431.51,1049.3,437.98,869.44,467,765.31z"/>
		<g>
			
				<linearGradient id="SVGID_00000026140600196707688640000003062358220812933309_" gradientUnits="userSpaceOnUse" x1="96.3502" y1="1987.6453" x2="96.3502" y2="2201.2686">
				<stop  offset="0" style="stop-color:#B6D154"/>
				<stop  offset="1" style="stop-color:#5C921A"/>
			</linearGradient>
			<path fill="url(#SVGID_00000026140600196707688640000003062358220812933309_)" d="M301.63,2233.72c5.43-16.9,8.4-34.73,8.4-53.2
				c0-105.87-95.67-191.69-213.68-191.69c-118.01,0-213.68,85.82-213.68,191.69c0,18.47,2.97,36.3,8.4,53.2H301.63z"/>
			
				<linearGradient id="SVGID_00000086664748212861227770000005473738595390356379_" gradientUnits="userSpaceOnUse" x1="-166.136" y1="2139.106" x2="-166.136" y2="2291.967">
				<stop  offset="0" style="stop-color:#1C9B7C"/>
				<stop  offset="1" style="stop-color:#06655D"/>
			</linearGradient>
			<path fill="url(#SVGID_00000086664748212861227770000005473738595390356379_)" d="M-15.19,2233.72
				c-1.79-73.43-68.66-132.48-150.94-132.48c-82.29,0-149.15,59.05-150.94,132.48H-15.19z"/>
			
				<linearGradient id="SVGID_00000102516401412485268920000014659815839204106155_" gradientUnits="userSpaceOnUse" x1="362.7938" y1="2139.106" x2="362.7938" y2="2291.967">
				<stop  offset="0" style="stop-color:#B6D154"/>
				<stop  offset="1" style="stop-color:#5C921A"/>
			</linearGradient>
			<path fill="url(#SVGID_00000102516401412485268920000014659815839204106155_)" d="M513.74,2233.72
				c-1.79-73.43-68.66-132.48-150.94-132.48s-149.15,59.05-150.94,132.48H513.74z"/>
			
				<linearGradient id="SVGID_00000014623127585345132310000001199906737521241246_" gradientUnits="userSpaceOnUse" x1="101.6265" y1="2115.7224" x2="101.6265" y2="2326.1206">
				<stop  offset="0" style="stop-color:#B6D154"/>
				<stop  offset="1" style="stop-color:#5C921A"/>
			</linearGradient>
			<path fill="url(#SVGID_00000014623127585345132310000001199906737521241246_)" d="M-387.73,2252.53
				c0,11.69,219.09,21.17,489.36,21.17c270.27,0,489.36-9.48,489.36-21.17c0-11.69-219.09-51.3-489.36-51.3
				C-168.64,2201.23-387.73,2240.84-387.73,2252.53z"/>
			<g>
				<path fill="#FFFFFF" d="M291.24,2139.99c0,13.23,17.72,23.96,39.57,23.96c21.85,0,39.57-10.73,39.57-23.96
					c0-13.23-17.72-23.96-39.57-23.96C308.95,2116.03,291.24,2126.76,291.24,2139.99z"/>
				<ellipse fill="#FFFFFF" cx="379.78" cy="2175.79" rx="24.9" ry="15.08"/>
			</g>
			<g>
				<path fill="#FFFFFF" d="M-4.56,2050.37c0,13.23,17.72,23.96,39.57,23.96c21.85,0,39.57-10.73,39.57-23.96
					c0-13.23-17.72-23.96-39.57-23.96C13.16,2026.41-4.56,2037.14-4.56,2050.37z"/>
				<path fill="#FFFFFF" d="M59.09,2086.17c0,8.33,11.15,15.08,24.9,15.08s24.9-6.75,24.9-15.08c0-8.33-11.15-15.08-24.9-15.08
					S59.09,2077.84,59.09,2086.17z"/>
			</g>
			<g>
				
					<linearGradient id="SVGID_00000138540604415089393210000002120215694806069651_" gradientUnits="userSpaceOnUse" x1="-252.1769" y1="2114.9846" x2="-116.1262" y2="2252.6323">
					<stop  offset="0" style="stop-color:#85BF6C"/>
					<stop  offset="1" style="stop-color:#33A869"/>
				</linearGradient>
				
					<ellipse fill="url(#SVGID_00000138540604415089393210000002120215694806069651_)" cx="-205.38" cy="2162.33" rx="39.57" ry="23.96"/>
				
					<linearGradient id="SVGID_00000075851134815993503970000002279619649979652503_" gradientUnits="userSpaceOnUse" x1="-245.9648" y1="2107.5203" x2="-109.9141" y2="2245.168">
					<stop  offset="0" style="stop-color:#85BF6C"/>
					<stop  offset="1" style="stop-color:#33A869"/>
				</linearGradient>
				<path fill="url(#SVGID_00000075851134815993503970000002279619649979652503_)" d="M-181.3,2198.13
					c0,8.33,11.15,15.08,24.9,15.08c13.75,0,24.9-6.75,24.9-15.08c0-8.33-11.15-15.08-24.9-15.08
					C-170.16,2183.05-181.3,2189.8-181.3,2198.13z"/>
			</g>
		</g>
		<g>
			<ellipse fill="#FFFFFF" cx="195.77" cy="1264.51" rx="8.41" ry="7.54"/>
			<path fill="#FFFFFF" d="M199.23,1336.84c0,10.29-9.3,18.64-20.77,18.64c-11.47,0-20.77-8.34-20.77-18.64
				c0-10.29,9.3-18.64,20.77-18.64C189.93,1318.2,199.23,1326.54,199.23,1336.84z"/>
			<ellipse fill="#FFFFFF" cx="273.59" cy="1342.31" rx="6.1" ry="5.47"/>
			<path fill="#FFFFFF" d="M276.4,1282.26c0,2.94-2.66,5.32-5.94,5.32c-3.28,0-5.94-2.38-5.94-5.32c0-2.94,2.66-5.33,5.94-5.33
				C273.74,1276.93,276.4,1279.32,276.4,1282.26z"/>
			<path fill="#FFFFFF" d="M383.24,1339.72c0,8.7-7.86,15.75-17.56,15.75c-9.7,0-17.56-7.05-17.56-15.75
				c0-8.7,7.86-15.75,17.56-15.75C375.38,1323.97,383.24,1331.02,383.24,1339.72z"/>
			<path fill="#FFFFFF" d="M607.8,805.25c0,9.31-8.42,16.86-18.8,16.86c-10.38,0-18.8-7.55-18.8-16.86c0-9.31,8.42-16.86,18.8-16.86
				C599.39,788.38,607.8,795.93,607.8,805.25z"/>
			<path fill="#FFFFFF" d="M636.49,736.02c0,5.39-4.87,9.76-10.88,9.76s-10.88-4.37-10.88-9.76s4.87-9.76,10.88-9.76
				S636.49,730.63,636.49,736.02z"/>
			<path fill="#FFFFFF" d="M554.38,732.92c0,1.72-1.55,3.11-3.46,3.11c-1.91,0-3.46-1.39-3.46-3.11c0-1.72,1.55-3.11,3.46-3.11
				C552.83,729.81,554.38,731.2,554.38,732.92z"/>
			<ellipse fill="#FFFFFF" cx="666.17" cy="823.88" rx="14.84" ry="13.31"/>
			<ellipse fill="#FFFFFF" cx="714.15" cy="754.22" rx="16.32" ry="14.64"/>
		</g>
	</g>
</g>
</svg>
