<?xml version="1.0" encoding="utf-8"?>
<!-- Generator: Adobe Illustrator 27.2.0, SVG Export Plug-In . SVG Version: 6.00 Build 0)  -->
<svg version="1.1" id="Capa_1" xmlns="http://www.w3.org/2000/svg" xmlns:xlink="http://www.w3.org/1999/xlink" x="0px" y="0px"
	 viewBox="0 0 1080 2340" enable-background="new 0 0 1080 2340" xml:space="preserve">
<g>
	<defs>
		<rect id="SVGID_1_" width="1080" height="2340"/>
	</defs>
	<clipPath id="SVGID_00000085218016529956997790000017086061302352802953_">
		<use xlink:href="#SVGID_1_"  overflow="visible"/>
	</clipPath>
	
		<linearGradient id="SVGID_00000116219505535270175200000011390453965705846708_" gradientUnits="userSpaceOnUse" x1="540" y1="2340" x2="540" y2="-9.094947e-13">
		<stop  offset="0" style="stop-color:#93E3FD"/>
		<stop  offset="0.2271" style="stop-color:#8EE2F9"/>
		<stop  offset="0.5084" style="stop-color:#7EDEED"/>
		<stop  offset="0.8171" style="stop-color:#65D8DA"/>
		<stop  offset="1" style="stop-color:#53D4CC"/>
	</linearGradient>
	
		<rect clip-path="url(#SVGID_00000085218016529956997790000017086061302352802953_)" fill="url(#SVGID_00000116219505535270175200000011390453965705846708_)" width="1080" height="2340"/>
	
		<linearGradient id="SVGID_00000061450740153227906650000004124058768870433948_" gradientUnits="userSpaceOnUse" x1="541.1911" y1="2075.7532" x2="541.1911" y2="1735.7966">
		<stop  offset="0" style="stop-color:#70BB46"/>
		<stop  offset="1" style="stop-color:#1D8828"/>
	</linearGradient>
	
		<path clip-path="url(#SVGID_00000085218016529956997790000017086061302352802953_)" fill="url(#SVGID_00000061450740153227906650000004124058768870433948_)" d="
		M0,1852.9c0,0,382.56-233.73,1082.38-40.77v263.62H0V1852.9z"/>
	<g clip-path="url(#SVGID_00000085218016529956997790000017086061302352802953_)">
		
			<linearGradient id="SVGID_00000165193983097443255570000010282184031020889761_" gradientUnits="userSpaceOnUse" x1="2689.3645" y1="1286.7208" x2="2675.0283" y2="1752.6489" gradientTransform="matrix(-1 0 0 1 2853.6733 0)">
			<stop  offset="0" style="stop-color:#70BB46"/>
			<stop  offset="1" style="stop-color:#1D8828"/>
		</linearGradient>
		<path fill="url(#SVGID_00000165193983097443255570000010282184031020889761_)" d="M408.59,1280.87c0,0-8.58-86.55-75.04-103.86
			c-66.46-17.31-123.28,39.43-212.25-24.04c-88.97-63.47-269.06-47.12-254.06,131.75c0,0-123.28,174.06,26.8,301
			c150.08,126.94,122.21,150.98,319.45,150.98c197.24,0,336.6-136.56,301.22-276.96C479.34,1319.33,408.59,1280.87,408.59,1280.87z"
			/>
		
			<linearGradient id="SVGID_00000157269304198664267670000000814611331295325065_" gradientUnits="userSpaceOnUse" x1="2485.4727" y1="1464.9451" x2="2477.7896" y2="1714.6465" gradientTransform="matrix(-1 0 0 1 2853.6733 0)">
			<stop  offset="0" style="stop-color:#70BB46"/>
			<stop  offset="1" style="stop-color:#1D8828"/>
		</linearGradient>
		<path fill="url(#SVGID_00000157269304198664267670000000814611331295325065_)" d="M222.39,1569.74
			c-24.06-118.71,126.31-145.69,222.55-180.77c13.35-4.79,25.66-11.58,36.48-19.89c12.25,23.97,24,53.76,33.29,90.65
			c25.42,100.88-39.39,199.74-151.05,247.42c-22.14-8.89-43.4-19.84-63.08-32.19C261.49,1647.98,231.41,1612.9,222.39,1569.74z"/>
		
			<linearGradient id="SVGID_00000111877236835047972300000011841629967272639674_" gradientUnits="userSpaceOnUse" x1="2593.5784" y1="1432.7565" x2="3374.7026" y2="1409.1511" gradientTransform="matrix(-1 0 0 1 2853.6733 0)">
			<stop  offset="0" style="stop-color:#70BB46"/>
			<stop  offset="1" style="stop-color:#1D8828"/>
		</linearGradient>
		<path fill="url(#SVGID_00000111877236835047972300000011841629967272639674_)" d="M-132.76,1284.71
			c-15.01-178.87,165.08-195.22,254.06-131.75c88.97,63.47,145.79,6.73,212.25,24.04c51.55,13.43,68.27,68.49,73.18,92.53
			c-9.24,17.73-25.72,31.65-52.01,38.5c-126.31,29.68-282.7-24.28-369.92,80.94c-30.07,35.07-6.01,86.34,27.07,113.32
			c63.16,53.96,150.37,78.24,192.48,151.09c15.03,25.62,19.54,55.28,14.67,83.26c-1.84,0.02-3.68,0.06-5.53,0.06
			c-197.24,0-169.37-24.04-319.45-150.98C-256.03,1458.77-132.76,1284.71-132.76,1284.71z"/>
		
			<linearGradient id="SVGID_00000172430702764467848030000013437573707050338953_" gradientUnits="userSpaceOnUse" x1="2684.9998" y1="1437.6617" x2="2659.9883" y2="1949.4469" gradientTransform="matrix(-1 0 0 1 2853.6733 0)">
			<stop  offset="5.586590e-03" style="stop-color:#852D2C"/>
			<stop  offset="1" style="stop-color:#512127"/>
		</linearGradient>
		<path fill="url(#SVGID_00000172430702764467848030000013437573707050338953_)" d="M241,1318.05c0,0,10.72,96.81-59.95,174.21
			c0,0-65.77-22.88-129.44-135.1c0,0-1.43,74.37,114.34,152.58c0,0,53.96,237.53,8.93,396.2s-38.59,240.41-38.59,240.41h164.01
			c0,0-54.67-199.06-65.39-317.35c-10.72-118.28-4.29-162.52-4.29-162.52s52.53-43.76,55.74-135.59c0,0-10.72,75.01-68.61,110.59
			l-24.66-130.79C193.12,1510.7,277.09,1421.59,241,1318.05z"/>
		<g>
			<path fill="#FFFFFF" d="M365.35,1541.47c0,5.13-4.64,9.3-10.36,9.3c-5.72,0-10.36-4.16-10.36-9.3s4.64-9.3,10.36-9.3
				C360.71,1532.18,365.35,1536.34,365.35,1541.47z"/>
			<path fill="#FFFFFF" d="M398.23,1475.44c0,4.43-4,8.01-8.93,8.01c-4.93,0-8.93-3.59-8.93-8.01c0-4.43,4-8.01,8.93-8.01
				C394.23,1467.43,398.23,1471.01,398.23,1475.44z"/>
			<path fill="#FFFFFF" d="M421.52,1515.32c0,1.31-1.19,2.37-2.65,2.37c-1.46,0-2.65-1.06-2.65-2.37c0-1.31,1.19-2.38,2.65-2.38
				C420.33,1512.95,421.52,1514.01,421.52,1515.32z"/>
			<ellipse fill="#FFFFFF" cx="375.19" cy="1517.58" rx="5.17" ry="4.64"/>
			<path fill="#FFFFFF" d="M406.73,1583.59c0,4.32-3.9,7.82-8.72,7.82c-4.81,0-8.72-3.5-8.72-7.82c0-4.32,3.9-7.82,8.72-7.82
				C402.82,1575.77,406.73,1579.28,406.73,1583.59z"/>
			<path fill="#FFFFFF" d="M51.62,1258.91c0,4.87-4.4,8.81-9.83,8.81s-9.83-3.95-9.83-8.81s4.4-8.81,9.83-8.81
				S51.62,1254.04,51.62,1258.91z"/>
			<path fill="#FFFFFF" d="M115.58,1283.43c0,3.36-3.04,6.09-6.79,6.09s-6.79-2.73-6.79-6.09c0-3.36,3.04-6.09,6.79-6.09
				S115.58,1280.07,115.58,1283.43z"/>
			<ellipse fill="#FFFFFF" cx="35.72" cy="1303.47" rx="11.97" ry="10.74"/>
			<path fill="#FFFFFF" d="M83.42,1294.65c0,2.83-2.56,5.13-5.72,5.13c-3.16,0-5.72-2.3-5.72-5.13s2.56-5.13,5.72-5.13
				C80.86,1289.52,83.42,1291.82,83.42,1294.65z"/>
			<ellipse fill="#FFFFFF" cx="122.37" cy="1352.03" rx="3.22" ry="2.89"/>
		</g>
	</g>
	
		<ellipse clip-path="url(#SVGID_00000085218016529956997790000017086061302352802953_)" fill="#FFFFFF" cx="382.2" cy="517.11" rx="221.53" ry="198.74"/>
	
		<linearGradient id="SVGID_00000110428634721850980550000014912525887945899711_" gradientUnits="userSpaceOnUse" x1="-458.0986" y1="2162.7319" x2="2232.1284" y2="2162.7319">
		<stop  offset="0" style="stop-color:#B6D154"/>
		<stop  offset="1" style="stop-color:#5C921A"/>
	</linearGradient>
	
		<path clip-path="url(#SVGID_00000085218016529956997790000017086061302352802953_)" fill="url(#SVGID_00000110428634721850980550000014912525887945899711_)" d="
		M-458.1,2091.47c0,0,1279.22-623.59,2690.23,0v419.67H-458.1V2091.47z"/>
	<path opacity="0.5" clip-path="url(#SVGID_00000085218016529956997790000017086061302352802953_)" fill="#FFFFFF" d="
		M1019.94,2010.03c127.02-35.81,245.76-92.04,353.9-163.35c-612.39-86.03-1142.92,16.16-1473.19,113.55
		c77.6,48.55,171.34,79.38,265.09,95.55C458.97,2107.24,739.45,2090.09,1019.94,2010.03z"/>
	<g clip-path="url(#SVGID_00000085218016529956997790000017086061302352802953_)">
		<g>
			<defs>
				<path id="SVGID_00000095337405145497991960000011576936109058131891_" d="M997.42,2010.18c-26.47-10.76-48.83-12.16-67.04-9.03
					c-30.54,5.26-60.37-11.98-66.14-39.39c-11.61-55.12-42.97-120.62-126.46-120.62c-83.49,0-114.85,65.51-126.46,120.62
					c-5.77,27.41-35.61,44.64-66.14,39.39c-18.22-3.14-40.58-1.74-67.04,9.03c-84.12,34.21-58.88,148.91-58.88,148.91h318.53h318.53
					C1056.31,2159.09,1081.54,2044.39,997.42,2010.18z"/>
			</defs>
			<clipPath id="SVGID_00000059994154289914534770000004178124383460188330_">
				<use xlink:href="#SVGID_00000095337405145497991960000011576936109058131891_"  overflow="visible"/>
			</clipPath>
			
				<linearGradient id="SVGID_00000129904370262935012720000005682881883851233970_" gradientUnits="userSpaceOnUse" x1="737.7747" y1="1900.5042" x2="737.7747" y2="2110.4854">
				<stop  offset="0" style="stop-color:#70BB46"/>
				<stop  offset="1" style="stop-color:#1D8828"/>
			</linearGradient>
			
				<path clip-path="url(#SVGID_00000059994154289914534770000004178124383460188330_)" fill="url(#SVGID_00000129904370262935012720000005682881883851233970_)" d="
				M997.42,2010.18c-26.47-10.76-48.83-12.16-67.04-9.03c-30.54,5.26-60.37-11.98-66.14-39.39
				c-11.61-55.12-42.97-120.62-126.46-120.62c-83.49,0-114.85,65.51-126.46,120.62c-5.77,27.41-35.61,44.64-66.14,39.39
				c-18.22-3.14-40.58-1.74-67.04,9.03c-84.12,34.21-58.88,148.91-58.88,148.91h318.53h318.53
				C1056.31,2159.09,1081.54,2044.39,997.42,2010.18z"/>
			
				<linearGradient id="SVGID_00000158736364716360480890000012569095280140589239_" gradientUnits="userSpaceOnUse" x1="735.1789" y1="1965.6647" x2="743.2281" y2="2255.4436">
				<stop  offset="0" style="stop-color:#E6EB97"/>
				<stop  offset="0.9944" style="stop-color:#6FBC42"/>
			</linearGradient>
			
				<path clip-path="url(#SVGID_00000059994154289914534770000004178124383460188330_)" fill="url(#SVGID_00000158736364716360480890000012569095280140589239_)" d="
				M738.09,1894.47l1.26,74.54l0.94,74.54c0.34,24.85,1.04,49.69,0.63,74.54c-0.57,24.85-1.03,49.69-2.83,74.54h-0.63
				c-1.8-24.85-2.26-49.69-2.83-74.54c-0.41-24.85,0.29-49.69,0.63-74.54l0.94-74.54l1.26-74.54H738.09z"/>
			
				<linearGradient id="SVGID_00000172420157702978196710000007038276822397698454_" gradientUnits="userSpaceOnUse" x1="725.6458" y1="1964.9718" x2="733.7304" y2="2256.0278">
				<stop  offset="0" style="stop-color:#E6EB97"/>
				<stop  offset="0.9944" style="stop-color:#6FBC42"/>
			</linearGradient>
			
				<path clip-path="url(#SVGID_00000059994154289914534770000004178124383460188330_)" fill="url(#SVGID_00000172420157702978196710000007038276822397698454_)" d="
				M514.48,2043.71c4.01,12.69,9.97,24.19,16.62,34.62c3.21,5.39,6.95,10.11,10.59,14.96c1.75,2.52,3.82,4.58,5.76,6.82l5.89,6.61
				c16.18,16.9,34.72,29.23,53.86,38.5l7.2,3.46c2.39,1.19,4.79,2.34,7.29,3.1l14.79,5.23c4.88,2,9.98,2.81,14.98,4.1l15.06,3.59
				c10.16,1.26,20.3,2.88,30.46,3.85l30.6,0.99c40.8-0.43,81.63-8.43,119.78-26.91c19.05-9.19,37.38-21.49,53.66-37.86
				c8.02-8.34,15.86-17.16,22.58-27.5c6.9-10.05,13.09-21.22,17.62-33.57l0.59,0.3c-3.73,13.12-9.57,24.88-16.03,35.81
				c-6.45,11.03-14.15,20.55-22.07,29.66c-16.15,17.82-34.86,30.89-54.14,41.14c-19.33,10.53-39.79,16.03-60.18,20.6
				c-10.27,1.66-20.57,2.79-30.85,4.14l-30.94,1c-10.31-0.42-20.61-1.1-30.9-1.65c-10.27-1.19-20.51-3.04-30.75-4.53l-15.2-3.95
				c-5.05-1.41-10.18-2.35-15.11-4.47l-14.92-5.61c-2.51-0.83-4.93-2.04-7.34-3.29l-7.26-3.65c-19.25-9.93-37.82-22.94-53.93-40.49
				l-5.86-6.85c-1.93-2.32-3.98-4.45-5.71-7.05c-3.6-5-7.3-9.87-10.46-15.4c-6.56-10.73-12.37-22.43-16.25-35.43L514.48,2043.71z"/>
		</g>
		
			<linearGradient id="SVGID_00000052818746382310834720000005063857956442770607_" gradientUnits="userSpaceOnUse" x1="981.9189" y1="969.8883" x2="962.0864" y2="1614.4432">
			<stop  offset="0" style="stop-color:#70BB46"/>
			<stop  offset="1" style="stop-color:#1D8828"/>
		</linearGradient>
		<path fill="url(#SVGID_00000052818746382310834720000005063857956442770607_)" d="M643.99,961.79c0,0,11.86-119.73,103.81-143.68
			c91.94-23.95,170.54,54.54,293.62-33.26c123.08-87.8,372.22-65.19,351.46,182.26c0,0,170.54,240.79-37.07,416.39
			c-207.61,175.6-169.06,208.86-441.92,208.86c-272.86,0-465.64-188.91-416.71-383.14C546.11,1015,643.99,961.79,643.99,961.79z"/>
		
			<linearGradient id="SVGID_00000053534151152782578500000010068766195287289270_" gradientUnits="userSpaceOnUse" x1="699.8593" y1="1216.4402" x2="689.2305" y2="1561.8712">
			<stop  offset="0" style="stop-color:#70BB46"/>
			<stop  offset="1" style="stop-color:#1D8828"/>
		</linearGradient>
		<path fill="url(#SVGID_00000053534151152782578500000010068766195287289270_)" d="M901.57,1361.41
			c33.28-164.22-174.74-201.55-307.87-250.07c-18.47-6.63-35.5-16.03-50.46-27.52c-16.95,33.16-33.2,74.37-46.06,125.41
			c-35.16,139.55,54.49,276.32,208.95,342.27c30.63-12.3,60.04-27.44,87.26-44.54C847.48,1469.64,889.09,1421.12,901.57,1361.41z"/>
		
			<linearGradient id="SVGID_00000140708682817964904180000004591318610270266799_" gradientUnits="userSpaceOnUse" x1="849.4097" y1="1171.9109" x2="1930.0012" y2="1139.2556">
			<stop  offset="0" style="stop-color:#70BB46"/>
			<stop  offset="1" style="stop-color:#1D8828"/>
		</linearGradient>
		<path fill="url(#SVGID_00000140708682817964904180000004591318610270266799_)" d="M1392.87,967.11
			c20.76-247.44-228.37-270.06-351.46-182.26c-123.08,87.8-201.68,9.31-293.62,33.26c-71.32,18.57-94.44,94.75-101.23,128
			c12.79,24.53,35.59,43.79,71.94,53.26c174.74,41.06,391.08-33.59,511.74,111.97c41.6,48.52,8.32,119.43-37.44,156.76
			c-87.37,74.65-208.02,108.24-266.27,209.01c-20.79,35.44-27.04,76.47-20.29,115.18c2.55,0.03,5.09,0.08,7.65,0.08
			c272.86,0,234.31-33.26,441.92-208.86S1392.87,967.11,1392.87,967.11z"/>
		
			<linearGradient id="SVGID_00000016064472635881303100000016341755012507881402_" gradientUnits="userSpaceOnUse" x1="975.8806" y1="1178.697" x2="941.28" y2="1886.6893">
			<stop  offset="5.586590e-03" style="stop-color:#852D2C"/>
			<stop  offset="1" style="stop-color:#512127"/>
		</linearGradient>
		<path fill="url(#SVGID_00000016064472635881303100000016341755012507881402_)" d="M875.82,1013.23c0,0-14.83,133.92,82.93,241
			c0,0,90.98-31.65,179.06-186.9c0,0,1.98,102.88-158.18,211.08c0,0-74.64,328.59-12.36,548.1s53.39,332.58,53.39,332.58H793.77
			c0,0,75.63-275.38,90.46-439.01c14.83-163.63,5.93-224.83,5.93-224.83s-72.66-60.53-77.11-187.58c0,0,14.83,103.77,94.91,152.99
			l34.11-180.93C942.06,1279.74,825.9,1156.46,875.82,1013.23z"/>
		
			<linearGradient id="SVGID_00000078028461667761896800000013503803614806034826_" gradientUnits="userSpaceOnUse" x1="873.697" y1="2068.2798" x2="873.697" y2="2413.3831">
			<stop  offset="0" style="stop-color:#B6D154"/>
			<stop  offset="1" style="stop-color:#5C921A"/>
		</linearGradient>
		<path fill="url(#SVGID_00000078028461667761896800000013503803614806034826_)" d="M187.59,2172.32
			c0,20.32,307.18,36.79,686.11,36.79s686.11-16.47,686.11-36.79s-307.18-59.2-686.11-59.2S187.59,2152,187.59,2172.32z"/>
		<g>
			<path fill="#FFFFFF" d="M703.8,1322.31c0,7.1,6.42,12.86,14.34,12.86c7.92,0,14.34-5.76,14.34-12.86
				c0-7.1-6.42-12.86-14.34-12.86C710.22,1309.45,703.8,1315.21,703.8,1322.31z"/>
			<ellipse fill="#FFFFFF" cx="670.68" cy="1230.96" rx="12.36" ry="11.09"/>
			<path fill="#FFFFFF" d="M626.1,1286.13c0,1.81,1.64,3.29,3.66,3.29c2.02,0,3.66-1.47,3.66-3.29s-1.64-3.29-3.66-3.29
				C627.74,1282.84,626.1,1284.31,626.1,1286.13z"/>
			<ellipse fill="#FFFFFF" cx="690.19" cy="1289.26" rx="7.15" ry="6.42"/>
			<path fill="#FFFFFF" d="M646.56,1380.58c0,5.97,5.4,10.82,12.06,10.82c6.66,0,12.06-4.84,12.06-10.82
				c0-5.98-5.4-10.82-12.06-10.82C651.96,1369.76,646.56,1374.6,646.56,1380.58z"/>
			<path fill="#FFFFFF" d="M1137.81,931.41c0,6.73,6.09,12.19,13.59,12.19c7.51,0,13.59-5.46,13.59-12.19
				c0-6.73-6.09-12.19-13.59-12.19C1143.9,919.22,1137.81,924.68,1137.81,931.41z"/>
			<path fill="#FFFFFF" d="M1049.33,965.34c0,4.65,4.21,8.43,9.39,8.43s9.39-3.77,9.39-8.43s-4.2-8.43-9.39-8.43
				S1049.33,960.68,1049.33,965.34z"/>
			<path fill="#FFFFFF" d="M1143.25,993.05c0,8.2,7.41,14.86,16.56,14.86c9.15,0,16.56-6.65,16.56-14.86s-7.41-14.86-16.56-14.86
				C1150.66,978.2,1143.25,984.85,1143.25,993.05z"/>
			<ellipse fill="#FFFFFF" cx="1101.72" cy="980.86" rx="7.91" ry="7.1"/>
			<ellipse fill="#FFFFFF" cx="1039.93" cy="1060.23" rx="4.45" ry="3.99"/>
		</g>
	</g>
</g>
</svg>
