<?xml version="1.0" encoding="utf-8"?>
<!-- Generator: Adobe Illustrator 27.2.0, SVG Export Plug-In . SVG Version: 6.00 Build 0)  -->
<svg version="1.1" id="Capa_1" xmlns="http://www.w3.org/2000/svg" xmlns:xlink="http://www.w3.org/1999/xlink" x="0px" y="0px"
	 viewBox="0 0 1080 2340" enable-background="new 0 0 1080 2340" xml:space="preserve">
<g>
	<defs>
		<rect id="SVGID_1_" width="1080" height="2340"/>
	</defs>
	
		<linearGradient id="SVGID_00000047031635291613895930000005536948679140041404_" gradientUnits="userSpaceOnUse" x1="540" y1="2340" x2="540" y2="-9.094947e-13">
		<stop  offset="0" style="stop-color:#93E3FD"/>
		<stop  offset="0.2271" style="stop-color:#8EE2F9"/>
		<stop  offset="0.5084" style="stop-color:#7EDEED"/>
		<stop  offset="0.8171" style="stop-color:#65D8DA"/>
		<stop  offset="1" style="stop-color:#53D4CC"/>
	</linearGradient>
	<use xlink:href="#SVGID_1_"  overflow="visible" fill="url(#SVGID_00000047031635291613895930000005536948679140041404_)"/>
	<clipPath id="SVGID_00000104700227676246600370000001684447033288422029_">
		<use xlink:href="#SVGID_1_"  overflow="visible"/>
	</clipPath>
	
		<linearGradient id="SVGID_00000060032176224502153740000006274595461906819472_" gradientUnits="userSpaceOnUse" x1="540" y1="2340" x2="540" y2="-9.094947e-13">
		<stop  offset="0" style="stop-color:#93E3FD"/>
		<stop  offset="0.2271" style="stop-color:#8EE2F9"/>
		<stop  offset="0.5084" style="stop-color:#7EDEED"/>
		<stop  offset="0.8171" style="stop-color:#65D8DA"/>
		<stop  offset="1" style="stop-color:#53D4CC"/>
	</linearGradient>
	
		<rect clip-path="url(#SVGID_00000104700227676246600370000001684447033288422029_)" fill="url(#SVGID_00000060032176224502153740000006274595461906819472_)" width="1080" height="2340"/>
	
		<ellipse clip-path="url(#SVGID_00000104700227676246600370000001684447033288422029_)" fill="#FFFFFF" cx="385.29" cy="300.37" rx="221.53" ry="198.74"/>
	
		<linearGradient id="SVGID_00000127009391154271304050000007092463101163589265_" gradientUnits="userSpaceOnUse" x1="579.7864" y1="1395.8113" x2="637.3962" y2="2103.5815">
		<stop  offset="0" style="stop-color:#70BB46"/>
		<stop  offset="1" style="stop-color:#1D8828"/>
	</linearGradient>
	
		<path clip-path="url(#SVGID_00000104700227676246600370000001684447033288422029_)" fill="url(#SVGID_00000127009391154271304050000007092463101163589265_)" d="
		M-651.33,1957.92c0,0,982.14-941.34,2555.79-256.48v828.91H-627.66L-651.33,1957.92z"/>
	<path opacity="0.5" clip-path="url(#SVGID_00000104700227676246600370000001684447033288422029_)" fill="#FFFFFF" d="
		M539.68,1759.02c255.35-31.44,522.46-108.78,724.18-259.65C588.79,1368.52,65.27,1531.8-262.51,1698.7
		C-6.28,1766.64,265.65,1789.17,539.68,1759.02z"/>
	<g clip-path="url(#SVGID_00000104700227676246600370000001684447033288422029_)">
		
			<linearGradient id="SVGID_00000112606581086312158710000015029191168415512243_" gradientUnits="userSpaceOnUse" x1="917.3348" y1="1505.4287" x2="909.2369" y2="1768.61">
			<stop  offset="0" style="stop-color:#B2C557"/>
			<stop  offset="0.9944" style="stop-color:#367006"/>
		</linearGradient>
		<path fill="url(#SVGID_00000112606581086312158710000015029191168415512243_)" d="M1199.34,1703.99
			c29.54-23.89,48.11-58.47,48.11-96.96c0-72.08-65.14-130.52-145.49-130.52c-17.52,0-34.31,2.78-49.87,7.87
			c-32.6-46.18-90.03-76.87-155.47-76.87c-79.2,0-146.69,44.9-172.6,107.87c-3.74-0.3-7.51-0.48-11.34-0.48
			c-68.53,0-124.09,49.84-124.09,111.32c0,29.91,13.17,57.03,34.56,77.03c-45.04,15.44-71.74,29.8-71.74,34.29
			c0,11.01,160.63,19.94,358.79,19.94c198.15,0,358.78-8.93,358.78-19.94C1268.98,1733.13,1243.1,1719.15,1199.34,1703.99z"/>
		
			<linearGradient id="SVGID_00000023281835845187375450000009649216630262326421_" gradientUnits="userSpaceOnUse" x1="840.7185" y1="563.0179" x2="823.8054" y2="1112.6931">
			<stop  offset="0" style="stop-color:#B2C557"/>
			<stop  offset="0.9944" style="stop-color:#367006"/>
		</linearGradient>
		<path fill="url(#SVGID_00000023281835845187375450000009649216630262326421_)" d="M1132.7,1090.97H693.31
			c-95.78,0-182.17-15.61-248.29-77.77c-59.42-55.86-105.18-153.79-43.57-255.78c64.98-107.56,167.31-106.86,216.47-103.47
			c0,0-102.11-261.22,194.76-291.75c267.11-27.47,420.94,230.71,416.03,431.01c-0.78,31.98,10.3,63.6,32.56,88.59
			c14.96,16.8,28.01,42.2,26.88,76.22C1285.69,1032.5,1215.77,1090.97,1132.7,1090.97z"/>
		
			<linearGradient id="SVGID_00000027570626138364515490000004855962450806585996_" gradientUnits="userSpaceOnUse" x1="1203.3174" y1="419.2805" x2="886.1971" y2="850.6323">
			<stop  offset="0" style="stop-color:#B2C557"/>
			<stop  offset="0.9944" style="stop-color:#367006"/>
		</linearGradient>
		<path fill="url(#SVGID_00000027570626138364515490000004855962450806585996_)" d="M1261.27,881.79
			c-22.26-24.99-33.35-56.61-32.56-88.59c4.91-200.3-148.91-458.49-416.03-431.01c-35.25,3.63-64.81,10.53-89.65,19.84
			c43.09,3.24,85.66,13.06,126.75,31.49c75.59,32.12,155.17,103.51,131.29,185.6C945.26,716.89,770.2,774,790.1,906.06
			c7.96,46.4,79.57,67.81,135.27,53.54c59.68-14.28,151.19-60.68,187,3.57c31.83,53.54-31.83,99.94-83.55,117.78
			c-10.02,3.72-20.16,7.04-30.39,10.01h134.29c83.06,0,152.98-58.47,155.45-132.96C1289.28,923.99,1276.23,898.59,1261.27,881.79z"
			/>
		
			<linearGradient id="SVGID_00000168813520241030992280000009946621856842212740_" gradientUnits="userSpaceOnUse" x1="1003.6799" y1="632.3511" x2="912.1831" y2="904.7848">
			<stop  offset="5.586590e-03" style="stop-color:#852D2C"/>
			<stop  offset="1" style="stop-color:#512127"/>
		</linearGradient>
		<polygon fill="url(#SVGID_00000168813520241030992280000009946621856842212740_)" points="872.91,940.28 1018.14,586.23 
			894.68,1038.33 		"/>
		
			<linearGradient id="SVGID_00000016042602144699914010000008271975255329442434_" gradientUnits="userSpaceOnUse" x1="666.3917" y1="786.4339" x2="876.7114" y2="1071.4171">
			<stop  offset="5.586590e-03" style="stop-color:#852D2C"/>
			<stop  offset="1" style="stop-color:#512127"/>
		</linearGradient>
		<polygon fill="url(#SVGID_00000016042602144699914010000008271975255329442434_)" points="867.38,1021.9 654.08,731.22 
			862.7,1090.97 		"/>
		
			<linearGradient id="SVGID_00000141414039399653417010000001228614548728429478_" gradientUnits="userSpaceOnUse" x1="757.5579" y1="1321.472" x2="691.9692" y2="1186.5995" gradientTransform="matrix(0.9982 0.0607 -0.0607 0.9982 160.3903 -67.4576)">
			<stop  offset="5.586590e-03" style="stop-color:#852D2C"/>
			<stop  offset="1" style="stop-color:#512127"/>
		</linearGradient>
		<polygon fill="url(#SVGID_00000141414039399653417010000001228614548728429478_)" points="886.79,1294.51 712.73,1123.57 
			874.26,1339.71 		"/>
		
			<linearGradient id="SVGID_00000110455299234375575320000004079609581168286596_" gradientUnits="userSpaceOnUse" x1="901.6145" y1="1487.8958" x2="588.5872" y2="844.2052" gradientTransform="matrix(0.9982 0.0607 -0.0607 0.9982 160.3903 -67.4576)">
			<stop  offset="5.586590e-03" style="stop-color:#852D2C"/>
			<stop  offset="1" style="stop-color:#512127"/>
		</linearGradient>
		<path fill="url(#SVGID_00000110455299234375575320000004079609581168286596_)" d="M807.55,465.14
			c0,0,165.17,707.45,139.74,1292.35H834.05C834.05,1757.49,891.67,1068.75,807.55,465.14z"/>
		<g>
			<g>
				<defs>
					<path id="SVGID_00000094605349605888948630000005116966781319384241_" d="M978.71,1735.16c0,0-83.67-159.03,0-302.78
						c75.16-129.13,175.85-35.2,117.7,68.27c-56.46,100.47-82.25,234.51-82.25,234.51H978.71z"/>
				</defs>
				<clipPath id="SVGID_00000098183487450252033890000002866015406522719377_">
					<use xlink:href="#SVGID_00000094605349605888948630000005116966781319384241_"  overflow="visible"/>
				</clipPath>
				
					<linearGradient id="SVGID_00000067918159222780911090000011544310482679004554_" gradientUnits="userSpaceOnUse" x1="1027.6278" y1="1474.0912" x2="1027.6278" y2="1895.8792">
					<stop  offset="0" style="stop-color:#2A6045"/>
					<stop  offset="0.9944" style="stop-color:#0B403A"/>
				</linearGradient>
				
					<path clip-path="url(#SVGID_00000098183487450252033890000002866015406522719377_)" fill="url(#SVGID_00000067918159222780911090000011544310482679004554_)" d="
					M978.71,1735.16c0,0-83.67-159.03,0-302.78c75.16-129.13,175.85-35.2,117.7,68.27c-56.46,100.47-82.25,234.51-82.25,234.51
					H978.71z"/>
				
					<linearGradient id="SVGID_00000183241568541431993700000008652352409238124191_" gradientUnits="userSpaceOnUse" x1="1034.3959" y1="1508.6431" x2="976.9163" y2="1719.402">
					<stop  offset="0" style="stop-color:#E6EB97"/>
					<stop  offset="0.9944" style="stop-color:#6FBC42"/>
				</linearGradient>
				
					<path clip-path="url(#SVGID_00000098183487450252033890000002866015406522719377_)" fill="url(#SVGID_00000183241568541431993700000008652352409238124191_)" d="
					M996.75,1742.86c-5.47-25.55-8.23-51.52-9.25-77.55c-0.9-26.04,0.38-52.14,3.54-78.08c1.27-13.02,3.82-25.88,6.09-38.8
					c1.39-6.41,3.09-12.78,4.69-19.16l2.57-9.53l3.2-9.39c2.26-6.22,4.38-12.48,6.75-18.66c2.76-6.06,5.42-12.15,8.29-18.15
					c1.44-3,2.77-6.04,4.29-9l4.95-8.73c3.44-5.76,6.74-11.56,10.28-17.23l0.71,0.32c-10.21,24.37-20.79,48.33-27.64,73.43l-3,9.27
					l-2.38,9.42c-1.61,6.28-3.51,12.5-5,18.8c-2.73,12.65-5.75,25.28-7.5,38.11c-3.92,25.58-5.98,51.44-5.88,77.33
					c-0.05,25.87,1.65,51.84,6.05,77.46L996.75,1742.86z"/>
			</g>
			<g>
				<defs>
					<path id="SVGID_00000156555455507763219120000013855838286132030380_" d="M1043.28,1734.11c0,0-23.88-123,63.59-207.27
						c78.57-75.69,127.77,5.63,66.23,66.63c-59.75,59.24-105.56,146.63-105.56,146.63L1043.28,1734.11z"/>
				</defs>
				<clipPath id="SVGID_00000158015394213531710000000015910304954671735965_">
					<use xlink:href="#SVGID_00000156555455507763219120000013855838286132030380_"  overflow="visible"/>
				</clipPath>
				
					<linearGradient id="SVGID_00000150805972092726039250000015233199611960323764_" gradientUnits="userSpaceOnUse" x1="1150.3036" y1="1510.8717" x2="1095.9675" y2="1670.4297">
					<stop  offset="0" style="stop-color:#2A6045"/>
					<stop  offset="0.9944" style="stop-color:#0B403A"/>
				</linearGradient>
				
					<path clip-path="url(#SVGID_00000158015394213531710000000015910304954671735965_)" fill="url(#SVGID_00000150805972092726039250000015233199611960323764_)" d="
					M1043.28,1734.11c0,0-23.88-123,63.59-207.27c78.57-75.69,127.77,5.63,66.23,66.63c-59.75,59.24-105.56,146.63-105.56,146.63
					L1043.28,1734.11z"/>
				
					<linearGradient id="SVGID_00000181079960965352982290000013853606138890356389_" gradientUnits="userSpaceOnUse" x1="818.3848" y1="1610.6437" x2="776.7992" y2="1763.1243" gradientTransform="matrix(0.9641 0.2654 -0.2654 0.9641 765.6822 -182.5599)">
					<stop  offset="0" style="stop-color:#E6EB97"/>
					<stop  offset="0.9944" style="stop-color:#6FBC42"/>
				</linearGradient>
				
					<path clip-path="url(#SVGID_00000158015394213531710000000015910304954671735965_)" fill="url(#SVGID_00000181079960965352982290000013853606138890356389_)" d="
					M1054.02,1742.43c1.62-18.41,5.19-36.66,9.96-54.65c4.85-17.97,11.21-35.63,18.82-52.85c3.6-8.7,8.05-17.07,12.32-25.53
					c2.3-4.15,4.8-8.22,7.23-12.32l3.76-6.09l4.16-5.88c2.85-3.88,5.62-7.8,8.54-11.63c3.17-3.68,6.26-7.4,9.49-11.02
					c1.62-1.81,3.16-3.66,4.83-5.43l5.22-5.14c3.56-3.36,7.04-6.77,10.66-10.06l0.42,0.34c-12.11,14.95-24.38,29.57-34.34,45.59
					l-4,5.84l-3.61,6.05c-2.42,4.02-5.02,7.96-7.37,12.02c-4.53,8.2-9.24,16.34-13.14,24.82c-8.05,16.85-14.9,34.2-20.27,51.94
					c-5.47,17.7-9.76,35.77-12.13,54.05L1054.02,1742.43z"/>
			</g>
			
				<linearGradient id="SVGID_00000044170802806195265770000006966546517568735142_" gradientUnits="userSpaceOnUse" x1="1021.2513" y1="1698.2646" x2="1021.2513" y2="1793.1521">
				<stop  offset="0" style="stop-color:#2A6045"/>
				<stop  offset="0.9944" style="stop-color:#0B403A"/>
			</linearGradient>
			<path fill="url(#SVGID_00000044170802806195265770000006966546517568735142_)" d="M873.77,1751.7
				c0,14.52,66.03,13.57,147.49,13.57c81.45,0,147.49,0.95,147.49-13.57c0-14.52-66.03-26.29-147.49-26.29
				C939.8,1725.4,873.77,1737.18,873.77,1751.7z"/>
		</g>
		<g>
			<g>
				<defs>
					<path id="SVGID_00000168096008449646343230000005397546502195422375_" d="M840.04,1740.2c0,0,69.67-132.4,0-252.09
						c-62.58-107.51-146.41-29.3-98,56.84c47.01,83.65,68.48,195.24,68.48,195.24H840.04z"/>
				</defs>
				<clipPath id="SVGID_00000085213847370233182910000010721775029698693014_">
					<use xlink:href="#SVGID_00000168096008449646343230000005397546502195422375_"  overflow="visible"/>
				</clipPath>
				
					<linearGradient id="SVGID_00000007388548499337944700000016318940511413302455_" gradientUnits="userSpaceOnUse" x1="1587.2704" y1="1522.8446" x2="1587.2704" y2="1874.0129" gradientTransform="matrix(-1 0 0 1 2386.5818 0)">
					<stop  offset="0" style="stop-color:#2A6045"/>
					<stop  offset="0.9944" style="stop-color:#0B403A"/>
				</linearGradient>
				
					<path clip-path="url(#SVGID_00000085213847370233182910000010721775029698693014_)" fill="url(#SVGID_00000007388548499337944700000016318940511413302455_)" d="
					M840.04,1740.2c0,0,69.67-132.4,0-252.09c-62.58-107.51-146.41-29.3-98,56.84c47.01,83.65,68.48,195.24,68.48,195.24H840.04z"/>
				
					<linearGradient id="SVGID_00000131354888342793030960000003398397403622526340_" gradientUnits="userSpaceOnUse" x1="1592.9054" y1="1551.6118" x2="1545.0496" y2="1727.0835" gradientTransform="matrix(-1 0 0 1 2386.5818 0)">
					<stop  offset="0" style="stop-color:#E6EB97"/>
					<stop  offset="0.9944" style="stop-color:#6FBC42"/>
				</linearGradient>
				
					<path clip-path="url(#SVGID_00000085213847370233182910000010721775029698693014_)" fill="url(#SVGID_00000131354888342793030960000003398397403622526340_)" d="
					M825.02,1746.61c4.55-21.27,6.85-42.9,7.7-64.56c0.75-21.68-0.31-43.41-2.95-65.01c-1.06-10.84-3.18-21.55-5.07-32.3
					c-1.16-5.34-2.57-10.64-3.9-15.95l-2.14-7.94l-2.66-7.82c-1.88-5.18-3.65-10.39-5.62-15.53c-2.3-5.05-4.51-10.11-6.9-15.11
					c-1.2-2.5-2.3-5.03-3.58-7.49l-4.12-7.27c-2.86-4.8-5.61-9.62-8.56-14.35l-0.59,0.27c8.5,20.29,17.31,40.24,23.01,61.13
					l2.5,7.72l1.98,7.85c1.34,5.22,2.92,10.4,4.16,15.65c2.27,10.53,4.78,21.05,6.24,31.73c3.26,21.29,4.98,42.83,4.9,64.38
					c0.04,21.54-1.37,43.16-5.04,64.49L825.02,1746.61z"/>
			</g>
			<g>
				<defs>
					<path id="SVGID_00000143578011817470177840000017003374602355251334_" d="M786.28,1739.33c0,0,19.88-102.41-52.95-172.57
						c-65.42-63.02-106.38,4.69-55.15,55.48c49.75,49.32,87.89,122.08,87.89,122.08L786.28,1739.33z"/>
				</defs>
				<clipPath id="SVGID_00000097471513405459283150000004391064592817149872_">
					<use xlink:href="#SVGID_00000143578011817470177840000017003374602355251334_"  overflow="visible"/>
				</clipPath>
				
					<linearGradient id="SVGID_00000017503155542578622180000005183153763718343340_" gradientUnits="userSpaceOnUse" x1="1689.4066" y1="1553.4668" x2="1644.1681" y2="1686.3099" gradientTransform="matrix(-1 0 0 1 2386.5818 0)">
					<stop  offset="0" style="stop-color:#2A6045"/>
					<stop  offset="0.9944" style="stop-color:#0B403A"/>
				</linearGradient>
				
					<path clip-path="url(#SVGID_00000097471513405459283150000004391064592817149872_)" fill="url(#SVGID_00000017503155542578622180000005183153763718343340_)" d="
					M786.28,1739.33c0,0,19.88-102.41-52.95-172.57c-65.42-63.02-106.38,4.69-55.15,55.48c49.75,49.32,87.89,122.08,87.89,122.08
					L786.28,1739.33z"/>
				
					<linearGradient id="SVGID_00000076586372201521607400000010799293693859531187_" gradientUnits="userSpaceOnUse" x1="1349.8004" y1="1495.2349" x2="1315.1775" y2="1622.1857" gradientTransform="matrix(-0.9641 0.2654 0.2654 0.9641 1620.8997 -182.5599)">
					<stop  offset="0" style="stop-color:#E6EB97"/>
					<stop  offset="0.9944" style="stop-color:#6FBC42"/>
				</linearGradient>
				
					<path clip-path="url(#SVGID_00000097471513405459283150000004391064592817149872_)" fill="url(#SVGID_00000076586372201521607400000010799293693859531187_)" d="
					M777.34,1746.26c-1.35-15.33-4.32-30.52-8.29-45.5c-4.04-14.97-9.33-29.67-15.67-44c-3-7.24-6.7-14.21-10.26-21.26
					c-1.92-3.46-4-6.85-6.02-10.26l-3.13-5.07l-3.46-4.9c-2.38-3.23-4.68-6.5-7.11-9.68c-2.64-3.06-5.21-6.16-7.9-9.18
					c-1.34-1.51-2.63-3.05-4.02-4.52l-4.35-4.28c-2.97-2.8-5.86-5.64-8.87-8.37l-0.35,0.28c10.08,12.45,20.3,24.62,28.59,37.96
					l3.33,4.86l3,5.04c2.01,3.35,4.18,6.63,6.14,10.01c3.77,6.83,7.7,13.6,10.94,20.66c6.7,14.03,12.4,28.48,16.87,43.24
					c4.55,14.74,8.13,29.78,10.1,45L777.34,1746.26z"/>
			</g>
			
				<linearGradient id="SVGID_00000155833159739874965530000005505170267701023375_" gradientUnits="userSpaceOnUse" x1="1581.9614" y1="1709.4844" x2="1581.9614" y2="1788.4857" gradientTransform="matrix(-1 0 0 1 2386.5818 0)">
				<stop  offset="0" style="stop-color:#2A6045"/>
				<stop  offset="0.9944" style="stop-color:#0B403A"/>
			</linearGradient>
			<path fill="url(#SVGID_00000155833159739874965530000005505170267701023375_)" d="M927.41,1753.97
				c0,12.09-54.98,11.3-122.79,11.3s-122.79,0.79-122.79-11.3c0-12.09,54.98-21.89,122.79-21.89S927.41,1741.88,927.41,1753.97z"/>
		</g>
		<g>
			<path fill="#FFFFFF" d="M685.04,971.19c0,2.46-2.22,4.45-4.96,4.45s-4.96-1.99-4.96-4.45c0-2.46,2.22-4.45,4.96-4.45
				S685.04,968.73,685.04,971.19z"/>
			<path fill="#FFFFFF" d="M700.64,1001.88c0,4.65-4.21,8.43-9.39,8.43c-5.19,0-9.39-3.77-9.39-8.43c0-4.65,4.21-8.43,9.39-8.43
				C696.43,993.45,700.64,997.23,700.64,1001.88z"/>
			<path fill="#FFFFFF" d="M767.29,987.89c0,2.02-1.83,3.66-4.08,3.66c-2.25,0-4.08-1.64-4.08-3.66c0-2.02,1.83-3.66,4.08-3.66
				C765.46,984.23,767.29,985.87,767.29,987.89z"/>
			<ellipse fill="#FFFFFF" cx="743.98" cy="953.78" rx="4.34" ry="3.9"/>
			<path fill="#FFFFFF" d="M711.98,925.39c0,2.81-2.54,5.09-5.67,5.09c-3.13,0-5.67-2.28-5.67-5.09c0-2.81,2.54-5.09,5.67-5.09
				C709.44,920.3,711.98,922.58,711.98,925.39z"/>
			<ellipse fill="#FFFFFF" cx="917.73" cy="610.21" rx="4.25" ry="3.82"/>
			<path fill="#FFFFFF" d="M908.02,580.62c0,3.1-2.8,5.61-6.25,5.61c-3.45,0-6.25-2.51-6.25-5.61c0-3.1,2.8-5.61,6.25-5.61
				C905.22,575.01,908.02,577.52,908.02,580.62z"/>
			<path fill="#FFFFFF" d="M780.17,699.8c0,8.97-8.1,16.23-18.1,16.23c-9.99,0-18.1-7.27-18.1-16.23c0-8.97,8.1-16.23,18.1-16.23
				C772.07,683.57,780.17,690.84,780.17,699.8z"/>
			<path fill="#FFFFFF" d="M1032.83,827.11c0,4.92-4.44,8.91-9.93,8.91c-5.48,0-9.93-3.99-9.93-8.91c0-4.92,4.44-8.91,9.93-8.91
				C1028.39,818.21,1032.83,822.2,1032.83,827.11z"/>
			<path fill="#FFFFFF" d="M999.51,885.95c0,5.09-4.6,9.22-10.28,9.22c-5.68,0-10.28-4.13-10.28-9.22s4.6-9.22,10.28-9.22
				C994.9,876.73,999.51,880.86,999.51,885.95z"/>
			<ellipse fill="#FFFFFF" cx="1079.76" cy="866.8" rx="22.69" ry="20.35"/>
		</g>
	</g>
	<g clip-path="url(#SVGID_00000104700227676246600370000001684447033288422029_)">
		
			<linearGradient id="SVGID_00000000196254134959017660000001104794352030368679_" gradientUnits="userSpaceOnUse" x1="4207.0063" y1="2048.2036" x2="4196.561" y2="2387.6748" gradientTransform="matrix(-1 0 0 1 4387.0747 0)">
			<stop  offset="0" style="stop-color:#B2C557"/>
			<stop  offset="0.9944" style="stop-color:#367006"/>
		</linearGradient>
		<path fill="url(#SVGID_00000000196254134959017660000001104794352030368679_)" d="M-183.68,2304.33
			c-38.1-30.81-62.06-75.42-62.06-125.06c0-92.98,84.02-168.35,187.66-168.35c22.6,0,44.26,3.59,64.33,10.16
			c42.06-59.57,116.12-99.15,200.54-99.15c102.15,0,189.21,57.92,222.64,139.14c4.82-0.39,9.69-0.62,14.63-0.62
			c88.4,0,160.06,64.29,160.06,143.59c0,38.57-16.99,73.57-44.58,99.36c58.1,19.91,92.54,38.43,92.54,44.22
			c0,14.2-207.2,25.72-462.79,25.72s-462.79-11.51-462.79-25.72C-273.51,2341.91-240.13,2323.88-183.68,2304.33z"/>
		
			<linearGradient id="SVGID_00000055701750794781958850000013663131167447256710_" gradientUnits="userSpaceOnUse" x1="4108.1807" y1="832.6103" x2="4086.365" y2="1541.6234" gradientTransform="matrix(-1 0 0 1 4387.0747 0)">
			<stop  offset="0" style="stop-color:#B2C557"/>
			<stop  offset="0.9944" style="stop-color:#367006"/>
		</linearGradient>
		<path fill="url(#SVGID_00000055701750794781958850000013663131167447256710_)" d="M-97.73,1513.6l566.76,0
			c123.54,0,234.98-20.14,320.27-100.32c76.64-72.05,135.67-198.37,56.2-329.93c-83.81-138.75-215.81-137.84-279.22-133.47
			c0,0,131.7-336.94-251.21-376.33c-344.55-35.44-542.97,297.59-536.63,555.96c1.01,41.25-13.29,82.04-42,114.28
			c-19.3,21.67-36.13,54.44-34.68,98.31C-295.06,1438.18-204.88,1513.6-97.73,1513.6z"/>
		
			<linearGradient id="SVGID_00000006710280383829616430000003627593434911694733_" gradientUnits="userSpaceOnUse" x1="4575.8892" y1="647.2073" x2="4166.8428" y2="1203.5978" gradientTransform="matrix(-1 0 0 1 4387.0747 0)">
			<stop  offset="0" style="stop-color:#B2C557"/>
			<stop  offset="0.9944" style="stop-color:#367006"/>
		</linearGradient>
		<path fill="url(#SVGID_00000006710280383829616430000003627593434911694733_)" d="M-263.56,1243.79
			c28.71-32.23,43.01-73.03,42-114.28c-6.34-258.37,192.08-591.39,536.63-555.96c45.47,4.68,83.6,13.59,115.64,25.59
			c-55.58,4.17-110.49,16.84-163.49,40.62C169.7,681.2,67.07,773.28,97.86,879.17c46.19,151.93,271.99,225.59,246.33,395.93
			c-10.26,59.85-102.64,87.47-174.49,69.06c-76.98-18.42-195.01-78.26-241.2,4.6c-41.06,69.06,41.06,128.91,107.77,151.93
			c12.92,4.8,26,9.07,39.21,12.92H-97.73c-107.14,0-197.33-75.42-200.51-171.5C-299.69,1298.23-282.86,1265.46-263.56,1243.79z"/>
		
			<linearGradient id="SVGID_00000115481612171579126680000003900598772248949150_" gradientUnits="userSpaceOnUse" x1="4318.3809" y1="922.0414" x2="4200.3613" y2="1273.4474" gradientTransform="matrix(-1 0 0 1 4387.0747 0)">
			<stop  offset="5.586590e-03" style="stop-color:#852D2C"/>
			<stop  offset="1" style="stop-color:#512127"/>
		</linearGradient>
		<polygon fill="url(#SVGID_00000115481612171579126680000003900598772248949150_)" points="237.37,1319.23 50.04,862.55 
			209.29,1445.7 		"/>
		
			<linearGradient id="SVGID_00000077309846978166089960000011966075699495563440_" gradientUnits="userSpaceOnUse" x1="3883.321" y1="1120.7898" x2="4154.6069" y2="1488.3823" gradientTransform="matrix(-1 0 0 1 4387.0747 0)">
			<stop  offset="5.586590e-03" style="stop-color:#852D2C"/>
			<stop  offset="1" style="stop-color:#512127"/>
		</linearGradient>
		<polygon fill="url(#SVGID_00000077309846978166089960000011966075699495563440_)" points="244.5,1424.52 519.64,1049.56 
			250.54,1513.6 		"/>
		
			<linearGradient id="SVGID_00000149366332863752565630000007110811366252825775_" gradientUnits="userSpaceOnUse" x1="4046.8823" y1="1604.8564" x2="3962.281" y2="1430.8873" gradientTransform="matrix(-0.9982 0.0607 0.0607 0.9982 4226.6846 -67.4576)">
			<stop  offset="5.586590e-03" style="stop-color:#852D2C"/>
			<stop  offset="1" style="stop-color:#512127"/>
		</linearGradient>
		<polygon fill="url(#SVGID_00000149366332863752565630000007110811366252825775_)" points="219.46,1776.14 443.98,1555.66 
			235.63,1834.44 		"/>
		
			<linearGradient id="SVGID_00000170973816056014124050000008779158220537878931_" gradientUnits="userSpaceOnUse" x1="4232.6973" y1="1819.5223" x2="3828.9309" y2="989.2413" gradientTransform="matrix(-0.9982 0.0607 0.0607 0.9982 4226.6846 -67.4576)">
			<stop  offset="5.586590e-03" style="stop-color:#852D2C"/>
			<stop  offset="1" style="stop-color:#512127"/>
		</linearGradient>
		<path fill="url(#SVGID_00000170973816056014124050000008779158220537878931_)" d="M321.67,706.35
			c0,0-213.05,912.53-180.25,1666.97h146.07C287.49,2373.33,213.17,1484.95,321.67,706.35z"/>
		<g>
			<g>
				<defs>
					<path id="SVGID_00000005964678995125594250000009619534273264614785_" d="M100.9,2344.53c0,0,107.93-205.12,0-390.55
						c-96.95-166.56-226.82-45.4-151.82,88.06c72.83,129.6,106.09,302.48,106.09,302.48H100.9z"/>
				</defs>
				<clipPath id="SVGID_00000085250192785532898130000009199839573826048428_">
					<use xlink:href="#SVGID_00000005964678995125594250000009619534273264614785_"  overflow="visible"/>
				</clipPath>
				
					<linearGradient id="SVGID_00000167377281633474801170000011303001659529180339_" gradientUnits="userSpaceOnUse" x1="4349.271" y1="2007.7825" x2="4349.271" y2="2551.8372" gradientTransform="matrix(-1 0 0 1 4387.0747 0)">
					<stop  offset="0" style="stop-color:#2A6045"/>
					<stop  offset="0.9944" style="stop-color:#0B403A"/>
				</linearGradient>
				
					<path clip-path="url(#SVGID_00000085250192785532898130000009199839573826048428_)" fill="url(#SVGID_00000167377281633474801170000011303001659529180339_)" d="
					M100.9,2344.53c0,0,107.93-205.12,0-390.55c-96.95-166.56-226.82-45.4-151.82,88.06c72.83,129.6,106.09,302.48,106.09,302.48
					H100.9z"/>
				
					<linearGradient id="SVGID_00000181777798922742146190000010809198497036507276_" gradientUnits="userSpaceOnUse" x1="4358.001" y1="2052.3499" x2="4283.8594" y2="2324.2029" gradientTransform="matrix(-1 0 0 1 4387.0747 0)">
					<stop  offset="0" style="stop-color:#E6EB97"/>
					<stop  offset="0.9944" style="stop-color:#6FBC42"/>
				</linearGradient>
				
					<path clip-path="url(#SVGID_00000085250192785532898130000009199839573826048428_)" fill="url(#SVGID_00000181777798922742146190000010809198497036507276_)" d="
					M77.63,2354.46c7.05-32.95,10.62-66.46,11.93-100.03c1.16-33.58-0.49-67.26-4.57-100.72c-1.64-16.79-4.92-33.38-7.86-50.05
					c-1.8-8.27-3.99-16.48-6.05-24.71l-3.31-12.3l-4.13-12.11c-2.92-8.03-5.66-16.1-8.71-24.07c-3.57-7.82-6.99-15.67-10.7-23.41
					c-1.86-3.87-3.57-7.79-5.54-11.61l-6.39-11.27c-4.44-7.43-8.69-14.91-13.26-22.23l-0.92,0.41
					c13.17,31.43,26.81,62.34,35.65,94.71l3.87,11.96l3.07,12.16c2.07,8.09,4.52,16.12,6.45,24.25c3.52,16.32,7.41,32.61,9.67,49.15
					c5.05,32.99,7.71,66.35,7.58,99.74c0.06,33.38-2.12,66.87-7.81,99.92L77.63,2354.46z"/>
			</g>
			<g>
				<defs>
					<path id="SVGID_00000178911070175749311560000010599905011387892364_" d="M17.61,2343.17c0,0,30.8-158.66-82.03-267.35
						c-101.35-97.63-164.81,7.26-85.43,85.95C-72.78,2238.18-13.7,2350.9-13.7,2350.9L17.61,2343.17z"/>
				</defs>
				<clipPath id="SVGID_00000140705508252152273340000003293334506362298541_">
					<use xlink:href="#SVGID_00000178911070175749311560000010599905011387892364_"  overflow="visible"/>
				</clipPath>
				
					<linearGradient id="SVGID_00000065057467862556767850000013724582117121589150_" gradientUnits="userSpaceOnUse" x1="4507.5073" y1="2055.2246" x2="4437.4209" y2="2261.0344" gradientTransform="matrix(-1 0 0 1 4387.0747 0)">
					<stop  offset="0" style="stop-color:#2A6045"/>
					<stop  offset="0.9944" style="stop-color:#0B403A"/>
				</linearGradient>
				
					<path clip-path="url(#SVGID_00000140705508252152273340000003293334506362298541_)" fill="url(#SVGID_00000065057467862556767850000013724582117121589150_)" d="
					M17.61,2343.17c0,0,30.8-158.66-82.03-267.35c-101.35-97.63-164.81,7.26-85.43,85.95C-72.78,2238.18-13.7,2350.9-13.7,2350.9
					L17.61,2343.17z"/>
				
					<linearGradient id="SVGID_00000015355369293193368170000006847008818352618417_" gradientUnits="userSpaceOnUse" x1="4199.228" y1="1267.6073" x2="4145.5879" y2="1464.2883" gradientTransform="matrix(-0.9641 0.2654 0.2654 0.9641 3621.3926 -182.5599)">
					<stop  offset="0" style="stop-color:#E6EB97"/>
					<stop  offset="0.9944" style="stop-color:#6FBC42"/>
				</linearGradient>
				
					<path clip-path="url(#SVGID_00000140705508252152273340000003293334506362298541_)" fill="url(#SVGID_00000015355369293193368170000006847008818352618417_)" d="
					M3.76,2353.91c-2.09-23.75-6.69-47.29-12.84-70.49c-6.26-23.19-14.46-45.96-24.28-68.17c-4.65-11.22-10.38-22.02-15.89-32.93
					c-2.97-5.36-6.19-10.61-9.33-15.89l-4.85-7.86l-5.37-7.59c-3.68-5-7.25-10.06-11.02-15c-4.08-4.75-8.08-9.54-12.24-14.22
					c-2.08-2.33-4.08-4.73-6.23-7.01l-6.74-6.63c-4.6-4.33-9.08-8.74-13.75-12.97l-0.54,0.44c15.62,19.29,31.45,38.15,44.3,58.81
					l5.16,7.53l4.65,7.8c3.12,5.19,6.48,10.27,9.51,15.51c5.84,10.58,11.92,21.07,16.94,32.01c10.39,21.73,19.22,44.12,26.14,67
					c7.05,22.84,12.59,46.14,15.64,69.72L3.76,2353.91z"/>
			</g>
			
				<linearGradient id="SVGID_00000101083960762190730090000004662815423288743869_" gradientUnits="userSpaceOnUse" x1="4341.0459" y1="2296.938" x2="4341.0459" y2="2419.3313" gradientTransform="matrix(-1 0 0 1 4387.0747 0)">
				<stop  offset="0" style="stop-color:#2A6045"/>
				<stop  offset="0.9944" style="stop-color:#0B403A"/>
			</linearGradient>
			<path fill="url(#SVGID_00000101083960762190730090000004662815423288743869_)" d="M236.27,2365.86
				c0,18.73-85.17,17.5-190.24,17.5c-105.07,0-190.24,1.23-190.24-17.5c0-18.73,85.17-33.91,190.24-33.91
				C151.09,2331.95,236.27,2347.13,236.27,2365.86z"/>
		</g>
		<g>
			<g>
				<defs>
					<path id="SVGID_00000085214212598832049050000015632828721080091071_" d="M279.77,2351.03c0,0-89.86-170.78,0-325.16
						c80.72-138.67,188.84-37.8,126.4,73.32c-60.63,107.9-88.33,251.84-88.33,251.84H279.77z"/>
				</defs>
				<clipPath id="SVGID_00000050635767456070564900000003126294244499623845_">
					<use xlink:href="#SVGID_00000085214212598832049050000015632828721080091071_"  overflow="visible"/>
				</clipPath>
				
					<linearGradient id="SVGID_00000127040048585353297860000005953983293865243548_" gradientUnits="userSpaceOnUse" x1="-1668.189" y1="2070.668" x2="-1668.189" y2="2523.6323" gradientTransform="matrix(1 0 0 1 2000.493 0)">
					<stop  offset="0" style="stop-color:#2A6045"/>
					<stop  offset="0.9944" style="stop-color:#0B403A"/>
				</linearGradient>
				
					<path clip-path="url(#SVGID_00000050635767456070564900000003126294244499623845_)" fill="url(#SVGID_00000127040048585353297860000005953983293865243548_)" d="
					M279.77,2351.03c0,0-89.86-170.78,0-325.16c80.72-138.67,188.84-37.8,126.4,73.32c-60.63,107.9-88.33,251.84-88.33,251.84
					H279.77z"/>
				
					<linearGradient id="SVGID_00000078744732754701873020000013641836772970240696_" gradientUnits="userSpaceOnUse" x1="-1660.9208" y1="2107.7739" x2="-1722.6489" y2="2334.1106" gradientTransform="matrix(1 0 0 1 2000.493 0)">
					<stop  offset="0" style="stop-color:#E6EB97"/>
					<stop  offset="0.9944" style="stop-color:#6FBC42"/>
				</linearGradient>
				
					<path clip-path="url(#SVGID_00000050635767456070564900000003126294244499623845_)" fill="url(#SVGID_00000078744732754701873020000013641836772970240696_)" d="
					M299.15,2359.3c-5.87-27.44-8.84-55.33-9.93-83.28c-0.96-27.96,0.4-56,3.8-83.86c1.36-13.98,4.1-27.79,6.54-41.67
					c1.5-6.89,3.32-13.72,5.04-20.57l2.76-10.24l3.44-10.08c2.43-6.68,4.71-13.4,7.25-20.04c2.97-6.51,5.82-13.05,8.91-19.49
					c1.55-3.22,2.97-6.48,4.61-9.66l5.32-9.38c3.7-6.18,7.24-12.41,11.04-18.5l0.76,0.34c-10.97,26.17-22.32,51.91-29.68,78.85
					l-3.22,9.96l-2.55,10.12c-1.73,6.74-3.76,13.42-5.37,20.19c-2.93,13.59-6.17,27.15-8.05,40.92c-4.2,27.47-6.42,55.24-6.31,83.04
					c-0.05,27.79,1.77,55.67,6.5,83.19L299.15,2359.3z"/>
			</g>
			<g>
				<defs>
					<path id="SVGID_00000022557474043695740070000012018100239946675130_" d="M349.12,2349.91c0,0-25.64-132.1,68.29-222.59
						c84.38-81.28,137.21,6.05,71.13,71.56c-64.17,63.61-113.36,157.47-113.36,157.47L349.12,2349.91z"/>
				</defs>
				<clipPath id="SVGID_00000155123948897719131030000018081971571442816689_">
					<use xlink:href="#SVGID_00000022557474043695740070000012018100239946675130_"  overflow="visible"/>
				</clipPath>
				
					<linearGradient id="SVGID_00000127760473869196652540000001632843951543848862_" gradientUnits="userSpaceOnUse" x1="-1536.4459" y1="2110.167" x2="-1594.798" y2="2281.5183" gradientTransform="matrix(1 0 0 1 2000.493 0)">
					<stop  offset="0" style="stop-color:#2A6045"/>
					<stop  offset="0.9944" style="stop-color:#0B403A"/>
				</linearGradient>
				
					<path clip-path="url(#SVGID_00000155123948897719131030000018081971571442816689_)" fill="url(#SVGID_00000127760473869196652540000001632843951543848862_)" d="
					M349.12,2349.91c0,0-25.64-132.1,68.29-222.59c84.38-81.28,137.21,6.05,71.13,71.56c-64.17,63.61-113.36,157.47-113.36,157.47
					L349.12,2349.91z"/>
				
					<linearGradient id="SVGID_00000052814841218924984110000004413018852327436216_" gradientUnits="userSpaceOnUse" x1="-1613.1801" y1="2907.4941" x2="-1657.8394" y2="3071.2451" gradientTransform="matrix(0.9641 0.2654 -0.2654 0.9641 2766.175 -182.5599)">
					<stop  offset="0" style="stop-color:#E6EB97"/>
					<stop  offset="0.9944" style="stop-color:#6FBC42"/>
				</linearGradient>
				
					<path clip-path="url(#SVGID_00000155123948897719131030000018081971571442816689_)" fill="url(#SVGID_00000052814841218924984110000004413018852327436216_)" d="
					M360.65,2358.84c1.74-19.77,5.57-39.37,10.69-58.69c5.21-19.3,12.04-38.27,20.22-56.76c3.87-9.34,8.64-18.33,13.23-27.42
					c2.47-4.46,5.15-8.83,7.77-13.23l4.04-6.54l4.47-6.32c3.06-4.16,6.04-8.38,9.17-12.49c3.4-3.95,6.73-7.95,10.19-11.84
					c1.73-1.94,3.4-3.94,5.19-5.83l5.61-5.52c3.83-3.61,7.56-7.27,11.45-10.8l0.45,0.36c-13,16.06-26.18,31.76-36.88,48.96
					l-4.3,6.27l-3.87,6.5c-2.6,4.32-5.4,8.55-7.92,12.91c-4.86,8.81-9.93,17.54-14.11,26.65c-8.65,18.09-16,36.73-21.76,55.78
					c-5.87,19.01-10.48,38.41-13.02,58.05L360.65,2358.84z"/>
			</g>
			
				<linearGradient id="SVGID_00000062875701792251904930000006831495524550065844_" gradientUnits="userSpaceOnUse" x1="-1675.0371" y1="2311.4111" x2="-1675.0371" y2="2413.3118" gradientTransform="matrix(1 0 0 1 2000.493 0)">
				<stop  offset="0" style="stop-color:#2A6045"/>
				<stop  offset="0.9944" style="stop-color:#0B403A"/>
			</linearGradient>
			<path fill="url(#SVGID_00000062875701792251904930000006831495524550065844_)" d="M167.07,2368.79
				c0,15.59,70.91,14.57,158.39,14.57s158.39,1.02,158.39-14.57c0-15.59-70.91-28.23-158.39-28.23S167.07,2353.2,167.07,2368.79z"/>
		</g>
		<g>
			<ellipse fill="#FFFFFF" cx="486.1" cy="1359.1" rx="6.4" ry="5.74"/>
			<path fill="#FFFFFF" d="M459.58,1398.69c0,6,5.43,10.87,12.12,10.87c6.69,0,12.12-4.87,12.12-10.87c0-6-5.43-10.87-12.12-10.87
				C465.01,1387.82,459.58,1392.69,459.58,1398.69z"/>
			<path fill="#FFFFFF" d="M373.61,1380.64c0,2.61,2.35,4.72,5.26,4.72c2.9,0,5.26-2.11,5.26-4.72c0-2.61-2.35-4.72-5.26-4.72
				C375.96,1375.92,373.61,1378.03,373.61,1380.64z"/>
			<ellipse fill="#FFFFFF" cx="403.68" cy="1336.64" rx="5.6" ry="5.03"/>
			<ellipse fill="#FFFFFF" cx="452.26" cy="1300.03" rx="7.32" ry="6.56"/>
			<path fill="#FFFFFF" d="M174.07,893.48c0-2.72,2.46-4.92,5.49-4.92c3.03,0,5.49,2.2,5.49,4.92c0,2.72-2.46,4.92-5.49,4.92
				C176.53,898.4,174.07,896.2,174.07,893.48z"/>
			<ellipse fill="#FFFFFF" cx="200.15" cy="855.32" rx="8.07" ry="7.24"/>
			<ellipse fill="#FFFFFF" cx="380.33" cy="1009.05" rx="23.34" ry="20.94"/>
			<path fill="#FFFFFF" d="M31.09,1173.26c0,6.34,5.73,11.49,12.8,11.49c7.07,0,12.8-5.14,12.8-11.49c0-6.34-5.73-11.49-12.8-11.49
				C36.82,1161.78,31.09,1166.92,31.09,1173.26z"/>
			<path fill="#FFFFFF" d="M74.08,1249.16c0,6.57,5.94,11.9,13.26,11.9c7.32,0,13.26-5.33,13.26-11.9c0-6.57-5.94-11.9-13.26-11.9
				C80.01,1237.26,74.08,1242.59,74.08,1249.16z"/>
			<ellipse fill="#FFFFFF" cx="-29.44" cy="1224.45" rx="29.27" ry="26.26"/>
		</g>
	</g>
</g>
</svg>
