<?xml version="1.0" encoding="utf-8"?>
<!-- Generator: Adobe Illustrator 27.2.0, SVG Export Plug-In . SVG Version: 6.00 Build 0)  -->
<svg version="1.1" id="Capa_1" xmlns="http://www.w3.org/2000/svg" xmlns:xlink="http://www.w3.org/1999/xlink" x="0px" y="0px"
	 viewBox="0 0 1080 2340" enable-background="new 0 0 1080 2340" xml:space="preserve">
<g>
	<g>
		<defs>
			<rect id="SVGID_1_" width="1080" height="2340"/>
		</defs>
		<clipPath id="SVGID_00000021828806547503232340000010663239711480840634_">
			<use xlink:href="#SVGID_1_"  overflow="visible"/>
		</clipPath>
		
			<linearGradient id="SVGID_00000078043935219876289810000001016570982939114143_" gradientUnits="userSpaceOnUse" x1="540" y1="2340" x2="540" y2="-9.094947e-13">
			<stop  offset="0" style="stop-color:#1A025E"/>
			<stop  offset="0.1478" style="stop-color:#222280"/>
			<stop  offset="0.4218" style="stop-color:#3059BB"/>
			<stop  offset="0.5389" style="stop-color:#497ACA"/>
			<stop  offset="0.7508" style="stop-color:#73B2E4"/>
			<stop  offset="0.909" style="stop-color:#8DD4F4"/>
			<stop  offset="0.9944" style="stop-color:#97E1FA"/>
		</linearGradient>
		
			<rect clip-path="url(#SVGID_00000021828806547503232340000010663239711480840634_)" fill="url(#SVGID_00000078043935219876289810000001016570982939114143_)" width="1080" height="2340"/>
		<path opacity="0.3" clip-path="url(#SVGID_00000021828806547503232340000010663239711480840634_)" fill="#090114" d="
			M1616.83,2194.63c0,0-337.33-1257.54-651.66-1266.96c-164.62-4.93-320.31,364.76-431.27,718.05
			C407.35,1305.79,229.93,932.78,59.27,927.67c-314.33-9.42-596.1,1347.03-596.1,1347.03c237.15,139.75,644.6,80.88,929.16,12.7
			C793.49,2493.53,1616.83,2194.63,1616.83,2194.63z"/>
		<g clip-path="url(#SVGID_00000021828806547503232340000010663239711480840634_)">
			
				<linearGradient id="SVGID_00000178191750375702431420000015611991651636442813_" gradientUnits="userSpaceOnUse" x1="192.8927" y1="1518.8253" x2="124.9222" y2="1663.2628">
				<stop  offset="0" style="stop-color:#FFFFFF"/>
				<stop  offset="1" style="stop-color:#93D8E8"/>
			</linearGradient>
			<path fill="url(#SVGID_00000178191750375702431420000015611991651636442813_)" d="M-815.51,1397.72
				c0,0,1164.11-268.88,1804.85,692.58l-1838.22,275.94L-815.51,1397.72z"/>
			
				<linearGradient id="SVGID_00000105391594007839181980000004400341232336599193_" gradientUnits="userSpaceOnUse" x1="560.2675" y1="1803.0221" x2="593.3777" y2="2109.291">
				<stop  offset="0" style="stop-color:#FFFFFF"/>
				<stop  offset="1" style="stop-color:#93D8E8"/>
			</linearGradient>
			<path fill="url(#SVGID_00000105391594007839181980000004400341232336599193_)" d="M-855.26,2146.76
				c0,0,1513.31-776.6,2915.22-320.02v731.11H-855.26V2146.76z"/>
		</g>
		<g clip-path="url(#SVGID_00000021828806547503232340000010663239711480840634_)">
			
				<linearGradient id="SVGID_00000115496789108530028670000000423767461303316920_" gradientUnits="userSpaceOnUse" x1="569.6919" y1="582.066" x2="545.835" y2="1357.4125">
				<stop  offset="0" style="stop-color:#A0D3EA"/>
				<stop  offset="1" style="stop-color:#1A6789"/>
			</linearGradient>
			<path fill="url(#SVGID_00000115496789108530028670000000423767461303316920_)" d="M72,996.3
				c0,250.98,217.12,336.44,484.95,336.44s484.95-85.46,484.95-336.44S824.78,294.93,556.95,294.93S72,745.32,72,996.3z"/>
			
				<linearGradient id="SVGID_00000140720971181140372370000000264719085614770825_" gradientUnits="userSpaceOnUse" x1="1364.1166" y1="281.7054" x2="14.0648" y2="1267.0502">
				<stop  offset="0" style="stop-color:#A0D3EA"/>
				<stop  offset="1" style="stop-color:#1A6789"/>
			</linearGradient>
			<path fill="url(#SVGID_00000140720971181140372370000000264719085614770825_)" d="M556.95,294.93
				c-69.81,0-136.16,30.65-196.13,80.34c67.05-22.23,137.84-20.93,206.81,27.82c76.65,60.17,52.7,159.01-9.58,223.48
				c-95.81,111.74-282.65,189.1-268.28,335.22c9.58,64.46,124.56,51.57,172.46,4.3c71.86-73.06,172.46-171.91,287.44-146.12
				c91.02,21.49,121.99,116,118.06,193.01c-3.14,61.47-25.61,169.27-109,229.26c-88.06,68.33-214.58,86.29-345.15,81.07
				c45.31,6.45,93.46,9.43,143.37,9.43c267.83,0,484.95-85.46,484.95-336.44C1041.9,745.32,824.78,294.93,556.95,294.93z"/>
			
				<linearGradient id="SVGID_00000179616480056782538590000000439141487422634373_" gradientUnits="userSpaceOnUse" x1="735.2363" y1="1010.8809" x2="639.6029" y2="1147.5002">
				<stop  offset="5.586590e-03" style="stop-color:#452765"/>
				<stop  offset="1" style="stop-color:#1F0D38"/>
			</linearGradient>
			<path fill="url(#SVGID_00000179616480056782538590000000439141487422634373_)" d="M527.07,1193.73l286.87-379.9L657.7,1064.29
				l156.24-51.32c0,0-119.53,36.76-194.66,122.55c-75.13,85.78-70.01,124.08-70.01,124.08L527.07,1193.73z"/>
			
				<linearGradient id="SVGID_00000183936224713699414730000013536184876194442624_" gradientUnits="userSpaceOnUse" x1="446.3099" y1="1000.1639" x2="521.6942" y2="1070.2394">
				<stop  offset="5.586590e-03" style="stop-color:#452765"/>
				<stop  offset="1" style="stop-color:#1F0D38"/>
			</linearGradient>
			<path fill="url(#SVGID_00000183936224713699414730000013536184876194442624_)" d="M556.95,1116.38l-286.87-379.9l156.24,250.46
				l-156.24-51.32c0,0,119.53,36.76,194.66,122.55c75.13,85.78,70.01,124.08,70.01,124.08L556.95,1116.38z"/>
			
				<linearGradient id="SVGID_00000052789756990405367730000016213222066438239367_" gradientUnits="userSpaceOnUse" x1="655.2944" y1="1648.8457" x2="363.1689" y2="1048.1362">
				<stop  offset="5.586590e-03" style="stop-color:#452765"/>
				<stop  offset="1" style="stop-color:#1F0D38"/>
			</linearGradient>
			<path fill="url(#SVGID_00000052789756990405367730000016213222066438239367_)" d="M565.2,662.19c0,0,2.28,624.99,34.15,800.64
				c31.87,175.65,15.94,469.76,15.94,469.76H403.56c0,0,105.98-682.18,118.5-853.74C534.58,907.28,540.16,752.05,565.2,662.19z"/>
			<g>
				<path fill="#FFFFFF" d="M338.38,1093.02c0,3.6-3.25,6.51-7.26,6.51c-4.01,0-7.26-2.91-7.26-6.51c0-3.6,3.25-6.51,7.26-6.51
					C335.13,1086.51,338.38,1089.42,338.38,1093.02z"/>
				<ellipse fill="#FFFFFF" cx="316.19" cy="1155.44" rx="17.93" ry="16.08"/>
				<path fill="#FFFFFF" d="M403.56,1160.16c0,2.61-2.36,4.72-5.26,4.72c-2.91,0-5.27-2.11-5.27-4.72c0-2.61,2.36-4.72,5.27-4.72
					C401.2,1155.44,403.56,1157.55,403.56,1160.16z"/>
				<path fill="#FFFFFF" d="M400.71,1108.33c0,2.54-2.29,4.6-5.12,4.6s-5.12-2.06-5.12-4.6c0-2.54,2.29-4.6,5.12-4.6
					S400.71,1105.8,400.71,1108.33z"/>
				<path fill="#FFFFFF" d="M492.92,1157.93c0,7.51-6.79,13.6-15.15,13.6c-8.37,0-15.16-6.09-15.16-13.6
					c0-7.51,6.79-13.59,15.16-13.59C486.13,1144.33,492.92,1150.42,492.92,1157.93z"/>
				<path fill="#FFFFFF" d="M686.73,696.65c0,8.04-7.26,14.55-16.22,14.55s-16.22-6.52-16.22-14.55c0-8.04,7.26-14.55,16.22-14.55
					S686.73,688.62,686.73,696.65z"/>
				<path fill="#FFFFFF" d="M711.49,636.91c0,4.65-4.2,8.43-9.39,8.43c-5.19,0-9.39-3.77-9.39-8.43s4.2-8.43,9.39-8.43
					C707.28,628.49,711.49,632.26,711.49,636.91z"/>
				<path fill="#FFFFFF" d="M640.62,634.23c0,1.48-1.34,2.68-2.99,2.68c-1.65,0-2.99-1.2-2.99-2.68c0-1.48,1.34-2.68,2.99-2.68
					C639.28,631.55,640.62,632.75,640.62,634.23z"/>
				<path fill="#FFFFFF" d="M749.91,712.74c0,6.34-5.73,11.49-12.81,11.49c-7.07,0-12.81-5.14-12.81-11.49
					c0-6.35,5.73-11.49,12.81-11.49C744.17,701.25,749.91,706.39,749.91,712.74z"/>
				<path fill="#FFFFFF" d="M792.59,652.61c0,6.98-6.31,12.64-14.09,12.64c-7.78,0-14.09-5.66-14.09-12.64
					c0-6.98,6.31-12.64,14.09-12.64C786.29,639.97,792.59,645.63,792.59,652.61z"/>
			</g>
			<path fill="#FFFFFF" d="M84.42,880.4c0,0,116.49-593.62,472.53-603.81C913,266.4,1041.9,902.36,1041.9,902.36
				S752.68,792.29,749.91,555.84c-2.78-236.45-239.08-297.6-318.61-55.04C351.78,743.37,303.31,901.25,84.42,880.4z"/>
			<ellipse fill="#FFFFFF" cx="489.24" cy="431.5" rx="111.34" ry="99.88"/>
			<ellipse fill="#FFFFFF" cx="465.38" cy="615.31" rx="55.67" ry="49.94"/>
		</g>
		
			<linearGradient id="SVGID_00000116237233966323714860000013232690764677308068_" gradientUnits="userSpaceOnUse" x1="510.0384" y1="1804.3639" x2="542.8705" y2="2108.0596">
			<stop  offset="0" style="stop-color:#FFFFFF"/>
			<stop  offset="1" style="stop-color:#93D8E8"/>
		</linearGradient>
		
			<path clip-path="url(#SVGID_00000021828806547503232340000010663239711480840634_)" fill="url(#SVGID_00000116237233966323714860000013232690764677308068_)" d="
			M236.65,1950.74c0,0,284.78-241.88,580.16,17.67c0,0,30.29,125.01-266.6,125.01C253.32,2093.41,236.65,1950.74,236.65,1950.74z"/>
		<g clip-path="url(#SVGID_00000021828806547503232340000010663239711480840634_)">
			
				<linearGradient id="SVGID_00000039132430735221814490000008873525340847570832_" gradientUnits="userSpaceOnUse" x1="909.7915" y1="1308.2395" x2="1023.4592" y2="1415.5923">
				<stop  offset="5.586590e-03" style="stop-color:#452765"/>
				<stop  offset="1" style="stop-color:#1F0D38"/>
			</linearGradient>
			<path fill="url(#SVGID_00000039132430735221814490000008873525340847570832_)" d="M1084.55,1487.26L657.83,922.16l232.41,372.55
				l-232.41-76.33c0,0,177.8,54.69,289.56,182.29c111.76,127.6,104.14,184.57,104.14,184.57L1084.55,1487.26z"/>
			
				<linearGradient id="SVGID_00000109723882045257295090000017384425213664094373_" gradientUnits="userSpaceOnUse" x1="1230.8296" y1="2279.304" x2="796.2937" y2="1385.7505">
				<stop  offset="5.586590e-03" style="stop-color:#452765"/>
				<stop  offset="1" style="stop-color:#1F0D38"/>
			</linearGradient>
			<path fill="url(#SVGID_00000109723882045257295090000017384425213664094373_)" d="M1096.82,811.65c0,0,3.39,929.67,50.8,1190.95
				c47.41,261.28,23.71,698.77,23.71,698.77H856.37c0,0,157.64-1014.74,176.26-1269.94
				C1051.26,1176.23,1059.57,945.33,1096.82,811.65z"/>
		</g>
	</g>
	<ellipse fill="#FFFFFF" cx="248.39" cy="238.88" rx="63.62" ry="57.07"/>
	<ellipse fill="#FFFFFF" cx="777.8" cy="1576.02" rx="63.62" ry="57.07"/>
	<path fill="#FFFFFF" d="M208.63,375.45c0,11.82-10.68,21.4-23.86,21.4c-13.18,0-23.86-9.58-23.86-21.4s10.68-21.4,23.86-21.4
		C197.95,354.05,208.63,363.63,208.63,375.45z"/>
	<path fill="#FFFFFF" d="M499.46,460.04c0,16.89-15.26,30.57-34.08,30.57s-34.08-13.69-34.08-30.57c0-16.89,15.26-30.57,34.08-30.57
		S499.46,443.15,499.46,460.04z"/>
	<path fill="#FFFFFF" d="M917.54,435.58c0,13.51-12.21,24.46-27.27,24.46c-15.06,0-27.27-10.95-27.27-24.46
		c0-13.51,12.21-24.46,27.27-24.46C905.33,411.12,917.54,422.07,917.54,435.58z"/>
	<path fill="#FFFFFF" d="M702.82,173.91c0,8.58,7.76,15.54,17.33,15.54s17.33-6.96,17.33-15.54c0-8.58-7.76-15.54-17.33-15.54
		S702.82,165.33,702.82,173.91z"/>
	<path fill="#FFFFFF" d="M867.34,1387.06c0,11.86-10.72,21.48-23.94,21.48c-13.22,0-23.94-9.62-23.94-21.48
		c0-11.86,10.72-21.48,23.94-21.48C856.62,1365.59,867.34,1375.2,867.34,1387.06z"/>
	<path fill="#FFFFFF" d="M319.97,1506.72c0,16.32-14.75,29.56-32.95,29.56c-18.2,0-32.95-13.23-32.95-29.56
		c0-16.32,14.75-29.56,32.95-29.56C305.21,1477.16,319.97,1490.4,319.97,1506.72z"/>
	<path fill="#FFFFFF" d="M809.61,1427.57c0,7.88-7.12,14.27-15.9,14.27s-15.91-6.39-15.91-14.27c0-7.88,7.12-14.27,15.91-14.27
		S809.61,1419.68,809.61,1427.57z"/>
</g>
</svg>
