<?xml version="1.0" encoding="utf-8"?>
<!-- Generator: Adobe Illustrator 27.2.0, SVG Export Plug-In . SVG Version: 6.00 Build 0)  -->
<svg version="1.1" id="Capa_1" xmlns="http://www.w3.org/2000/svg" xmlns:xlink="http://www.w3.org/1999/xlink" x="0px" y="0px"
	 viewBox="0 0 1080 2340" enable-background="new 0 0 1080 2340" xml:space="preserve">
<g>
	<g>
		<defs>
			<rect id="SVGID_1_" width="1080" height="2340"/>
		</defs>
		<clipPath id="SVGID_00000121987515349278282750000017339565914673189038_">
			<use xlink:href="#SVGID_1_"  overflow="visible"/>
		</clipPath>
		
			<linearGradient id="SVGID_00000021839656007967507890000008739199087681083579_" gradientUnits="userSpaceOnUse" x1="540" y1="2340" x2="540" y2="-9.094947e-13">
			<stop  offset="0" style="stop-color:#1A025E"/>
			<stop  offset="0.1478" style="stop-color:#222280"/>
			<stop  offset="0.4218" style="stop-color:#3059BB"/>
			<stop  offset="0.5389" style="stop-color:#497ACA"/>
			<stop  offset="0.7508" style="stop-color:#73B2E4"/>
			<stop  offset="0.909" style="stop-color:#8DD4F4"/>
			<stop  offset="0.9944" style="stop-color:#97E1FA"/>
		</linearGradient>
		
			<rect clip-path="url(#SVGID_00000121987515349278282750000017339565914673189038_)" fill="url(#SVGID_00000021839656007967507890000008739199087681083579_)" width="1080" height="2340"/>
		<path opacity="0.3" clip-path="url(#SVGID_00000121987515349278282750000017339565914673189038_)" fill="#090114" d="
			M-67.18,1739.86c0,0,281.77-1356.45,596.1-1347.03c314.33,9.42,651.66,1266.96,651.66,1266.96S324.43,1970.64-67.18,1739.86z"/>
		
			<linearGradient id="SVGID_00000119117309439713315890000014749683202495074490_" gradientUnits="userSpaceOnUse" x1="679.1638" y1="1570.9125" x2="624.2213" y2="2274.1707">
			<stop  offset="0" style="stop-color:#FFFFFF"/>
			<stop  offset="1" style="stop-color:#93D8E8"/>
		</linearGradient>
		
			<path clip-path="url(#SVGID_00000121987515349278282750000017339565914673189038_)" fill="url(#SVGID_00000119117309439713315890000014749683202495074490_)" d="
			M-651.33,1957.92c0,0,982.14-941.34,2555.79-256.48v828.91H-627.66L-651.33,1957.92z"/>
		<g clip-path="url(#SVGID_00000121987515349278282750000017339565914673189038_)">
			
				<linearGradient id="SVGID_00000054965046634610282900000000267605014733911728_" gradientUnits="userSpaceOnUse" x1="488.0132" y1="1249.7874" x2="1177.3618" y2="1285.1385">
				<stop  offset="0" style="stop-color:#A0D3EA"/>
				<stop  offset="1" style="stop-color:#1A6789"/>
			</linearGradient>
			<path fill="url(#SVGID_00000054965046634610282900000000267605014733911728_)" d="M1144.84,1605.92H736.12
				c-89.09,0-169.45-14.52-230.96-72.34c-55.27-51.96-97.84-143.05-40.53-237.93c60.44-100.06,155.63-99.4,201.36-96.25
				c0,0-94.98-242.99,181.16-271.39c248.47-25.56,391.56,214.61,386.99,400.93c-0.73,29.75,9.58,59.17,30.29,82.41
				c13.92,15.63,26.05,39.26,25.01,70.9C1287.15,1551.53,1222.11,1605.92,1144.84,1605.92z"/>
			
				<linearGradient id="SVGID_00000065795268701535330360000008017083790311915185_" gradientUnits="userSpaceOnUse" x1="1210.5264" y1="981.1235" x2="915.5429" y2="1382.3645">
				<stop  offset="0" style="stop-color:#A0D3EA"/>
				<stop  offset="1" style="stop-color:#1A6789"/>
			</linearGradient>
			<path fill="url(#SVGID_00000065795268701535330360000008017083790311915185_)" d="M1264.43,1411.35
				c-20.71-23.25-31.02-52.66-30.29-82.41c4.57-186.32-138.52-426.48-386.99-400.93c-32.79,3.37-60.29,9.8-83.39,18.46
				c40.08,3.01,79.68,12.15,117.9,29.29c70.32,29.88,144.33,96.28,122.13,172.64c-33.31,109.56-196.15,162.68-177.64,285.52
				c7.4,43.16,74.02,63.08,125.83,49.8c55.51-13.28,140.63-56.44,173.94,3.32c29.61,49.8-29.61,92.96-77.72,109.56
				c-9.32,3.46-18.75,6.54-28.27,9.32h124.91c77.27,0,142.3-54.39,144.6-123.67C1290.48,1450.61,1278.35,1426.98,1264.43,1411.35z"
				/>
			
				<linearGradient id="SVGID_00000101822853470207911700000005120600892665729459_" gradientUnits="userSpaceOnUse" x1="949.3614" y1="1453.4193" x2="862.8613" y2="1275.5458" gradientTransform="matrix(0.9982 0.0607 -0.0607 0.9982 160.3903 -67.4576)">
				<stop  offset="5.586590e-03" style="stop-color:#452765"/>
				<stop  offset="1" style="stop-color:#1F0D38"/>
			</linearGradient>
			<polygon fill="url(#SVGID_00000101822853470207911700000005120600892665729459_)" points="903.19,1465.75 1038.28,1136.42 
				923.44,1556.96 			"/>
			
				<linearGradient id="SVGID_00000170994740008377247250000017191307116858113465_" gradientUnits="userSpaceOnUse" x1="788.923" y1="1560.3621" x2="692.7413" y2="1362.5798" gradientTransform="matrix(0.9982 0.0607 -0.0607 0.9982 160.3903 -67.4576)">
				<stop  offset="5.586590e-03" style="stop-color:#452765"/>
				<stop  offset="1" style="stop-color:#1F0D38"/>
			</linearGradient>
			<polygon fill="url(#SVGID_00000170994740008377247250000017191307116858113465_)" points="898.04,1541.68 699.63,1271.28 
				893.69,1605.92 			"/>
			
				<linearGradient id="SVGID_00000062183189871829720770000003947473764702023353_" gradientUnits="userSpaceOnUse" x1="820.6993" y1="1819.0643" x2="759.6891" y2="1693.6066" gradientTransform="matrix(0.9982 0.0607 -0.0607 0.9982 160.3903 -67.4576)">
				<stop  offset="5.586590e-03" style="stop-color:#452765"/>
				<stop  offset="1" style="stop-color:#1F0D38"/>
			</linearGradient>
			<polygon fill="url(#SVGID_00000062183189871829720770000003947473764702023353_)" points="916.1,1795.25 754.19,1636.25 
				904.44,1837.3 			"/>
			
				<linearGradient id="SVGID_00000002342152442481799170000002071400472122918316_" gradientUnits="userSpaceOnUse" x1="954.6997" y1="1973.8706" x2="663.5239" y2="1375.1141" gradientTransform="matrix(0.9982 0.0607 -0.0607 0.9982 160.3903 -67.4576)">
				<stop  offset="5.586590e-03" style="stop-color:#452765"/>
				<stop  offset="1" style="stop-color:#1F0D38"/>
			</linearGradient>
			<path fill="url(#SVGID_00000002342152442481799170000002071400472122918316_)" d="M842.39,1023.78
				c0,0,153.64,658.07,129.98,1202.14H867.04C867.04,2225.92,920.64,1585.26,842.39,1023.78z"/>
			<g>
				<path fill="#FFFFFF" d="M728.43,1494.51c0,2.29-2.07,4.14-4.62,4.14s-4.62-1.85-4.62-4.14s2.07-4.14,4.62-4.14
					S728.43,1492.22,728.43,1494.51z"/>
				<path fill="#FFFFFF" d="M742.94,1523.06c0,4.33-3.91,7.84-8.74,7.84c-4.83,0-8.74-3.51-8.74-7.84c0-4.33,3.91-7.84,8.74-7.84
					C739.02,1515.22,742.94,1518.73,742.94,1523.06z"/>
				<path fill="#FFFFFF" d="M804.94,1510.04c0,1.88-1.7,3.4-3.79,3.4c-2.09,0-3.79-1.52-3.79-3.4c0-1.88,1.7-3.4,3.79-3.4
					C803.24,1506.64,804.94,1508.16,804.94,1510.04z"/>
				<path fill="#FFFFFF" d="M787.29,1478.31c0,2-1.81,3.62-4.04,3.62c-2.23,0-4.04-1.62-4.04-3.62c0-2,1.81-3.62,4.04-3.62
					C785.48,1474.68,787.29,1476.31,787.29,1478.31z"/>
				<path fill="#FFFFFF" d="M753.49,1451.9c0,2.61-2.36,4.73-5.28,4.73c-2.91,0-5.28-2.12-5.28-4.73c0-2.61,2.36-4.73,5.28-4.73
					C751.13,1447.17,753.49,1449.29,753.49,1451.9z"/>
				<ellipse fill="#FFFFFF" cx="944.87" cy="1158.72" rx="3.96" ry="3.55"/>
				<ellipse fill="#FFFFFF" cx="930.02" cy="1131.2" rx="5.82" ry="5.22"/>
				<path fill="#FFFFFF" d="M816.92,1242.06c0,8.34-7.54,15.1-16.83,15.1c-9.3,0-16.83-6.76-16.83-15.1c0-8.34,7.54-15.1,16.83-15.1
					C809.38,1226.96,816.92,1233.72,816.92,1242.06z"/>
				<path fill="#FFFFFF" d="M1051.94,1360.49c0,4.57-4.13,8.28-9.23,8.28c-5.1,0-9.23-3.71-9.23-8.28c0-4.57,4.13-8.28,9.23-8.28
					C1047.81,1352.21,1051.94,1355.91,1051.94,1360.49z"/>
				<ellipse fill="#FFFFFF" cx="1011.38" cy="1415.22" rx="9.56" ry="8.58"/>
				<path fill="#FFFFFF" d="M1116.7,1397.4c0,10.46-9.45,18.93-21.11,18.93c-11.66,0-21.11-8.48-21.11-18.93s9.45-18.93,21.11-18.93
					C1107.25,1378.47,1116.7,1386.95,1116.7,1397.4z"/>
			</g>
			<path fill="#FFFFFF" d="M446.79,1444.55c0,0-58.22-114.15,21.3-191.6c79.53-77.46,176.09-61.15,176.09-61.15
				S581.7,966.21,793.01,926.13c211.31-40.08,330.6,50.62,266.98,85.28s-232.9-29.56-268.11,91.72
				c-33.57,115.6-12.44,288.59-192.36,300.15c-15.41,0.99-30.82-1.3-45.47-5.71C522.27,1388.01,457.24,1377.22,446.79,1444.55z"/>
		</g>
		<g clip-path="url(#SVGID_00000121987515349278282750000017339565914673189038_)">
			
				<linearGradient id="SVGID_00000116957277525472223890000004728376393728717193_" gradientUnits="userSpaceOnUse" x1="4572.416" y1="788.9673" x2="5261.7646" y2="824.3185" gradientTransform="matrix(-1 0 0 1 5103.6167 0)">
				<stop  offset="0" style="stop-color:#A0D3EA"/>
				<stop  offset="1" style="stop-color:#1A6789"/>
			</linearGradient>
			<path fill="url(#SVGID_00000116957277525472223890000004728376393728717193_)" d="M-125.63,1145.1h408.72
				c89.09,0,169.45-14.52,230.96-72.34c55.27-51.96,97.84-143.05,40.53-237.93c-60.44-100.06-155.63-99.4-201.36-96.25
				c0,0,94.98-242.99-181.16-271.39C-76.41,441.64-219.5,681.8-214.93,868.12c0.73,29.75-9.58,59.17-30.29,82.41
				c-13.92,15.63-26.05,39.26-25.01,70.9C-267.93,1090.71-202.9,1145.1-125.63,1145.1z"/>
			
				<linearGradient id="SVGID_00000180359084786462642360000008305466482113761172_" gradientUnits="userSpaceOnUse" x1="5294.9292" y1="520.3035" x2="4999.9458" y2="921.5446" gradientTransform="matrix(-1 0 0 1 5103.6167 0)">
				<stop  offset="0" style="stop-color:#A0D3EA"/>
				<stop  offset="1" style="stop-color:#1A6789"/>
			</linearGradient>
			<path fill="url(#SVGID_00000180359084786462642360000008305466482113761172_)" d="M-245.22,950.53
				c20.71-23.25,31.02-52.66,30.29-82.41C-219.5,681.8-76.41,441.64,172.06,467.19c32.79,3.37,60.29,9.8,83.39,18.46
				c-40.08,3.01-79.68,12.15-117.9,29.29C67.23,544.82-6.79,611.22,15.42,687.58C48.73,797.14,211.57,850.26,193.06,973.1
				c-7.4,43.16-74.02,63.08-125.83,49.8c-55.51-13.28-140.63-56.44-173.94,3.32c-29.61,49.8,29.61,92.96,77.72,109.56
				c9.32,3.46,18.75,6.54,28.27,9.32h-124.91c-77.27,0-142.3-54.39-144.6-123.67C-271.27,989.79-259.14,966.16-245.22,950.53z"/>
			
				<linearGradient id="SVGID_00000146462682287035936530000009090892713197920385_" gradientUnits="userSpaceOnUse" x1="4998.0854" y1="745.5676" x2="4911.5854" y2="567.6941" gradientTransform="matrix(-0.9982 0.0607 0.0607 0.9982 4943.2261 -67.4576)">
				<stop  offset="5.586590e-03" style="stop-color:#452765"/>
				<stop  offset="1" style="stop-color:#1F0D38"/>
			</linearGradient>
			<polygon fill="url(#SVGID_00000146462682287035936530000009090892713197920385_)" points="116.03,1004.93 -19.06,675.6 
				95.78,1096.14 			"/>
			
				<linearGradient id="SVGID_00000057849523300980897870000003268471297879540869_" gradientUnits="userSpaceOnUse" x1="4837.647" y1="852.5102" x2="4741.4653" y2="654.728" gradientTransform="matrix(-0.9982 0.0607 0.0607 0.9982 4943.2261 -67.4576)">
				<stop  offset="5.586590e-03" style="stop-color:#452765"/>
				<stop  offset="1" style="stop-color:#1F0D38"/>
			</linearGradient>
			<polygon fill="url(#SVGID_00000057849523300980897870000003268471297879540869_)" points="121.17,1080.86 319.59,810.46 
				125.53,1145.1 			"/>
			
				<linearGradient id="SVGID_00000069388739191390866090000006278709746184756867_" gradientUnits="userSpaceOnUse" x1="4869.4233" y1="1111.2125" x2="4808.4131" y2="985.7549" gradientTransform="matrix(-0.9982 0.0607 0.0607 0.9982 4943.2261 -67.4576)">
				<stop  offset="5.586590e-03" style="stop-color:#452765"/>
				<stop  offset="1" style="stop-color:#1F0D38"/>
			</linearGradient>
			<polygon fill="url(#SVGID_00000069388739191390866090000006278709746184756867_)" points="103.12,1334.43 265.03,1175.43 
				114.78,1376.48 			"/>
			
				<linearGradient id="SVGID_00000027583239080788429560000014639518777896560004_" gradientUnits="userSpaceOnUse" x1="5003.4233" y1="1266.0189" x2="4712.2476" y2="667.2625" gradientTransform="matrix(-0.9982 0.0607 0.0607 0.9982 4943.2261 -67.4576)">
				<stop  offset="5.586590e-03" style="stop-color:#452765"/>
				<stop  offset="1" style="stop-color:#1F0D38"/>
			</linearGradient>
			<path fill="url(#SVGID_00000027583239080788429560000014639518777896560004_)" d="M176.82,562.96
				c0,0-153.64,658.07-129.98,1202.14h105.34C152.18,1765.1,98.58,1124.44,176.82,562.96z"/>
			<g>
				<path fill="#FFFFFF" d="M290.79,1033.69c0,2.29,2.07,4.14,4.62,4.14s4.62-1.85,4.62-4.14s-2.07-4.14-4.62-4.14
					S290.79,1031.4,290.79,1033.69z"/>
				<path fill="#FFFFFF" d="M276.28,1062.24c0,4.33,3.91,7.84,8.74,7.84c4.83,0,8.74-3.51,8.74-7.84c0-4.33-3.91-7.84-8.74-7.84
					C280.19,1054.4,276.28,1057.91,276.28,1062.24z"/>
				<path fill="#FFFFFF" d="M214.28,1049.22c0,1.88,1.7,3.4,3.79,3.4c2.09,0,3.79-1.52,3.79-3.4c0-1.88-1.7-3.4-3.79-3.4
					C215.98,1045.82,214.28,1047.34,214.28,1049.22z"/>
				<path fill="#FFFFFF" d="M231.92,1017.49c0,2,1.81,3.62,4.04,3.62s4.04-1.62,4.04-3.62s-1.81-3.62-4.04-3.62
					S231.92,1015.49,231.92,1017.49z"/>
				<path fill="#FFFFFF" d="M265.72,991.08c0,2.61,2.36,4.73,5.28,4.73c2.91,0,5.28-2.12,5.28-4.73c0-2.61-2.36-4.73-5.28-4.73
					C268.09,986.35,265.72,988.47,265.72,991.08z"/>
				<ellipse fill="#FFFFFF" cx="74.34" cy="697.9" rx="3.96" ry="3.55"/>
				<path fill="#FFFFFF" d="M83.37,670.38c0,2.88,2.6,5.22,5.82,5.22s5.82-2.34,5.82-5.22s-2.6-5.22-5.82-5.22
					S83.37,667.5,83.37,670.38z"/>
				<path fill="#FFFFFF" d="M202.3,781.24c0,8.34,7.54,15.1,16.83,15.1c9.3,0,16.83-6.76,16.83-15.1c0-8.34-7.54-15.1-16.83-15.1
					C209.83,766.14,202.3,772.9,202.3,781.24z"/>
				<path fill="#FFFFFF" d="M-32.73,899.67c0,4.57,4.13,8.28,9.23,8.28s9.23-3.71,9.23-8.28s-4.13-8.28-9.23-8.28
					S-32.73,895.09-32.73,899.67z"/>
				<path fill="#FFFFFF" d="M-1.73,954.4c0,4.74,4.28,8.58,9.56,8.58c5.28,0,9.56-3.84,9.56-8.58s-4.28-8.58-9.56-8.58
					C2.55,945.82-1.73,949.66-1.73,954.4z"/>
				<path fill="#FFFFFF" d="M-97.49,936.58c0,10.46,9.45,18.93,21.11,18.93s21.11-8.48,21.11-18.93c0-10.46-9.45-18.93-21.11-18.93
					S-97.49,926.13-97.49,936.58z"/>
			</g>
			<path fill="#FFFFFF" d="M572.43,983.73c0,0,58.22-114.15-21.3-191.6c-79.52-77.46-176.09-61.15-176.09-61.15
				s62.48-225.59-148.83-265.67s-330.6,50.62-266.98,85.28C22.85,585.24,546.48,821.84,572.43,983.73z"/>
		</g>
		
			<linearGradient id="SVGID_00000147213448308680001950000008174147123830524832_" gradientUnits="userSpaceOnUse" x1="871.8165" y1="1582.0619" x2="817.0497" y2="2283.0688">
			<stop  offset="0" style="stop-color:#FFFFFF"/>
			<stop  offset="1" style="stop-color:#93D8E8"/>
		</linearGradient>
		
			<path clip-path="url(#SVGID_00000121987515349278282750000017339565914673189038_)" fill="url(#SVGID_00000147213448308680001950000008174147123830524832_)" d="
			M509.82,2173.58c0,92.31,141.39,76.44,315.79,76.44c174.41,0,315.79,15.87,315.79-76.44c0-92.31-141.39-167.14-315.79-167.14
			C651.2,2006.44,509.82,2081.27,509.82,2173.58z"/>
		
			<linearGradient id="SVGID_00000158019028568697718540000003252621002344728764_" gradientUnits="userSpaceOnUse" x1="171.3534" y1="1535.3058" x2="116.5866" y2="2236.3142">
			<stop  offset="0" style="stop-color:#FFFFFF"/>
			<stop  offset="1" style="stop-color:#93D8E8"/>
		</linearGradient>
		
			<path clip-path="url(#SVGID_00000121987515349278282750000017339565914673189038_)" fill="url(#SVGID_00000158019028568697718540000003252621002344728764_)" d="
			M-164.25,1789.02c0,92.31,141.39,76.44,315.79,76.44c174.41,0,315.79,15.87,315.79-76.44c0-92.31-141.39-167.14-315.79-167.14
			C-22.87,1621.88-164.25,1696.71-164.25,1789.02z"/>
	</g>
	<path fill="#FFFFFF" d="M140.9,117.6c0,11.26-10.17,20.38-22.72,20.38c-12.55,0-22.72-9.13-22.72-20.38s10.17-20.38,22.72-20.38
		C130.73,97.22,140.9,106.34,140.9,117.6z"/>
	<ellipse fill="#FFFFFF" cx="128.4" cy="289.84" rx="32.95" ry="29.56"/>
	<path fill="#FFFFFF" d="M310.17,319.39c0,8.44-7.63,15.29-17.04,15.29c-9.41,0-17.04-6.84-17.04-15.29s7.63-15.29,17.04-15.29
		C302.54,304.11,310.17,310.95,310.17,319.39z"/>
	<path fill="#FFFFFF" d="M913.43,538.85c0,21.39-19.33,38.73-43.17,38.73c-23.84,0-43.17-17.34-43.17-38.73
		c0-21.39,19.33-38.73,43.17-38.73C894.1,500.13,913.43,517.47,913.43,538.85z"/>
	<ellipse fill="#FFFFFF" cx="712.34" cy="867.7" rx="43.17" ry="38.73"/>
	<ellipse fill="#FFFFFF" cx="556.7" cy="616.31" rx="43.17" ry="38.73"/>
	<path fill="#FFFFFF" d="M852.08,282.7c0,20.26-18.31,36.69-40.9,36.69c-22.59,0-40.9-16.43-40.9-36.69
		c0-20.26,18.31-36.69,40.9-36.69C833.77,246.01,852.08,262.44,852.08,282.7z"/>
	<path fill="#FFFFFF" d="M942.97,202.19c0,7.32-6.61,13.25-14.77,13.25c-8.16,0-14.77-5.93-14.77-13.25
		c0-7.32,6.61-13.25,14.77-13.25C936.36,188.94,942.97,194.87,942.97,202.19z"/>
	<path fill="#FFFFFF" d="M698.71,513.38c0,7.32-6.61,13.25-14.77,13.25c-8.16,0-14.77-5.93-14.77-13.25
		c0-7.32,6.61-13.25,14.77-13.25C692.1,500.13,698.71,506.06,698.71,513.38z"/>
	<path fill="#FFFFFF" d="M290.86,1359.96c0,7.32-6.61,13.25-14.77,13.25c-8.16,0-14.77-5.93-14.77-13.25
		c0-7.32,6.61-13.25,14.77-13.25C284.25,1346.71,290.86,1352.64,290.86,1359.96z"/>
	<ellipse fill="#FFFFFF" cx="852.08" cy="134.93" rx="42.03" ry="37.71"/>
</g>
</svg>
