<?xml version="1.0" encoding="utf-8"?>
<!-- Generator: Adobe Illustrator 27.2.0, SVG Export Plug-In . SVG Version: 6.00 Build 0)  -->
<svg version="1.1" id="Capa_1" xmlns="http://www.w3.org/2000/svg" xmlns:xlink="http://www.w3.org/1999/xlink" x="0px" y="0px"
	 viewBox="0 0 1080 2340" enable-background="new 0 0 1080 2340" xml:space="preserve">
<g>
	<g>
		<defs>
			<rect id="SVGID_1_" width="1080" height="2340"/>
		</defs>
		<clipPath id="SVGID_00000000940444927470774470000008590044993110236554_">
			<use xlink:href="#SVGID_1_"  overflow="visible"/>
		</clipPath>
		
			<linearGradient id="SVGID_00000087373936420996922370000016241503601265018283_" gradientUnits="userSpaceOnUse" x1="540" y1="2340" x2="540" y2="-9.094947e-13">
			<stop  offset="0" style="stop-color:#1A025E"/>
			<stop  offset="0.1478" style="stop-color:#222280"/>
			<stop  offset="0.4218" style="stop-color:#3059BB"/>
			<stop  offset="0.5389" style="stop-color:#497ACA"/>
			<stop  offset="0.7508" style="stop-color:#73B2E4"/>
			<stop  offset="0.909" style="stop-color:#8DD4F4"/>
			<stop  offset="0.9944" style="stop-color:#97E1FA"/>
		</linearGradient>
		
			<rect clip-path="url(#SVGID_00000000940444927470774470000008590044993110236554_)" fill="url(#SVGID_00000087373936420996922370000016241503601265018283_)" width="1080" height="2340"/>
		<g opacity="0.17" clip-path="url(#SVGID_00000000940444927470774470000008590044993110236554_)">
			<path fill="#090114" d="M-246.24,1917.49c0,0,243.89-1174.08,515.96-1165.92c272.07,8.15,564.04,1096.62,564.04,1096.62
				S92.72,2117.24-246.24,1917.49z"/>
			<path fill="#090114" d="M347.05,1917.49c0,0,243.89-1174.08,515.96-1165.92c272.07,8.15,564.04,1096.62,564.04,1096.62
				S686.01,2117.24,347.05,1917.49z"/>
		</g>
		
			<linearGradient id="SVGID_00000148641398408851185940000007051701968410123395_" gradientUnits="userSpaceOnUse" x1="489.786" y1="1111.0708" x2="470.364" y2="1508.4816" gradientTransform="matrix(0.9945 -0.1052 0.1052 0.9945 -118.0789 185.2675)">
			<stop  offset="5.586590e-03" style="stop-color:#452765"/>
			<stop  offset="1" style="stop-color:#1F0D38"/>
		</linearGradient>
		
			<path clip-path="url(#SVGID_00000000940444927470774470000008590044993110236554_)" fill="url(#SVGID_00000148641398408851185940000007051701968410123395_)" d="
			M419.12,1152.31c0,0,0.54,75.55,62.16,130.15c0,0,48.71-22.49,87.66-113.83c0,0,7.88,57.33-74.42,126.22
			c0,0-20.04,187.4,29.18,306.65c49.22,119.25,51.7,182.85,51.7,182.85l-126.67,12.02c0,0,24.1-157.75,21.6-249.88
			c-2.49-92.14-11.49-125.83-11.49-125.83s-44.55-29.94-55.4-100.64c0,0,15.11,57.15,63.06,80.38l7.13-102.81
			C473.64,1297.59,400.67,1234.92,419.12,1152.31z"/>
		
			<linearGradient id="SVGID_00000137854741946770596380000016965909171153512126_" gradientUnits="userSpaceOnUse" x1="588.6631" y1="1823.2961" x2="616.1921" y2="2255.5015">
			<stop  offset="0" style="stop-color:#FFFFFF"/>
			<stop  offset="1" style="stop-color:#93D8E8"/>
		</linearGradient>
		
			<path clip-path="url(#SVGID_00000000940444927470774470000008590044993110236554_)" fill="url(#SVGID_00000137854741946770596380000016965909171153512126_)" d="
			M-732.54,1988.93c0,0,1279.22-623.59,2690.23,0v419.67H-732.54V1988.93z"/>
		
			<linearGradient id="SVGID_00000080176833651496398280000002204077967746531200_" gradientUnits="userSpaceOnUse" x1="177.1736" y1="1000.9378" x2="144.3595" y2="1672.3741" gradientTransform="matrix(0.9945 -0.1052 0.1052 0.9945 -118.0789 185.2675)">
			<stop  offset="5.586590e-03" style="stop-color:#452765"/>
			<stop  offset="1" style="stop-color:#1F0D38"/>
		</linearGradient>
		
			<path clip-path="url(#SVGID_00000000940444927470774470000008590044993110236554_)" fill="url(#SVGID_00000080176833651496398280000002204077967746531200_)" d="
			M50.59,1016.09c0,0,0.91,127.65,105.02,219.9c0,0,82.3-38,148.11-192.31c0,0,13.31,96.86-125.73,213.26
			c0,0-33.86,316.62,49.3,518.09c83.16,201.47,87.34,308.93,87.34,308.93l-214.01,20.31c0,0,40.71-266.52,36.5-422.19
			s-19.41-212.6-19.41-212.6s-75.27-50.59-93.6-170.03c0,0,25.53,96.55,106.54,135.81l12.05-173.71
			C142.71,1261.55,19.43,1155.66,50.59,1016.09z"/>
		<g clip-path="url(#SVGID_00000000940444927470774470000008590044993110236554_)">
			
				<linearGradient id="SVGID_00000080199128541962697350000000054647239090841996_" gradientUnits="userSpaceOnUse" x1="2560.6196" y1="1032.0573" x2="2541.8083" y2="1643.4172" gradientTransform="matrix(-1 0 0 1 3353.6299 0)">
				<stop  offset="0" style="stop-color:#A0D3EA"/>
				<stop  offset="1" style="stop-color:#1A6789"/>
			</linearGradient>
			<path fill="url(#SVGID_00000080199128541962697350000000054647239090841996_)" d="M1113.54,1024.37
				c0,0-11.25-113.56-98.46-136.28c-87.21-22.71-161.76,51.73-278.5-31.55c-116.75-83.28-353.05-61.83-333.36,172.87
				c0,0-161.76,228.39,35.16,394.95c196.92,166.56,160.35,198.11,419.16,198.11s441.66-179.18,395.25-363.4
				C1206.37,1074.85,1113.54,1024.37,1113.54,1024.37z"/>
			
				<linearGradient id="SVGID_00000092424069176818240350000004962334222574892733_" gradientUnits="userSpaceOnUse" x1="2293.0862" y1="1265.9115" x2="2283.0049" y2="1593.5527" gradientTransform="matrix(-1 0 0 1 3353.6299 0)">
				<stop  offset="0" style="stop-color:#A0D3EA"/>
				<stop  offset="1" style="stop-color:#1A6789"/>
			</linearGradient>
			<path fill="url(#SVGID_00000092424069176818240350000004962334222574892733_)" d="M869.22,1403.41
				c-31.57-155.76,165.74-191.17,292.02-237.19c17.52-6.29,33.67-15.2,47.86-26.1c16.08,31.45,31.49,70.54,43.68,118.95
				c33.35,132.37-51.69,262.09-198.19,324.65c-29.05-11.67-56.95-26.03-82.77-42.24C920.52,1506.08,881.06,1460.05,869.22,1403.41z"
				/>
			
				<linearGradient id="SVGID_00000049198265568299489340000002398576569317396882_" gradientUnits="userSpaceOnUse" x1="2434.9348" y1="1223.6758" x2="3459.8745" y2="1192.7023" gradientTransform="matrix(-1 0 0 1 3353.6299 0)">
				<stop  offset="0" style="stop-color:#A0D3EA"/>
				<stop  offset="1" style="stop-color:#1A6789"/>
			</linearGradient>
			<path fill="url(#SVGID_00000049198265568299489340000002398576569317396882_)" d="M403.22,1029.42
				c-19.69-234.7,216.61-256.15,333.36-172.87c116.75,83.28,191.29,8.83,278.5,31.55c67.64,17.62,89.58,89.87,96.02,121.41
				c-12.13,23.27-33.75,41.53-68.24,50.51c-165.74,38.94-370.94-31.86-485.38,106.2c-39.46,46.02-7.89,113.28,35.52,148.68
				c82.87,70.8,197.31,102.66,252.56,198.25c19.72,33.61,25.64,72.53,19.25,109.24c-2.41,0.03-4.82,0.08-7.25,0.08
				c-258.81,0-222.24-31.55-419.16-198.11C241.46,1257.81,403.22,1029.42,403.22,1029.42z"/>
			
				<linearGradient id="SVGID_00000168818240268577914120000006123281317375473338_" gradientUnits="userSpaceOnUse" x1="2554.8918" y1="1230.1119" x2="2522.0732" y2="1901.6426" gradientTransform="matrix(-1 0 0 1 3353.6299 0)">
				<stop  offset="5.586590e-03" style="stop-color:#452765"/>
				<stop  offset="1" style="stop-color:#1F0D38"/>
			</linearGradient>
			<path fill="url(#SVGID_00000168818240268577914120000006123281317375473338_)" d="M893.64,1073.17c0,0,14.07,127.02-78.66,228.59
				c0,0-86.3-30.02-169.84-177.27c0,0-1.88,97.58,150.03,200.21c0,0,70.8,311.67,11.72,519.87
				c-59.08,208.2-50.64,315.46-50.64,315.46h215.2c0,0-71.74-261.2-85.8-416.4c-14.07-155.2-5.63-213.25-5.63-213.25
				s68.92-57.41,73.14-177.92c0,0-14.07,98.42-90.02,145.11l-32.35-171.61C830.82,1325.95,941,1209.02,893.64,1073.17z"/>
			<g>
				<path fill="#FFFFFF" d="M1056.81,1366.33c0,6.74-6.09,12.2-13.6,12.2s-13.6-5.46-13.6-12.2s6.09-12.2,13.6-12.2
					S1056.81,1359.59,1056.81,1366.33z"/>
				<path fill="#FFFFFF" d="M1099.94,1279.68c0,5.81-5.25,10.51-11.72,10.51c-6.47,0-11.72-4.71-11.72-10.51
					c0-5.81,5.25-10.52,11.72-10.52C1094.69,1269.17,1099.94,1273.88,1099.94,1279.68z"/>
				<path fill="#FFFFFF" d="M1130.5,1332.01c0,1.72-1.56,3.12-3.47,3.12c-1.92,0-3.47-1.4-3.47-3.12s1.56-3.12,3.47-3.12
					C1128.95,1328.89,1130.5,1330.29,1130.5,1332.01z"/>
				<path fill="#FFFFFF" d="M1076.5,1334.98c0,3.36-3.04,6.09-6.79,6.09c-3.75,0-6.79-2.73-6.79-6.09c0-3.36,3.04-6.09,6.79-6.09
					C1073.46,1328.89,1076.5,1331.62,1076.5,1334.98z"/>
				<path fill="#FFFFFF" d="M1111.1,1421.59c0,5.67-5.12,10.26-11.44,10.26s-11.44-4.59-11.44-10.26c0-5.67,5.12-10.26,11.44-10.26
					S1111.1,1415.93,1111.1,1421.59z"/>
				<path fill="#FFFFFF" d="M645.15,995.56c0,6.39-5.77,11.57-12.89,11.57c-7.12,0-12.89-5.18-12.89-11.57
					c0-6.39,5.77-11.57,12.89-11.57C639.38,984,645.15,989.17,645.15,995.56z"/>
				<path fill="#FFFFFF" d="M729.08,1027.74c0,4.41-3.99,7.99-8.91,7.99c-4.92,0-8.91-3.58-8.91-7.99c0-4.41,3.99-7.99,8.91-7.99
					C725.09,1019.75,729.08,1023.33,729.08,1027.74z"/>
				<ellipse fill="#FFFFFF" cx="624.29" cy="1054.03" rx="15.71" ry="14.09"/>
				<ellipse fill="#FFFFFF" cx="679.38" cy="1042.46" rx="7.5" ry="6.73"/>
				<path fill="#FFFFFF" d="M742.2,1117.75c0,2.09-1.89,3.79-4.22,3.79c-2.33,0-4.22-1.7-4.22-3.79c0-2.09,1.89-3.79,4.22-3.79
					C740.31,1113.96,742.2,1115.66,742.2,1117.75z"/>
			</g>
			<path fill="#FFFFFF" d="M352.34,1314.1c0,0-59.08-157.58,44.69-286.36c0,0-29.88-187.49,142.98-215.55
				c172.85-28.06,216.02,77.26,315.24,64.35c99.22-12.91,148.26-10.32,184.8,21.48c36.55,31.8-91.64,120.52-249.94,63.45
				s-149.96,104.63-258.27,131.81C423.53,1120.46,474.28,1296.43,352.34,1314.1z"/>
		</g>
	</g>
	
		<linearGradient id="SVGID_00000145029258077773480680000014470683002035495838_" gradientUnits="userSpaceOnUse" x1="740.0836" y1="2031.5895" x2="740.0836" y2="2210.8235">
		<stop  offset="0" style="stop-color:#FFFFFF"/>
		<stop  offset="1" style="stop-color:#93D8E8"/>
	</linearGradient>
	<path fill="url(#SVGID_00000145029258077773480680000014470683002035495838_)" d="M424.29,2115.15
		c0,92.31,141.39,76.44,315.79,76.44s315.79,15.87,315.79-76.44c0-92.31-141.39-167.14-315.79-167.14S424.29,2022.84,424.29,2115.15
		z"/>
	
		<linearGradient id="SVGID_00000012434871781387470340000008411119976871036329_" gradientUnits="userSpaceOnUse" x1="364.9513" y1="2031.5894" x2="364.9513" y2="2210.8232">
		<stop  offset="0" style="stop-color:#FFFFFF"/>
		<stop  offset="1" style="stop-color:#93D8E8"/>
	</linearGradient>
	<path fill="url(#SVGID_00000012434871781387470340000008411119976871036329_)" d="M49.16,2155.92
		c0,92.31,141.39,76.44,315.79,76.44c174.41,0,315.79,15.87,315.79-76.44c0-92.31-141.39-167.14-315.79-167.14
		C190.54,1988.78,49.16,2063.61,49.16,2155.92z"/>
	<path fill="#FFFFFF" d="M340.72,481.78c0,19.51-17.63,35.33-39.38,35.33c-21.75,0-39.38-15.82-39.38-35.33
		c0-19.51,17.63-35.33,39.38-35.33C323.08,446.45,340.72,462.27,340.72,481.78z"/>
	<ellipse fill="#FFFFFF" cx="708.31" cy="407.04" rx="57.56" ry="51.64"/>
	<ellipse fill="#FFFFFF" cx="449.28" cy="181.13" rx="12.5" ry="11.21"/>
	<path fill="#FFFFFF" d="M908.64,594.57c0,16.51-14.92,29.9-33.32,29.9c-18.4,0-33.32-13.39-33.32-29.9s14.92-29.9,33.32-29.9
		C893.72,564.67,908.64,578.06,908.64,594.57z"/>
	<path fill="#FFFFFF" d="M804.12,639.41c0,8.26-7.46,14.95-16.66,14.95c-9.2,0-16.66-6.69-16.66-14.95s7.46-14.95,16.66-14.95
		C796.66,624.46,804.12,631.16,804.12,639.41z"/>
	<path fill="#FFFFFF" d="M952.94,795.68c0,8.26-7.46,14.95-16.66,14.95c-9.2,0-16.66-6.69-16.66-14.95s7.46-14.95,16.66-14.95
		C945.48,780.74,952.94,787.43,952.94,795.68z"/>
	<path fill="#FFFFFF" d="M333.14,1509.96c0,9.76-8.82,17.67-19.69,17.67c-10.88,0-19.69-7.91-19.69-17.67
		c0-9.76,8.82-17.67,19.69-17.67C324.32,1492.3,333.14,1500.2,333.14,1509.96z"/>
	<ellipse fill="#FFFFFF" cx="281.9" cy="751.52" rx="39.38" ry="35.33"/>
	<ellipse fill="#FFFFFF" cx="384.91" cy="689.69" rx="19.69" ry="17.67"/>
	<path fill="#FFFFFF" d="M875.31,241.26c0,9.01-8.14,16.31-18.18,16.31c-10.04,0-18.18-7.3-18.18-16.31
		c0-9.01,8.14-16.31,18.18-16.31C867.17,224.95,875.31,232.25,875.31,241.26z"/>
</g>
</svg>
